<?xml version="1.0" encoding="UTF-8"?>
<svg id="Vrstva_2" data-name="Vrstva 2" xmlns="http://www.w3.org/2000/svg" viewBox="0 0 106.99 107">
  <defs>
    <style>
      .cls-1 {
        fill: #b4b5b5;
      }

      .cls-2 {
        fill: #f8bc4c;
      }

      .cls-3 {
        fill: #c5c6c6;
      }

      .cls-4 {
        fill: #e5a133;
      }
    </style>
  </defs>
  <g id="OBJECTS">
    <g>
      <rect class="cls-2" x="53.49" y="-4.41" width="10.4" height="126.21" transform="translate(-24.31 58.69) rotate(-45)"/>
      <rect class="cls-4" x="54.25" y="-2.57" width="5.2" height="126.21" transform="translate(-26.15 57.93) rotate(-45)"/>
      <path class="cls-3" d="m58.95,1.65c-.99.32-1.98.67-2.99,1.05-10.56,4.01-21.78,11.31-31.85,21.38C14.03,34.17,6.72,45.4,2.7,55.96h0c-.38,1-.73,2-1.05,2.98-.23.68-1.18.58-1.29-.12-1.95-13.08,3.94-29.2,16.61-41.87C29.65,4.28,45.76-1.59,58.83.37c.7.1.79,1.07.12,1.28Z"/>
      <path class="cls-1" d="m55.96,2.71c-10.56,4.01-21.78,11.31-31.85,21.38C14.03,34.17,6.72,45.4,2.7,55.96c.16-11.89,6.04-25.39,16.96-36.31S44.07,2.86,55.96,2.71Z"/>
    </g>
  </g>
</svg>