<?xml version="1.0" encoding="UTF-8"?>
<svg id="Vrstva_2" data-name="Vrstva 2" xmlns="http://www.w3.org/2000/svg" viewBox="0 0 1273.02 1814.96">
  <defs>
    <style>
      .cls-1 {
        fill: #282422;
      }

      .cls-2 {
        fill: #f39122;
      }

      .cls-3 {
        fill: none;
      }

      .cls-4 {
        fill: #595251;
      }

      .cls-5 {
        fill: #7d7271;
      }
    </style>
  </defs>
  <g id="Capa_1" data-name="Capa 1">
    <g>
      <path class="cls-2" d="m607.64,1735.71c0,43.77-35.48,79.25-79.24,79.25h0c-43.77,0-79.24-35.48-79.24-79.25V79.25c0-43.77,35.48-79.25,79.24-79.25h0c43.77,0,79.24,35.48,79.24,79.25v1656.47Z"/>
      <path class="cls-4" d="m676.03,152.47l-6.47,164.12c16.16,1.08,219.76-66.78,603.45,62.69-182.02-227.78-596.99-226.8-596.99-226.8Z"/>
      <path class="cls-4" d="m406.45,157.03l-291.31-4.56L0,293.48l72.53,77.75c13.05-2.61,85.25-16.89,319.2-41.59l14.72-172.62Z"/>
      <path class="cls-5" d="m686.88,162.8l.73,34.92c11.01.73,303.96-1.92,542.58,148.67-123.94-155.11-543.31-183.6-543.31-183.6Z"/>
      <path class="cls-1" d="m682.23,305.65c0,18.4-14.92,33.3-33.31,33.3h-241.05c-18.39,0-33.3-14.9-33.3-33.3v-136.53c0-18.39,14.91-33.31,33.3-33.31h241.05c18.39,0,33.31,14.91,33.31,33.31v136.53Z"/>
      <path class="cls-5" d="m657,196.84v-16.53c0-15.38-12.47-27.85-27.84-27.85h-201.53c-15.38,0-27.84,12.47-27.84,27.85v16.53h257.22Z"/>
      <polyline class="cls-3" points="23.48 283.37 161.04 215.26 374.57 196.84"/>
    </g>
  </g>
</svg>