<svg xmlns="http://www.w3.org/2000/svg" viewBox="0 0 234.92 128.02"><defs><style>.cls-1{fill:#999698;}.cls-2{fill:#878286;}.cls-3,.cls-7{fill:#6d696d;}.cls-4{fill:#a5a0a4;}.cls-5{fill:#bcb7bb;}.cls-6{fill:#5b575b;}.cls-7{opacity:0.5;}.cls-8{fill:#fabb00;}.cls-9{fill:#fcc138;}.cls-10{fill:#fdc837;}</style></defs><g id="Vrstva_2" data-name="Vrstva 2"><g id="Layer_1" data-name="Layer 1"><path class="cls-1" d="M127.57,12.43a13.38,13.38,0,0,0-3.67-6.31c-1.77-1.72-3.48-4.39-5.79-5.4-3-1.32-5.83-.16-8.48,1.65a42.71,42.71,0,0,0-10.46,8c-2.86,2.92-7.44,7.58-8.17,11.75-1.42,8.15,10.08,8.14,15.33,5.49.13.6.27,1.21.41,1.81a.85.85,0,0,0,.6.6C118.34,33.3,130.6,24.48,127.57,12.43Z"/><path class="cls-2" d="M118.45,30a.83.83,0,0,0-.79-.6c-.34,0-.66,0-1,0a11.08,11.08,0,0,1-3.87,1.11,5.53,5.53,0,0,1-3.33-.56,2.68,2.68,0,0,1-.88-.47l-.28-.39a7.63,7.63,0,0,1-1.4-2l-.68.24a.73.73,0,0,0-.7.07l-.37.27c-2.11.64-6.48.88-8.9-.76-3.67-2.49-5.17-7.22-5.63-4.91a18,18,0,0,0,.25,8.73c1.66,7.48,5,19.06,6.78,25.94.79,3,3.54,13.33,3.54,13.33a.82.82,0,0,0-1,.92c.68,4.1,4.88,5.65,8.35,6.92a79.26,79.26,0,0,0,18.55,4.24.82.82,0,0,0,.83-.83A414.84,414.84,0,0,0,118.45,30Z"/><path class="cls-3" d="M133.18,34.21c-.57-6.06-.65-12.44-2-18.38-1.29-5.63-5.34-8.23-9.12-12.21a.57.57,0,0,0-1,.34c-.49-.41-1-.8-1.49-1.17-.18-.14-.4.16-.24.31,3.38,3.17,6.62,7.58,7.22,12.14a82.14,82.14,0,0,1-7.06,12.37,18.08,18.08,0,0,1-4.62,1.85c-1,.25-.55,1.66.41,1.49,2.89-.51,2.54,2.3,2.8,4.28q.45,3.32.91,6.62c.66,4.66,1.42,9.29,2.19,13.93,1.34,8.16,2.86,16.29,4.37,24.43-.83.09-1.84.76-3.17-1-.61-.81-6.26-1.94-7.59-2.85s-3.75-4.14-4.93-5.56c-.24-.28-2-3.61-3.78-3.89.64,1.87,1.29,3.74,1.93,5.62a.74.74,0,0,0-.09.5,6,6,0,0,0,1.28,2.75c0,.23-.14.35-.55.36a2,2,0,0,1-1.58.07,15.75,15.75,0,0,1-1.54-1.33.66.66,0,0,0-.73-.07,12.38,12.38,0,0,1-2.06-3.44c-.5-1.65-2.14-3.88-2.65-5.53a39.45,39.45,0,0,0-1.31,14.42c2.69,2.2,6,.75,8,.56a1.13,1.13,0,0,0,.42,0,19.09,19.09,0,0,1,5.94,0c1.56.35,2.93,1.23,4.46,1.67a40.44,40.44,0,0,0,9.45.54,16.54,16.54,0,0,1,8.33-5.47C135.48,74.69,134.52,48.44,133.18,34.21Z"/><path class="cls-4" d="M120.39,2.76a9.52,9.52,0,0,0-9.8-.69C106.25,4,99.53,8.47,97,12.58c2.49,2.05,12.71-5.23,16.44-4.23,7.52,2,4.65,11,4,15.84l8.08-8.12C125.17,16.5,125.5,6,120.39,2.76Z"/><path class="cls-5" d="M118,.34c-3.39-1.18-8.17.88-11.1,3.63,4.23-1.77,11-3,14.1.81a17.64,17.64,0,0,1,3.44,10.07c.09,2.14-.42,1.92-3.44,3.3-2.2,1-2.17,2-3.06,5.27-.31,1.13-2.42,2.32-2.82,3-1.17,1.95-1.39,1.31-2.43,1.38-.85.06-1.26,1.11-2,1.3s-2.93-.65-3.41-3c-2.89,1.7-4,1.76-5.78,1.16a16.19,16.19,0,0,1-4-1.63A7.08,7.08,0,0,1,95,22.73c-.93-2.41-1.07-5.08,1.16-9.14-1.46,1.36-4.67,5.09-5.23,7.26s-.9,4.46.67,6c2.39,2.39,5.77,2.2,7,2.72a6,6,0,0,1,2.63,1.73c2.9,5.55,3.27,12.92,5.28,17.82.29.72,1.08.75,1.18,0a23.54,23.54,0,0,0-.7-9.55c-.46-3.11-1.31-6.38-3.12-8.5l1.69-1.94.61.21a1.83,1.83,0,0,0,.51,1.35c.19.22.43,1.55.86,1.47,1.09.53,2.44-.16,3.63-.47.28-.08,2.52-1.23,3.21,1.15.34,1.18,2.58,4.55,2.8,6a245.37,245.37,0,0,0,5.42,24.95,8.82,8.82,0,0,0,.28-4.6c-2.21-10.38-3.88-21-2.45-31.61.23-1.76,6.12-8.44,6.32-13.62C126.89,9.1,122.38,1.85,118,.34Z"/><path class="cls-6" d="M124.91,19.47c-1.08-.38-2.61,0-3.91.33.44.54,1.8,2.19,2.3,2.68,1.52,9.41,2.88,17.91,4.23,27.35,1.41,9.9,1.7,20.46,2.42,30.44,1-.63,2.25-1.37,2.88-1.73C131.92,58.89,125.8,23.47,124.91,19.47Z"/><path class="cls-6" d="M107.36,31.9a10.29,10.29,0,0,1-.35-3.5c.16-.18-3.18,2-3.58,2.3.69,2.9,1.89,10.24,2.39,14.14s1,9.78,2.51,13.22C110.2,52.12,107.82,31.57,107.36,31.9Z"/><path class="cls-6" d="M111.31,77.47c-1-2-1.54-2.58-2-3.47-.72-1.48-1.79-5.15-2.85-5.92-.6,2.19-1.83,5.79-2,8.48-.08,1.26.61,3.6.06,3.71-1.28.26-4.34-.87-5.77,0,2.48,3.28,8.4,1.31,11.73.82,3-.45,6.22,2,11,1.92C118.5,80.27,112.82,80.43,111.31,77.47Z"/><path class="cls-4" d="M47.43,74.29l.42-1.46c.32-1.11.63-2.23.95-3.35a1.14,1.14,0,0,1-.11.11c.34-1.3.68-2.58,1-3.85,1-4.51,1.83-9.06,2.64-13.5A86.26,86.26,0,0,0,54,43.61a38.11,38.11,0,0,1-6.68,8.82c-1.29,1.26-3.13,1.21-3.34.06-.38-2-1.57-1.45-2.75-.26-.5.66-1.42.26-2.11.93a14.11,14.11,0,0,0-1.16,2.64c-1,2.71-1.62,2.68-2.86,4.11,0-1.53,1.42-4.28,1.8-7,.42-3,1.89-3.65,2.89-4.16,2.39-1.21,7.66-4.09,8.77-5.56a26.35,26.35,0,0,0,4.22-7.32,14,14,0,0,0,.31-5.52c0-1.3,1.83-3.88,2-5.18.35-3.87-2.44-4.77-1.87-6.91.84-3.18.46-5.24-.49-4.93a16.81,16.81,0,0,0-6.19,4.48A16.54,16.54,0,0,0,45,22.71c-.13,1.25-.21,2.34.42,3.17.33.44.74,1.79-.81,1-1.36-.7-2.36.78-3.06,2.57a174.73,174.73,0,0,0-7,22c-1.25,5.13-4,12.31-1.43,17.46,1.17,2.36,4.55,3.87,6.4,6.13,2,2.42,3.38,5.33,5.79,6.48.5-1.83,1-3.67,1.54-5.51Z"/><path class="cls-2" d="M47.85,72.83l1-3.35h0C48.48,70.6,48.17,71.72,47.85,72.83Z"/><path class="cls-2" d="M47.43,74.29l-.51,1.78Z"/><path class="cls-4" d="M68.05,9.05c-3.42-1.42-6.31,1.82-7.1,4.46-.69,2.34-.19,5.09-1.52,7.14-2.66,4.12-2,9.12-2.66,14.46-.7,6.1-.89,12.32-1,13.67a43.32,43.32,0,0,1-1.46,7.59,7.45,7.45,0,0,1,1.07-.69c8.07-4.24,2.46-14.36,8-21.16,1.33-1.64,3.12-3,3.86-5.05s.62-4.79.79-7.06c.09-1.31-2.81-6.41-.29-9,3-3.07,5.25,2.14,8.89,1.44L77,14.8a30.67,30.67,0,0,0-4.13-3.27A31,31,0,0,0,68.05,9.05Z"/><path class="cls-5" d="M54.1,48.08c.06-.29.1-.57.15-.86C54.2,47.51,54.16,47.79,54.1,48.08Z"/><path class="cls-5" d="M54.58,45.31c.07-.39.12-.78.18-1.16C54.7,44.53,54.65,44.92,54.58,45.31Z"/><path class="cls-5" d="M53,53.59c0-.13.05-.26.08-.38C53,53.33,53,53.46,53,53.59Z"/><path class="cls-5" d="M55,42.53c.07-.53.12-1.05.19-1.57C55.12,41.48,55.07,42,55,42.53Z"/><path class="cls-5" d="M52.33,56.32s0-.1,0-.16S52.34,56.27,52.33,56.32Z"/><path class="cls-5" d="M53.56,50.84l.12-.59Z"/><path class="cls-5" d="M55.33,39.73c.1-.93.19-1.87.26-2.8C55.52,37.86,55.43,38.8,55.33,39.73Z"/><polygon class="cls-5" points="51.66 59.04 51.65 59.05 51.65 59.05 51.66 59.04"/><path class="cls-5" d="M46.45,17.85a16.81,16.81,0,0,1,6.19-4.48c1-.31,1.33,1.75.49,4.93-.57,2.14,2.22,3,1.87,6.91-.12,1.3-1.91,3.88-2,5.18a14,14,0,0,1-.31,5.52,26.35,26.35,0,0,1-4.22,7.32c-1.11,1.47-6.38,4.35-8.77,5.56-1,.51-2.47,1.15-2.89,4.16-.38,2.68-1.8,5.43-1.8,7,1.24-1.43,1.85-1.4,2.86-4.11a14.11,14.11,0,0,1,1.16-2.64c.69-.67,1.61-.27,2.11-.93,1.18-1.19,2.37-1.77,2.75.26.21,1.15,2.05,1.2,3.34-.06A38.11,38.11,0,0,0,54,43.61a86.26,86.26,0,0,1-1.6,8.63c-.81,4.44-1.67,9-2.64,13.5-.35,1.27-.69,2.55-1,3.85a1.14,1.14,0,0,0,.11-.11c1-3.46,2-6.94,2.85-10.43h0c.24-.9.46-1.81.68-2.72,0,0,0-.1,0-.16.2-.85.41-1.71.6-2.57,0-.13.05-.26.08-.38q.27-1.18.51-2.37l.12-.59c.15-.72.29-1.45.42-2.17.06-.29.1-.57.15-.86.12-.63.23-1.27.33-1.91.07-.39.12-.78.18-1.16L55,42.53c.07-.53.12-1.05.19-1.57s.1-.82.14-1.23c.1-.93.19-1.87.26-2.8.58-7.8.71-15.64,1.06-23.46"/><path class="cls-5" d="M51.65,59.05h0c-.89,3.49-1.86,7-2.84,10.43,1.81-1.63,3.16-6.19,4.62-10.43.32-.94.6-1.82.85-2.68A14.56,14.56,0,0,0,51.65,59.05Z"/><path class="cls-5" d="M78.36,14.6,77,14.8c2,1.8,3.75,3.52,6.1,4.51A63.42,63.42,0,0,0,78.36,14.6Z"/><path class="cls-5" d="M48.8,69.48h0c1-3.46,1.95-6.94,2.84-10.43C50.76,62.54,49.79,66,48.8,69.48Z"/><path class="cls-5" d="M56.65,13.47c-.35,7.82-.48,15.66-1.06,23.46-.07.93-.16,1.87-.26,2.8,0,.41-.09.82-.14,1.23s-.12,1-.19,1.57l-.24,1.62c-.06.38-.11.77-.18,1.16-.1.64-.21,1.28-.33,1.91,0,.29-.09.57-.15.86-.13.72-.27,1.45-.42,2.17l-.12.59q-.24,1.19-.51,2.37c0,.12,0,.25-.08.38-.19.86-.4,1.72-.6,2.57,0,.06,0,.11,0,.16-.22.91-.44,1.82-.68,2.72h0a14.56,14.56,0,0,1,2.63-2.68,43.32,43.32,0,0,0,1.46-7.59c.14-1.35.33-7.57,1-13.67.61-5.34,0-10.34,2.66-14.46,1.33-2,.83-4.8,1.52-7.14.79-2.64,3.68-5.88,7.1-4.46a31,31,0,0,1,4.79,2.48A30.67,30.67,0,0,1,77,14.8l1.39-.2"/><path class="cls-5" d="M51.65,59c.24-.9.46-1.81.68-2.72C52.11,57.23,51.89,58.14,51.65,59Z"/><path class="cls-5" d="M52.37,56.16c.2-.85.41-1.71.6-2.57C52.78,54.45,52.57,55.31,52.37,56.16Z"/><path class="cls-5" d="M55.19,41c.05-.41.1-.82.14-1.23C55.29,40.14,55.24,40.55,55.19,41Z"/><path class="cls-5" d="M54.25,47.22c.12-.63.23-1.27.33-1.91C54.48,46,54.37,46.59,54.25,47.22Z"/><path class="cls-5" d="M53.68,50.25c.15-.72.29-1.45.42-2.17C54,48.8,53.83,49.53,53.68,50.25Z"/><path class="cls-5" d="M54.76,44.15,55,42.53Z"/><path class="cls-5" d="M53.05,53.21q.27-1.18.51-2.37Q53.32,52,53.05,53.21Z"/><path class="cls-3" d="M92.46,68.34c.62-1.24,4.49-5.13,4.61-6.05.51-4.09,3.49-5.59,1.27-9.08-4.44-6.94-3.27-10.14-5.88-12.86C87,34.59,88.89,30.67,89.81,28c-1.46-2.15-3-4.23-4.63-6.24-.68-.83-1.38-1.63-2.09-2.43,0,.46-.11,1-.16,1.69-.32,3.91,1,8.13,2,11.91.2.72.41,1.49.58,2.27,1,2.63,1.58,5.2,3.58,7.39a7.32,7.32,0,0,1,2.31,5.94,16.88,16.88,0,0,0,.27,4.2A17.69,17.69,0,0,1,92.46,56a3.86,3.86,0,0,1-1.95,3.43c-3.58,2.53-8.24,3-11.94,5.38-3.46,2.23-6.21,5.33-9.34,8a31.57,31.57,0,0,0-4.06,11.11c.29,0,.58-.09.87-.16,8.32-1.87,15.14-.73,23-2.58a35.07,35.07,0,0,0,3-5.93C93.27,72.36,91.06,71.18,92.46,68.34Z"/><path class="cls-6" d="M96.15,76.08c4.23-.42,7.15-2.11,8.09-3.91,3.08-5.94-.73-15-2.93-21.24A99.43,99.43,0,0,0,89.81,28c-.92,2.66-2.84,6.58,2.65,12.34,2.61,2.72,1.44,5.92,5.88,12.86,2.22,3.49-.76,5-1.27,9.08-.12.92-4,4.81-4.61,6.05-1.4,2.84.81,4-.35,6.84a35.07,35.07,0,0,1-3,5.93l.46-.1C92.36,80.31,93.13,76.38,96.15,76.08Z"/><path class="cls-2" d="M67.56,69.59c1.29-4.69,5.89-11,9.28-13.22C81.11,53.59,82,50,82.22,46.27s2-6.38,3.77-9.48c-.18-.52-.36-1-.56-1.58-.17-.78-.38-1.55-.58-2.27-1.06-3.78-2.37-8-2-11.91,0-.67.11-1.23.16-1.69l0,0c-2.35-1-4.12-2.71-6.1-4.51l-.39.07c-3.64.7-5.88-4.51-8.89-1.44-2.52,2.57.38,7.67.29,9-.17,2.27,0,4.91-.79,7.06s-2.53,3.41-3.86,5.05c-5.52,6.8.09,16.92-8,21.16a7.45,7.45,0,0,0-1.07.69c-.25.86-.53,1.74-.85,2.68-1.46,4.24-2.81,8.8-4.62,10.43l-1,3.35-.42,1.46-.51,1.78c-.52,1.84-1,3.68-1.54,5.51a5.24,5.24,0,0,0,2.74.49c6.35-.48,11.25,2.68,17.05,1.78A38.6,38.6,0,0,1,67,77.05C66.54,75.92,66.37,73.88,67.56,69.59Z"/><path class="cls-4" d="M67.94,78.83a.76.76,0,0,0,0-.15C67.92,78.92,67.91,79,67.94,78.83Z"/><path class="cls-4" d="M78.57,64.77c3.7-2.38,8.36-2.85,11.94-5.38A3.86,3.86,0,0,0,92.46,56a17.69,17.69,0,0,0-.74-3.22,16.88,16.88,0,0,1-.27-4.2,7.32,7.32,0,0,0-2.31-5.94,15.71,15.71,0,0,1-3-5.81c-1.75,3.1-3.52,5.91-3.78,9.48s-1.1,7.32-5.37,10.1c-3.39,2.2-8,8.53-9.28,13.22-1.19,4.29-1,6.33-.61,7.46a25.86,25.86,0,0,1,2.15-4.31C72.36,70.1,75.11,67,78.57,64.77Z"/><path class="cls-2" d="M191.21,53c0-.18-.7-.75-.9-1a8,8,0,0,1-2,1.23h0c-4.52.59-9,1.37-13.48,2.38-2.76.63-7.49,1.56-10,2a18.83,18.83,0,0,1-3.9.58c-2.28.21-5.49-.69-6.64-.44,0,0-1.17,4.67-1.14,4.68A67.89,67.89,0,0,1,144,67c-2,.88-3.42.42-5.16.13l-1.19.77a.53.53,0,0,1,.14.67c-1.74,3-3.57,6-5,9.2.26,1.08.6,2.16.8,3.13.52,2.49,2.28,10.7,2.28,10.7s2.8-3.6,4.94-4.11a52.82,52.82,0,0,0,5.25-1.18,32.79,32.79,0,0,0,5.38-2.46c0-2.48,1.41-4.22,2.55-6,1.35-2.1.27-4.88.7-6.95.53-2.56-.81-6-.7-8.59,0-.63.56-2.77.58-3.47a.59.59,0,0,1,.57-.58c2.25,0,4.88-.34,5.43.53l.75,1.21c2.39,3.16,10.74,4.77,15.52,4.34,2.41-.22,3,1.52,4.56,1.64a14.57,14.57,0,0,1,3.73-.83c1.3-.06,4.33-2,5.7-2.31C190.83,61.78,191.26,55.56,191.21,53Z"/><path class="cls-3" d="M164.42,72.61c-1.42,1-2.34,2.9-3.15,3.84a5,5,0,0,1-2.66,1.71c-1.63.42-2.61,2.72-3.93,3.68-.92.65-2,1.36-3.23,2,0,.12,0,.24,0,.36,0,.6.44-.22,1.05-.43a12.67,12.67,0,0,0,5.44-3.24c1.87-2,17.86-12.78,21.31-13.35.68-.12,2.78-1.15,2.17-1.2h0a27.49,27.49,0,0,1-5,1.35C171.83,68,168.16,69.92,164.42,72.61Z"/><path class="cls-3" d="M161.33,60l-.75-1.21c-.55-.87-3.18-.52-5.43-.53a.59.59,0,0,0-.57.58c0,.7-.58,2.84-.58,3.47-.11,2.63,1.23,6,.7,8.59-.43,2.07.65,4.85-.7,6.95-1.14,1.77-2.55,3.51-2.55,6,1.19-.67,2.31-1.38,3.23-2,1.32-1,2.3-3.26,3.93-3.68a5,5,0,0,0,2.66-1.71c.81-.94,1.73-2.82,3.15-3.84,3.74-2.69,7.41-4.66,12-5.25a27.49,27.49,0,0,0,5-1.35c-1.55-.12-2.15-1.86-4.56-1.64C172.07,64.8,163.72,63.19,161.33,60Z"/><path class="cls-1" d="M107.46,57.35c8.1,5.6,16.48,8.9,26.59,8.17,1-.07,3.68.61,3.47,1.47A44.32,44.32,0,0,1,136,71.84c.62-1.08,1.25-2.16,1.87-3.25a.53.53,0,0,0-.14-.67l1.19-.77c1.74.29,3.2.75,5.16-.13a67.89,67.89,0,0,0,9.16-4.55s1.16-4.67,1.14-4.68c1.15-.25,4.36.65,6.64.44a18.83,18.83,0,0,0,3.9-.58c2.47-.42,7.2-1.35,10-2,4.45-1,9-1.79,13.48-2.38h0a8,8,0,0,0,2-1.23,4.27,4.27,0,0,0-1.38-1c-9-3.18-23.63-7-34-7.8-15.41,1.6-47.5,6.7-53.92,8l-.05.07a12.78,12.78,0,0,0,1.08,2.1C103.68,54.8,105.79,56.19,107.46,57.35Z"/><path class="cls-4" d="M133.6,80.92l.07.33c0-3.38,1.15-6.36,2.28-9.41-1.13,2-2.22,3.9-3.15,6C133.06,78.87,133.4,80,133.6,80.92Z"/><path class="cls-4" d="M111.91,76.48c1.94,3,2.53,4.55,5.86,6.18,4.74,2.32,11.47,2,17.28,5.08a16.25,16.25,0,0,1-1.38-6.49l-.07-.33c-.2-1-.54-2-.8-3.13.93-2.05,2-4,3.15-6A44.32,44.32,0,0,0,137.52,67c.21-.86-2.49-1.54-3.47-1.47-10.11.73-18.49-2.57-26.59-8.17-1.67-1.16-3.78-2.55-5.39-3.87a12.78,12.78,0,0,1-1.08-2.1A133.62,133.62,0,0,0,92.92,64.8C98.74,68.2,108.43,71.11,111.91,76.48Z"/><path class="cls-1" d="M190.84,62.87c-1.37.34-4.4,2.25-5.7,2.31a14.57,14.57,0,0,0-3.73.83c5.65,1.57,11.29,7.17,15.15,10.83l1-.17c4.25-.6,8.61-.92,12.69-2.39,2.21-.8,4.45-2.33,6.86-2.53C214.55,70.76,200.93,65.63,190.84,62.87Z"/><path class="cls-4" d="M176.4,67.36c-4.57.59-8.24,2.56-12,5.25-1.42,1-2.34,2.9-3.15,3.84a5,5,0,0,1-2.66,1.71c-1.63.42-2.61,2.72-3.93,3.68l-.68.46c1.15.59,2.14,1.69,3.32,2.06,1.74.56,3-.25,4.69.33,1.12.39,2.09,1.73,3.26,1.54,1.43-.22,3-.54,3.91.76a5.13,5.13,0,0,0,1.72,1.3c2-1.21,4-2.45,6-3.7a52.89,52.89,0,0,1,19.66-7.75c-3.86-3.66-9.5-9.26-15.15-10.83A27.49,27.49,0,0,1,176.4,67.36Z"/><path class="cls-1" d="M169.18,87c-.89-1.3-2.48-1-3.91-.76-1.17.19-2.14-1.15-3.26-1.54-1.7-.58-2.95.23-4.69-.33-1.18-.37-2.17-1.47-3.32-2.06a35,35,0,0,1-7.93,4,52.82,52.82,0,0,1-5.25,1.18c-2.14.51-4.94,4.11-4.94,4.11s-1.62-7.55-2.21-10.37a16.25,16.25,0,0,0,1.38,6.49c-5.81-3.07-12.54-2.76-17.28-5.08-3.33-1.63-3.92-3.17-5.86-6.18-3.48-5.37-13.17-8.28-19-11.68a155.53,155.53,0,0,0-9.35,21.86c2.88,2.23,7.62,4.35,9.89,1.07A26.62,26.62,0,0,0,95,84.38c1-2.09,2-5.65,5.6-8.54-2.18,4.32-2.44,7.33-3,12a37.82,37.82,0,0,0,3.6,6.85c3,1.31,6.21.9,9.42,1.46a6.11,6.11,0,0,1,3.73,2.89c.62,1,3.65.79,4.72,1.18,5.25,1.87,10.17,1.4,15.35,6.7,2.69.72,5.08,1.34,7.07,1.85.74-5.82,6.69-10,11.94-11.84a92.31,92.31,0,0,0,17.44-8.65A5.13,5.13,0,0,1,169.18,87Z"/><path class="cls-2" d="M119.1,100.23c-1.07-.39-4.1-.22-4.72-1.18a6.11,6.11,0,0,0-3.73-2.89c-3.21-.56-6.44-.15-9.42-1.46a37.82,37.82,0,0,1-3.6-6.85c.53-4.68.79-7.69,3-12C97,78.73,96,82.29,95,84.38a26.62,26.62,0,0,1-1.54,3.35c-2.27,3.28-7,1.16-9.89-1.07-.24.7-.48,1.4-.71,2.11,13.71,7.48,37,14.26,51.59,18.16C129.27,101.63,124.35,102.1,119.1,100.23Z"/><path class="cls-4" d="M174.51,54c-.56,0-13.84-4.7-19.71-5.78-2.86-.53-5.72-.94-7.07,1.93a2,2,0,0,0,.14,2.34A17.39,17.39,0,0,0,153.12,57c.46.28,1.17,1.21,5,1.24a45.89,45.89,0,0,0,15.43-2.89C174.42,55,175.3,54.11,174.51,54Z"/><path class="cls-2" d="M167,90.58a81.14,81.14,0,0,1-13.54,6.36c-5.25,1.83-11.2,6-11.94,11.84l.22.06c2.42-.18,15-2.51,24.55-4.39A38,38,0,0,1,167,90.58Z"/><path class="cls-3" d="M182.85,101c-1-4.72-2.12-9.42-3-14.15-.31-1.59-2.57-1.52-3.17-.28a1.83,1.83,0,0,0-1-1.18c-2.91,1.81-5.77,3.58-8.66,5.23a38,38,0,0,0-.71,13.87c3.51-.69,6.63-1.32,8.71-1.76C177.62,102.13,180.24,101.54,182.85,101Z"/><path class="cls-3" d="M210.59,74.29a30.22,30.22,0,0,0-4.83,4.83c-1.94,6.23-2.49,11.43-3.85,17.29q9.43-2.39,18.81-5c-.23-8.74-3.16-19.46-3.16-19.46l-.44-.16c-2.2.18-4.26,1.47-6.28,2.3A1.14,1.14,0,0,1,210.59,74.29Z"/><path class="cls-2" d="M195.41,86.35A56.16,56.16,0,0,0,195.8,77a53.51,53.51,0,0,0-18.9,7.62l-1.24.76a1.83,1.83,0,0,1,1,1.18c.6-1.24,2.86-1.31,3.17.28.93,4.73,2,9.43,3,14.15,2-.45,4-.93,6-1.39.72-2,2.75-5.1,3.15-6.31C192.16,92.74,194.36,89.56,195.41,86.35Z"/><path class="cls-1" d="M205.76,79.12a30.22,30.22,0,0,1,4.83-4.83,1.14,1.14,0,0,0,.25-.24l-.58.23c-4.08,1.47-8.44,1.79-12.69,2.39-.6.08-1.18.2-1.77.3a56.16,56.16,0,0,1-.39,9.38c-1,3.21-3.25,6.39-3.42,6.91-.4,1.21-2.43,4.31-3.15,6.31,4.37-1,8.73-2.06,13.07-3.16C203.27,90.55,203.82,85.35,205.76,79.12Z"/><path class="cls-5" d="M208.47,73.83c-4.5,1.64-11,2.2-15.77,3.32a60.85,60.85,0,0,0-15,5.6c-1.74,1.16-5.34,2.77-7.49,2.66-.39,0-2.11-.27-2.63.64-1.87,3.3-4.88,6.94-8.33,8.3-.75.19-5.21,2.12-7.77,1.86a28.93,28.93,0,0,0-4.45-.48,7.12,7.12,0,0,1-3.31-1.55c-4.13-3.78-6.74-3.77-7.73-3.78-.69-2.19,0-9.32-1.11-11.67,1-3.87,3.22-6.72,6.16-9.64,1.08-1.07,2.63-.41,3.83-.86.56-.2,2-1.31,2.55-1.43,6.31-1.34,7.38-3.59,7.69-4.9a6.23,6.23,0,0,0,.06-3.34,12.12,12.12,0,0,0,3.4.31,18.34,18.34,0,0,0,2.53-.08c1.24-.09,1.45.13,4.49-1,1-.37,3.66-.27,4.86-.43,2.08-.29,3.74-1.17,5.43-1.56,1.2-.27,2.83.09,4-.07,1.67-.22,2.78-.64,4.44-.9s6.06,0,6.9-1.79a1,1,0,0,0-.29-1.08,13.67,13.67,0,0,0-4.64-1.76,1.76,1.76,0,0,1,.33,2c-.56,1.09-2.31,1.25-3.34,1.41-2.42.38-6.14-.16-8.15.19-1.69.29-4.19,1.65-6.59,1.9-1.4.15-2.44.46-4.11.62-.38,0-1.73-.67-2.12-.68s-.9.46-1.24.44c-.76,0-1.69-.32-2.44-.4a7.34,7.34,0,0,0,2.55,1.12,1.21,1.21,0,0,1,.78.58c0,.11-.62.3-.87.31-1.35,0-3.28-.45-4.51-.11a3.35,3.35,0,0,1-3.16-1.12c-.18-.25-2.49-1-2.28-.74s1.44,1.35,1.63,1.66c-.14,2.31,1,3.18-.13,4.3a17.87,17.87,0,0,1-2.69,2c-2.13,1.34-5.33,1.75-7.77,2.15a10.81,10.81,0,0,1-4.2-.75,20.15,20.15,0,0,0-7-.91c-1.7.17-4.56-1.4-7.67-1.57-1.71-.1-4.45.15-6-.65-3-1.59-6.61-3.24-9.87-4.6,1.66,1.91,5,3.63,7.15,4.92A32.81,32.81,0,0,0,132.5,67a5.14,5.14,0,0,1,3.32,1.4c-.67,2.11-1.71,6.42-3.37,9.55.05.82.15,1.8.3,2.84-.23,1.59-1.06,4.36-3.4,3.82-1.45-.34-2.81-.94-4.27-1.22-3.54-.69-6.33-1.19-9.11-3.65-3.31-2.92-6.79-7.93-11.24-9.12A84.71,84.71,0,0,1,112.38,78c1.87,2.29,4,4.54,6.81,5.7A27.57,27.57,0,0,0,124.66,85a48,48,0,0,1,7.86,2.33,7.77,7.77,0,0,1,2.29,3.79c-2.73.6-5.5,2.62-8.15,3,1.84,1.35,6.15.29,8.59-1.56a3.87,3.87,0,0,1,5.13,1.73,8.68,8.68,0,0,1,1.75,4.16c.23,3.38-1.7,5.37-1.22,6.81.28.87.68,3.06.68,3.06s2.1-3.61,3-5c2.5-3.66,6.86-4.51,11-6,2.9-.47,7.46-2.53,9.8-2.85,1.48-.21,1.55-1.32,2.27-2.08,1.93-2,4-4.68,5.7-4.66,2.42,0,4.46,0,6.8-1.12.49-.24,7.14-5.36,9.83-6.55,5.24-2.32,13.77-3.09,19.66-4.63,3.94-1,5.88-3.15,7.91-3.54C216,71.31,213.15,72.13,208.47,73.83Z"/><path class="cls-4" d="M13.49,70.05a1.73,1.73,0,0,0,1.88-1.77c0-3.83-1.8-7.48.12-11,1.3-2.4,3.88-3.67,3.87-7A7.48,7.48,0,0,0,19,48.89c-2.88.27-5.51,2-8.2,3.47-1,.55-6.72,4.09-8.63,8.48A21.85,21.85,0,0,0,.6,70C2.48,72.9,10.88,70.11,13.49,70.05Z"/><path class="cls-4" d="M29.16,56.92c-1.73,3.92.82,5.18-1.25,7.85-.77,1.32-1.22,3-.63,3.78,1.2,1.51,6.29,2.71,8.65,1.76,2.56-1,3.81-3.89,5.53-6,1.4-1.77,2.42-3.5,4.32-4.81a24.93,24.93,0,0,1,4-1.55h0c1.67-1,4.15-2.27,5-4.18-1.9-1.47-11.34-2.87-16.88-2.07-3.06.44-6.09,1.57-9.14.76A5.59,5.59,0,0,1,29.16,56.92Z"/><path class="cls-1" d="M76.67,88c-.08-6.9-.66-11.16-3.2-15.32,1.94,4.71.21,8.36-3.67,11.13-1.28.92-1.81,2.78-3.45,3.08-2.41.45-4.64,1.09-6.37,4-.56,1-2.2.47-3.15,1.42a22.27,22.27,0,0,1-5.47,3.73c-6.49,3.16-24.06,9.71-31.28,4.6-.36-.26-3.46-3.8-2.92-3.83,6-.3,11.48-3.35,15.82-7.16,1.39-1.22,3.45-3.55,5.18-4.2C44.76,83,41.4,82,42.29,79.4c.94-2.78,3.94-3.12,6.51-4.11,2-.77,6.88-1.51,7.4-3.72.44-1.89,1.52-4.26.71-6-.49-1-2.84-1.14-3.93-1.45a22.81,22.81,0,0,0-3.46-1,.9.9,0,0,1-.21-1.61,9.67,9.67,0,0,1,6.24-1.91c-1.87-.62-3.79-1.16-5.73-1.68a24.93,24.93,0,0,0-4,1.55c-1.9,1.31-2.92,3-4.32,4.81-1.72,2.15-2.75,5.33-5.31,6.38-2.35.95-7.67-.59-8.87-2.1-.59-.76-.14-2.46.63-3.78,2.07-2.67-.48-3.93,1.25-7.85a5.59,5.59,0,0,0-.42-4.51l-.43-.12c-2.08-.68-3.79-2.14-5.84-2.92A7.59,7.59,0,0,0,19,48.89a7.48,7.48,0,0,1,.35,1.34c0,3.37-2.57,4.64-3.87,7-1.92,3.53-.12,7.18-.12,11a1.73,1.73,0,0,1-1.88,1.77c-2.61.06-11,2.85-12.89,0a28.81,28.81,0,0,0,1.5,8.6c-.14,1.83-.28,3.66-.39,5.49-.3,4.76-.74,9.67.86,14.26,2.64,7.63,10,11.84,16.7,15.37a1.59,1.59,0,0,0,2.19-.67,2.21,2.21,0,0,0,1.09-.28c2.12-1.16,5.11,1.74,8.18,4.42,10.7-.66,22.36-4.17,32.07-8.76,3.83-1.81,13.79-9.51,13.79-10.46C76.59,98,76.68,88.89,76.67,88Z"/><path class="cls-4" d="M49.31,61.5a.9.9,0,0,0,.21,1.61,22.81,22.81,0,0,1,3.46,1c1.09.31,3.44.4,3.93,1.45.81,1.76-.27,4.13-.71,6-.52,2.21-5.42,3-7.4,3.72-2.57,1-5.57,1.33-6.51,4.11C41.4,82,44.76,83,38.16,85.53c-1.73.65-3.79,3-5.18,4.2-4.34,3.81-9.78,6.86-15.82,7.16-.54,0,2.56,3.57,2.92,3.83,7.22,5.11,24.79-1.44,31.28-4.6a22.27,22.27,0,0,0,5.47-3.73c1-1,2.59-.46,3.15-1.42,1.73-3,4-3.6,6.37-4,1.64-.3,2.17-2.16,3.45-3.08,3.88-2.77,5.61-6.42,3.67-11.13a28.64,28.64,0,0,0-3.74-4.78c-4-4.27-8.94-6.62-14.18-8.34A9.67,9.67,0,0,0,49.31,61.5Z"/><path class="cls-2" d="M29.46,108.39c-2.28-5.1-7.53-8.74-11.6-12.3C9.75,89,2.7,76.33,2.76,69.52c0-2.34-.84-5.34-.58-8.68C.29,64.92.12,70.66,0,72.67a142.94,142.94,0,0,0,.61,15c.34,5,.25,10.67,3.47,14.83a45.05,45.05,0,0,0,12.51,11.12c4.35,2.48,14.1,3.56,14.1,3.56S30.45,110.6,29.46,108.39Z"/><path class="cls-3" d="M58.62,85.82a55.11,55.11,0,0,0-5.76,3.55c-.92.84-3.39,1.44-4.47,2.07a51.64,51.64,0,0,1-9.79,4.5c-5.72,1.89-14.67,4.87-20,.82,2.21,4.65,9,12.75,9.89,19.48a.08.08,0,0,0,0,.05c-2-.8-5.33-2.56-7-4.7-1.82-2.3-5.82-5.92-7.93-6.8-.64-.27-2.83-.87-3.49-1.64-2.62-3.06-3.23-2.38-4.27-3.09a12.65,12.65,0,0,1-5-8.65c.68,7.09,2.44,10.39,3.65,11.9,5.82,7.27,10.39,10.37,16.26,12.06a78.82,78.82,0,0,0,10,2.18,73.46,73.46,0,0,0,13.13-2c3.55-1,19.2-6.48,22.33-8.09,5.11-2.65,14.19-6.59,14.74-7.49a40.4,40.4,0,0,0,0-9.35,32.75,32.75,0,0,0-1-5.21c-4.27.85-10.93,2.28-14.18,4.8A63.21,63.21,0,0,1,58.62,85.82Z"/><path class="cls-6" d="M65.48,80.91a33.24,33.24,0,0,1-6.86,4.91,63.21,63.21,0,0,0,7.1,4.42c3.25-2.52,9.91-3.95,14.18-4.8-1.47-5.35-4.41-12.16-7.16-14.79C71.7,75.31,68.34,77.85,65.48,80.91Z"/><path class="cls-6" d="M57.42,86.29a24.23,24.23,0,0,0-5.06-1,44.07,44.07,0,0,1,1,4.61c.79,5.56,2.44,14.33,2.58,14.78.22.69,3-.33,3.27-1.74S57.92,90.16,57.42,86.29Z"/><path class="cls-1" d="M109.89,101.1c-7.18-6.86-18-17.71-28.87-16.52A47.74,47.74,0,0,0,64.4,89.84c-5.94,3.22-12.59,9.08-16.67,13.27-.58.59,1.57,1.47,2.1,1.59A116.71,116.71,0,0,0,109.4,103,1.11,1.11,0,0,0,109.89,101.1Z"/><path class="cls-2" d="M94.88,106.5c-.91-1-2.54-.49-3.61-.4-2.9.25-5.8.43-8.71.48-6.27.11-12.86.47-19.06-.46-5-.76-13.37-2.34-15.77-3-.26,3.11-.71,5.89-.74,9,0,1.19.6,4.83.6,4.83s3.69,1.77,5,2.27l2,.74c1.19-1.29,1.79-1.66,4.06-1.43,4,.41,6.7,1.79,8.08-2.53.86-2.7.57-6.18.12-8.91a.29.29,0,0,1,.42-.32c2.53,1.26,3.39.08,5.28,1.75a9.26,9.26,0,0,1,2.82,5,32.93,32.93,0,0,0,1.6,5c.09.17.2.32.3.48,3.27,1.53,7.12-1,10,2l.66,0c.1,0,.12.17,0,.18l-.53.09a.51.51,0,0,1,.06.2l2-.4c.42-.08,5.14-4.33,5.14-4.74,0-3.09.77-3.43.72-6.52C95.4,108.81,95.6,107.24,94.88,106.5Z"/><path class="cls-3" d="M88,121.09c.1,0,.08-.18,0-.18l-.66,0c-2.88-3-6.73-.5-10-2-.1-.16-.21-.31-.3-.48a32.93,32.93,0,0,1-1.6-5c-.6-2,0-5.11-.66-6.17-1.33-2.13-4.91.7-7.44-.56a.29.29,0,0,0-.42.32c.45,2.73.74,6.21-.12,8.91-1.38,4.32-4.12,2.94-8.08,2.53-2.27-.23-2.87.14-4.06,1.43a58.61,58.61,0,0,0,6.78,2c10.36,2.3,16.42,1.36,26.11-.57a.51.51,0,0,0-.06-.2Z"/><path class="cls-3" d="M57.06,60.11c-.15-.31-1.46-5.51-2.3-6.39-1.17,1.23-5.38,1.91-6.46,2.75-4,3.09-5.4,5.63-9.11,9-1.4,1.28-2.22,4.65-4.8,4.1s-6.76-1.89-8.51.7c3.55,1,5.29,1.93,8.81,2.34,1.46.17,4.66-.57,5.57-1.68,2.19-2.68,3.76-4.67,6.84-6.55S55,63.7,57.06,60.11Z"/><path class="cls-3" d="M111,101.5a9.6,9.6,0,0,0-2.72-.3c-4.4.86-7.55,1.73-12,2.57l-.44.08c-1-.61-2-1.19-3-1.76a.71.71,0,0,0-.94.25,5.7,5.7,0,0,0-.59,5.18c-.09.24-.17.49-.27.77l-.09.27a.91.91,0,0,0-.35.89c-1.45,3.54,1.33,9,1.37,8.44,2.58.53,4.4,2.94,6.74,2.38A89.68,89.68,0,0,0,110.21,116,53.28,53.28,0,0,0,111,101.5Z"/><path class="cls-4" d="M107.37,100.52c-1-2.7-2.66-4.29-4.18-4.4-3.63.43-8.54,2.11-12.24,1.48-2.2-.37-4.83-1.27-7.09-.94a4.11,4.11,0,0,0-2.42,1.13c-.33.29-.26.9-.48,1.2a7.85,7.85,0,0,1-4.52,2.93,63.59,63.59,0,0,1-19.76,2.87c-.27,0,19.79,3.42,25.92,2.86,3.7-.33,7.3-1.22,8.68-4.75a18,18,0,0,0,15.57-1.12A1.13,1.13,0,0,0,107.37,100.52Z"/><path class="cls-5" d="M111,101.5a104.28,104.28,0,0,0-14.71-12c-.55,1.77,5.75,5.37,9.24,10,.52.69.22,2-2.33,2.35-.86.13-5,1.34-7.8-.35-1.92-1.15-3-1-5.22-1.61-.12,1.89-.37,4.61-2,5.65a5.16,5.16,0,0,1-4,.53A112.18,112.18,0,0,1,72.48,106c-6.73-.49-14.52-1.21-21.21-2.1a127,127,0,0,0,25.4,4.59c2.84.16,10.88-1.08,10.92,1.67,0,1.82-1.06,6.21,1.1,9.28,2.31,0,.74-6.24,1.46-9.14.16-.37.34-.74.53-1.11a.61.61,0,0,0,.07-.35l.49-.35a.59.59,0,0,0,.08-1.09l0,0a.64.64,0,0,0,.66-.59,16,16,0,0,0,0-3.39v0a8,8,0,0,0,1.51.94.62.62,0,0,0,.29.07c.4.28.27.58.7.84S109.4,103,111,101.5Z"/><path class="cls-5" d="M67.45,65.79c2,1.58,4.17,5.62,2.45,8.91-2.22,4.22-8.56,8.19-9.48,8.89-2.56-.56-3.8-1.08-3.91-.29,0,.16.74,1,.86,1.19s-.45.66-.93.42c-1.33-.64-3.23-1.7-4.29-2.34-.2-.12-2-1.24-2.33,0-.57,2.5.12,3.85-1.63,5.84a25.63,25.63,0,0,1-6.78,4.91c-2.41,1.35-11,5.45-16.33,4.8a19,19,0,0,1-7.1-3c-3.18-2.28-7.77-8-10.12-11.79A36.12,36.12,0,0,1,3.12,71.77c1,.64,9.58.87,12.12-2.79-3.22,1.1-7.56,2-10.12-.27a2.61,2.61,0,0,1-.81-2.15c.19-2.34,2.21-4.65,3.24-6.18,1.37-2,2.64-4.54,4.28-6.57,2.15-1.14,5.59-3,6.89-4.88-10,1-14.07,8.5-16.82,11.91C0,67,1.53,74.85,4.39,81a42.9,42.9,0,0,0,8.29,11.49c1.13,1.17,8.6,10.24,10.25,11.89.71.93,3.74,6.51,4,6.66,0-1.88-.69-6.66,1.26-10.07a198.21,198.21,0,0,0,19.93-8.14,22.48,22.48,0,0,0,5.22-3.57c.34-1.17-.56-3.42-.57-3.55,1.4.64,4.28,1.63,4.77,1.41S73.2,78,73.55,73.29C73.75,70.63,69.67,66.6,67.45,65.79Z"/><path class="cls-5" d="M54.76,53.72c-4.61-4.11-14.29-3-19.86-1.51,3.5.33,9.51-.53,13.82.64,1.74.47,2,1.7-.1,2.72-1.14.56-2.26,2.16-3.21,3-1.5,1.33-5.18,5.5-5.29,5.6-1.65,1.56-2.34,2.89-4.48,3.63a20.31,20.31,0,0,1-2.37.37c-2,.18-4.07,0-5.53.8,2.13.15,5.64,2.26,9.07,1.19,1.62-.5,3.26-2,4.66-4.23a47.19,47.19,0,0,1,4.07-5.49,38.91,38.91,0,0,1,6.19-4,21.82,21.82,0,0,0,2.72-1.22C54.82,55,55.08,54,54.76,53.72Z"/><path class="cls-6" d="M94.63,103.94c-.17-.61-3.49-2.06-3.45-1.33s-.24,3-.36,4.76c-1.18,1.58-1.88,4.78-2,5.74a19.13,19.13,0,0,0,.29,8,23.74,23.74,0,0,0,4.55-1.38c1.34.39,3,1.1,4.49.88C97.62,116.63,95.72,108,94.63,103.94Z"/><path class="cls-3" d="M87.73,88.62c.86-1.36,3.6-1.44,4-3.12A30.57,30.57,0,0,0,93,78.38c-2.39,1.44-5.55,2.9-7.35,3.81-2.45,1.24-5,1.7-5.43,4.68-.25,1.78-.25,3.57-.33,5.36,0,1.11.47,3.93,1.42,4.82a1.3,1.3,0,0,0,.23.18l1.1,0a7.39,7.39,0,0,0,2.6-.73C85,93.47,86.7,90.24,87.73,88.62Z"/><path class="cls-6" d="M95,89.65c2.17-2.91,2.11-9,1.52-12.51a6.76,6.76,0,0,0-.4-1.45c-.3.79-1.55,1.73-3.12,2.69a30.57,30.57,0,0,1-1.3,7.12c-.37,1.68-3.11,1.76-4,3.12-1,1.62-2.74,4.85-2.49,7.92C88.49,95.14,93.25,92,95,89.65Z"/><path class="cls-2" d="M93,72.6c-2.59-1.2-6-1.41-8.93-1.35-1.32,0-2.64,0-3.91.14a87,87,0,0,0-14.33,2.94c-1.77,1.78-2,7.52-1.74,9.57a19.9,19.9,0,0,0,.42,2.36,4,4,0,0,0,.76-1.6c-.23-1.62,0-2.34.59-1.62,1,1.3.54,2.25,2.52,2.81.93.26.67,2.19.82,2.45,1,1.89,1.35.55,2.05,1.25,1.87,1.9,3.24,1.06,5.52,1.83.78.26,1.79,1.72,3.12,1.76a6.14,6.14,0,0,1,0-.91c.08-1.79.08-3.58.33-5.36.41-3,3-3.44,5.43-4.68,3-1.51,9.71-4.52,10.47-6.5A5.75,5.75,0,0,0,93,72.6Z"/><path class="cls-3" d="M71.29,89.55c-.7-.7-1,.64-2.05-1.25-.15-.26.11-2.19-.82-2.45-2-.56-1.56-1.51-2.52-2.81-.54-.72-.82,0-.59,1.62a4,4,0,0,1-.76,1.6c2.45,9.95,12.25,10.81,17,11a1.3,1.3,0,0,1-.23-.18c-.75-.7-1.23-2.59-1.38-3.91-1.33,0-2.34-1.5-3.12-1.76C74.53,90.61,73.16,91.45,71.29,89.55Z"/><path class="cls-1" d="M95.5,74.33c-1.67-1.8-4.83-2.9-7.12-3.16-7.11-.83-19.26,1.87-22.51,3.16A16.91,16.91,0,0,0,68.62,79a1.73,1.73,0,0,1,.1-.77.75.75,0,0,1,.65-.48c1.25-1,3.23-1.16,4.66-1.57,2.5-.74,5.07-1.22,7.57-1.93.34-.1.58.22.53.54a1.51,1.51,0,0,1-1,1.33c-.38.2-1.25.79-.91,2.78.31,1.84-.44,4.13-.46,5.43,3.41-.19,8.62-2.53,12.85-6.2.32-.28,1.93-.78,2.25-1C96.12,76.31,96.68,75.59,95.5,74.33Z"/><path class="cls-4" d="M80.23,78.9c-.34-2,.53-2.58.91-2.78a1.51,1.51,0,0,0,1-1.33c.05-.32-.19-.64-.53-.54-2.5.71-5.07,1.19-7.57,1.93-1.43.41-3.41.61-4.66,1.57a.75.75,0,0,0-.65.48,1.73,1.73,0,0,0-.1.77,14,14,0,0,0,10.65,5.35l.5,0C79.79,83,80.54,80.74,80.23,78.9Z"/><path class="cls-5" d="M91.08,78.28a36,36,0,0,1-7.6,4.46C81,84,78.93,84.2,77.29,83.46c-2.55-1.14-4.48-1.18-5.32-2a48,48,0,0,1-2.92-4.33,12.16,12.16,0,0,0-3.18-2.75A14.22,14.22,0,0,0,71,81.9c.62.52,1.67,1.58,2.4,1.61a28.16,28.16,0,0,1,3.73.74A3,3,0,0,1,79,85.9a8.72,8.72,0,0,1,.32,4c-.09,2.68-.35,4.94,1.53,6.43-.7-1.6-.37-6-.06-9.15.12-1.11.64-2.59,1.31-2.57,3.35.08,4.59-1.73,6.21-3,2.41-1.94,2.91-.57,4.4-1.92.48-.43.84-1.41,1.3-1.61,1.51-.66,2.15-1.11,2.2-2.49C95.07,77,93,76.62,91.08,78.28Z"/><path class="cls-3" d="M158.78,116c-.22-3.88.22-8.86-1.71-12.41a11.82,11.82,0,0,0-4.45,4c-.63,1.13-.11,2.74-.79,3.74.55,2.19,1,4.64,1.85,6.89.65,1.84,2.16,4.54,3,7.48C159.88,123.59,159,119.31,158.78,116Z"/><path class="cls-2" d="M156.69,125.71c-.85-2.94-2.36-5.64-3-7.48-.8-2.25-1.3-4.7-1.85-6.89a1.69,1.69,0,0,1-.55.51,15.35,15.35,0,0,1-4.13,1.24c-.14,2.31-.75,4.59,0,6.94a38.59,38.59,0,0,0,1.7,4.41,26.41,26.41,0,0,1,1.31,2.85,13,13,0,0,0,6.29-1.39Z"/><path class="cls-3" d="M147.11,120c-.71-2.35-.1-4.63,0-6.94l-.63.13a17.83,17.83,0,0,1-4.79.4c.45,2.85,1,5.69,1.58,8.52.29,1.5.63,3,.87,4.51,0,.12,0,.23,0,.35,1.74.13,3.82.33,5.89.29a26.41,26.41,0,0,0-1.31-2.85A38.59,38.59,0,0,1,147.11,120Z"/><path class="cls-2" d="M144.23,127c0-.12,0-.23,0-.35-.24-1.51-.58-3-.87-4.51-.54-2.83-1.13-5.67-1.58-8.52-3.28-.15-5.83-1.06-7.88-1-2.95.13-5.9.15-8.85.22-1.92,0-5.54-.54-6.77.63a9.24,9.24,0,0,0-1.46,2.28,7.81,7.81,0,0,0,.59,1.15,6.62,6.62,0,0,0,.85-.05c1.49-.22,2-1.35,3.63-1.12,2.55.37,4.11,3.13,6.17,4.42a28.43,28.43,0,0,0,9.4,3.27c.83.18,1.88.2,2.37,1a5.46,5.46,0,0,1,.56,2.21c1.33.14,2.64.25,3.88.34Z"/><path class="cls-3" d="M137.41,123.45a28.43,28.43,0,0,1-9.4-3.27c-2.06-1.29-3.62-4.05-6.17-4.42-1.61-.23-2.14.9-3.63,1.12a6.62,6.62,0,0,1-.85.05,9.24,9.24,0,0,0,1.1,1.45c5.23,5.63,14.12,7.47,21.88,8.28a5.46,5.46,0,0,0-.56-2.21C139.29,123.65,138.24,123.63,137.41,123.45Z"/><path class="cls-4" d="M116.77,115.78c.17-.36.36-.69.53-1a6.7,6.7,0,0,1-.91-.21A8.36,8.36,0,0,0,116.77,115.78Z"/><path class="cls-4" d="M157,103.42c-1.86-3.25-5.34-3.67-8.77-3.7a71.49,71.49,0,0,0-18.75,2c-.73.72-1.32,1.57-2,2.36-.86,1-2.3,1.65-2.92,2.79-2.25,4.1,5,4.65,7.24,5.74a.07.07,0,0,1,0,.08l2-.07c3-.13,6.94,1.83,12.67.57a18.68,18.68,0,0,0,4.76-1.37c1.48-.87.59-2.9,1.34-4.25a11.82,11.82,0,0,1,4.45-4S157,103.47,157,103.42Z"/><path class="cls-1" d="M118.23,113.5a7.13,7.13,0,0,0-.93,1.29l.48,0a28.64,28.64,0,0,0,6.11-.65l7.38-1.12a.25.25,0,0,0,.21-.3l.25,0s.07,0,.08-.08c-2.27.07-4.54.1-6.81.15C123.08,112.91,119.46,112.33,118.23,113.5Z"/><path class="cls-1" d="M124.53,106.9c.62-1.14,2.06-1.81,2.92-2.79.7-.79,1.29-1.64,2-2.36a39.65,39.65,0,0,0-7.8,2.93c-1.48.75-4.38,2.72-4.94,4.47a10.23,10.23,0,0,0-.34,5.43,6.7,6.7,0,0,0,.91.21,7.13,7.13,0,0,1,.93-1.29c1.23-1.17,4.85-.59,6.77-.63,2.27-.05,4.54-.08,6.81-.15a.07.07,0,0,0,0-.08C129.52,111.55,122.28,111,124.53,106.9Z"/><path class="cls-5" d="M157.07,103.58c-1.31-3.09-4.38-3.47-5.9-3.68a28.73,28.73,0,0,0-10.13,0,22.86,22.86,0,0,0,6.93.44c1.68-.26,2.28.17,3.28.16a6.15,6.15,0,0,1,2.83.72c.31.24,1.22,1.16.54,1.6a5.86,5.86,0,0,0-2.8,3,8.69,8.69,0,0,1-3,3.94,11.94,11.94,0,0,1-9.35,2.18,36.41,36.41,0,0,0-5.65.16c-.53,0-1.05,0-1.59,0s-1.19.08-1.79.13l-1.29.06c-1.06,0-4-.34-6.63-.12-2.37.2-3.21.27-4.05-.23-2.39-1.39-.08-5,1.75-6.43a.23.23,0,0,0-.16,0,6.67,6.67,0,0,0-3.65,3.79,9.17,9.17,0,0,0,.49,6.64,4.94,4.94,0,0,1,1.81-2.16,2.49,2.49,0,0,1,1.12-.51c.38,0,2.08.18,2.65.21a93.76,93.76,0,0,0,9.62-.38c1.2-.06,2.4-.2,3.6-.17a39.7,39.7,0,0,1,4.26.65c.33.53,1,2.07,1.2,2.48,1.37,2.92,1.22,5.94,2.7,8.85a37.29,37.29,0,0,0-1-7c-.32-1.15-.37-2.65-.71-4.14,2.12.18,4.89.32,7.33-.93.62-.45,1.18-.51,1.47.43a18.64,18.64,0,0,0,2.48,5.4,24.47,24.47,0,0,1,2.16,4c-.58-2.28-1.63-4.62-2.1-7-.41-2-1-4.22-1.22-6.25-.19-1.87,1.23-3.15,3-4.21C156.22,104.77,157.47,104.84,157.07,103.58Z"/><path class="cls-2" d="M198.9,111.78a19.61,19.61,0,0,0,2.21,1.38c-.48-3.1-.66-7.15-.88-9.71,0-.37-.24-3.65-.19-4.94,0-.83,1.36-2.56.21-3.23-.3-.17-.66-.31-1-.48-.14.86-.38,1.72-.44,2.46A76.65,76.65,0,0,0,198.9,111.78Z"/><path class="cls-3" d="M197.77,92.85c0-.28,0-1,.08-1.25-3,3.77-2.22,11-1.59,15.24a7,7,0,0,0,1.52,4,7.76,7.76,0,0,0,1.12,1,76.65,76.65,0,0,1-.1-14.52c.06-.74.3-1.6.44-2.46A2.06,2.06,0,0,1,197.77,92.85Z"/><path class="cls-1" d="M226.88,96.36a10,10,0,0,0-4.75-5c-4.36,6.29-13.76,4.52-20.33,4.17a12.31,12.31,0,0,1-3.75-.5,4.64,4.64,0,0,1,.63,1.54,6.45,6.45,0,0,0,.2,1.58,3.26,3.26,0,0,0,2.17,1.87,35,35,0,0,1,9,4.88c2.6,2,5,4.29,7.69,6.24a29.06,29.06,0,0,0,4.43,2.77c.88.43,2.68,1.51,3.71,1.32s2.63-2.2,3.37-3a36.5,36.5,0,0,0,4.25-5.21C231.44,104,228.53,100,226.88,96.36Z"/><path class="cls-4" d="M220.86,90.82a20,20,0,0,0-5.15-1c-.24,1-1.58,2-2.62,2.44-2.75,1.25-7.92,2-10.66.27-1.4-.88-1.17-1.64-.41-2.26-.77.12-1.54.26-2.29.43-1.73.4-2.84,1.21-2.29,3a7.3,7.3,0,0,0,.61,1.26,12.31,12.31,0,0,0,3.75.5c6.57.35,16,2.12,20.33-4.17A13.08,13.08,0,0,0,220.86,90.82Z"/><path class="cls-1" d="M202.43,92.56c2.74,1.71,7.91,1,10.66-.27,1-.47,2.38-1.44,2.62-2.44-1.39-.11-2.79-.12-4.17-.12a63.52,63.52,0,0,0-9.52.57C201.26,90.92,201,91.68,202.43,92.56Z"/><path class="cls-3" d="M232.62,105.8c-2.85,3.07-5.47,4.59-8,8,0,0,.34,1.35.33,1.37s-1.44,1.45.67,1.35,7.08-1.37,7.9-2.14C235.76,112.31,235.16,108.73,232.62,105.8Z"/><path class="cls-2" d="M225,115.14c-2.33-1.32-3.11-3.44-4.82-5a47.74,47.74,0,0,0-6.21-5.43,32,32,0,0,0-6.67-3c.48,3.93.49,11.21.6,14.77A23.4,23.4,0,0,0,218.2,118c2.16-.33,5.29-1.31,7.47-1.49C226,116.13,225,115.67,225,115.14Z"/><path class="cls-3" d="M205.94,101.12c-1.14-.43-2.29-.83-3.45-1.18-.6-.18-2.11-.61-2.41-1.22a.46.46,0,0,1,0-.21c0,1.29.16,4.57.19,4.94.22,2.56.4,6.61.88,9.71.88.48,1.76.92,2.51,1.33a31.24,31.24,0,0,0,4.28,1.9c-.11-3.56-.12-10.84-.6-14.77Z"/><path class="cls-2" d="M227.54,105.8c-1.94-1.84-5.15-3-7.81-2.13.61,1.46,2.59,5.86,3.54,8.9.08.25,2.16-.64,2.4-.83,1-.77,3.27-1.94,3.49-3.29C229.32,107.43,228.19,106.41,227.54,105.8Z"/><path class="cls-5" d="M226.29,110.62c-.23.19-1.9,2.15-2.82-.31-.45-1.22-1.14-3.52-1.43-4.51a7,7,0,0,0-3.18-3.36c.52.85,3.15,5.85,2.26,6.51-.68.51-2.52-.86-3-1.19a59.19,59.19,0,0,0-5.42-4.25c-2.3-1.56-4.54-3.3-7.67-3.67-4.42-.52-4.22-3-3.62-3.61s2.43-.2,2.66-.55c-3.19-.74-4.76-1.47-5.58-2.2-.5-.45-.33-1.45,1.07-2.71-2.8.59-2.51,2.16-2.27,2.77.15.4,1.2,1.4,1.2,2.48a10.59,10.59,0,0,0,.74,4.76c.15.44,1.18,6.84,1.54,9.7.91-1.1.3-6,.12-8.65a42.57,42.57,0,0,0,4.24,1c1,.09,1.53-.53,3.05.15,1.23.55,2.78.78,3.89,1.51.82.57,4.65,4.42,5.81,5.53,1.41,1.36.6,2.57,3.16,3.34a20.7,20.7,0,0,1,4.43,2.55c.12-1.16-.18-2.12,1.42-3.3,3.89-2.85,4.47-4.89,5.72-6.79C229.17,106.93,228.13,109.12,226.29,110.62Z"/><path class="cls-5" d="M224.5,93c-1.62-2.22-6-3.26-7-2.92.82.24,4.92,1.59,3.67,2.48a13.16,13.16,0,0,1-7.36,2.62,57,57,0,0,1-7.07.71c1.3.92,6.12.31,9,.42,1,0,4.39.1,6.05-.83C222.82,94.87,225.08,93.78,224.5,93Z"/><path class="cls-7" d="M85.45,87.43c-5.83-1.13-12.93-2.65-18.62.11A4.37,4.37,0,0,0,64,90.17c-.79,2.27.6,4.55,2.13,5.76,4.65,3.67,11.41,4.72,16.87,4.46a23,23,0,0,0,8.18-1.71c1.75-.76,4.74-2.35,5.39-4.68C97.9,89.09,87.51,87.83,85.45,87.43Z"/><path class="cls-4" d="M190.56,106.86a27.63,27.63,0,0,0-3.76-1.15,7.35,7.35,0,0,0-2.51-.21c-.87.29-2,.79-1.62,1.78a16.65,16.65,0,0,0,1.52,3.06s3.71-.69,4.44-.84a29,29,0,0,0,4.17-1.5l-.13-.21C192.32,107.33,191.13,107.08,190.56,106.86Z"/><path class="cls-3" d="M184,109.14a5.33,5.33,0,0,0,.73,1.09A12.39,12.39,0,0,1,184,109.14Z"/><path class="cls-2" d="M183.73,112.23a12.55,12.55,0,0,1,1.53-2.09c-.3-.36-1.08-.62-1.26-1a9.85,9.85,0,0,1-.91-1.87c-.34-1,.33-1.48,1.2-1.77a4,4,0,0,0-2.3,1,9.41,9.41,0,0,0-2.79,3.35,9.65,9.65,0,0,0,2.91,1.82C182.57,111.86,183.23,112.3,183.73,112.23Z"/><path class="cls-6" d="M193.86,113.46a20.26,20.26,0,0,0-.55-3.84l-.1,0a35.29,35.29,0,0,0-3.25,1.49,16.35,16.35,0,0,0-3.06,1.49,4.59,4.59,0,0,0-1.33,3.43h.17C188.38,115.79,191.34,114.26,193.86,113.46Z"/><path class="cls-3" d="M183.73,112.23c-.5.07-1.16-.37-1.62-.56a9.65,9.65,0,0,1-2.91-1.82,28.79,28.79,0,0,0-1.57,3.56,22.23,22.23,0,0,0,5.14,2.17c.21-.62.36-1.57.51-2A3.94,3.94,0,0,1,183.73,112.23Z"/><path class="cls-3" d="M185.6,110.07l-.87.16a11.63,11.63,0,0,0-1,2c.55-.71,1-1.6,1.21-1.78A2.79,2.79,0,0,1,185.6,110.07Z"/><path class="cls-3" d="M192.8,108a29,29,0,0,1-4.17,1.5l-.42.08a7.2,7.2,0,0,1-1.11,1.93,4.94,4.94,0,0,1-1.4.62c-.23.12-.74.3-1,.43a9.12,9.12,0,0,0-.95,3l-.06.22a7.28,7.28,0,0,0,1.85.22,4.59,4.59,0,0,1,1.33-3.43,16.35,16.35,0,0,1,3.06-1.49,35.29,35.29,0,0,1,3.25-1.49l.1,0A8.69,8.69,0,0,0,192.8,108Z"/><path class="cls-6" d="M188.27,109.44c.2-.39-1.62.16-2.67.63l2.61-.49Z"/><path class="cls-6" d="M184.73,112.56c.23-.13.74-.31,1-.43a4.94,4.94,0,0,0,1.4-.62,7.2,7.2,0,0,0,1.11-1.93l-2.61.49a2.79,2.79,0,0,0-.66.38c-.17.18-.66,1.07-1.21,1.78a3.94,3.94,0,0,0-.45,1.3c-.15.48-.3,1.43-.51,2,.32.09.64.18.95.25l.06-.22A9.12,9.12,0,0,1,184.73,112.56Z"/><path class="cls-5" d="M192.55,108.11a35.49,35.49,0,0,0-5.24,1.25,3.28,3.28,0,0,1-3.57-.92,2.33,2.33,0,0,1-.34-2.48c-.76.1-.49,1.66-.32,2.08a4,4,0,0,0,.51,1.1,2.09,2.09,0,0,1,.41,1c0,.93-.41,1.33-.27,2.08,1-1.16,1.34-1.78,2.81-2.2,1-.29,3.76-1,3.92-1A7.44,7.44,0,0,0,192.55,108.11Z"/><path class="cls-8" d="M190.48,110.07c-.69.3-.43.47-1.06.88-.24.16-1.12.57-1.44.8s-1.29.31-1.45.58a6.66,6.66,0,0,0-.53,1.56c.4-.36.71-1,1.29-1.41a4,4,0,0,0,1.88-.81,21.33,21.33,0,0,1,3.61-1.8A5.22,5.22,0,0,0,190.48,110.07Z"/><path class="cls-1" d="M54.85,121.89c-.84.14-1.61,1.6-1.85,2.52a14.36,14.36,0,0,0-.44,2.37c-.05,1.21,1.77,1.16,2.73,1.24a2.41,2.41,0,0,0,.62-.08c-.15-1.09-1.13-1.76-1.21-2.61A7.69,7.69,0,0,1,54.85,121.89Z"/><path class="cls-3" d="M57.59,126c-.33-2-1.91-4.16-2.61-4.16l-.13,0a7.69,7.69,0,0,0-.15,3.44c.08.85,1.06,1.52,1.21,2.61C56.69,127.74,57.77,127.18,57.59,126Z"/><path class="cls-5" d="M56.18,122.71a2,2,0,0,0-.73-.82c-.25-.15-.5-.33-.87,0a3.7,3.7,0,0,0-1.18,1.54c.21,0,.41-.57.92-1a5.28,5.28,0,0,0,.49,3.37c0-.52-.17-1.37-.14-1.92a5.14,5.14,0,0,1,.3-1.43c.17-.35.37,0,.58.12a1.88,1.88,0,0,1,.53.37c.13.18.4.84.66.84C56.71,123.66,56.3,122.89,56.18,122.71Z"/><path class="cls-4" d="M170.22,117.34c.49.36,1.93.45,2.45.75.85.5.8,1.5,1.62,2.74,1.3,2,2.37,2.06,5.42,1.31a35.74,35.74,0,0,0-3.6-3.58c-1.08-1.12-2.38-3-4.08-3a3.78,3.78,0,0,0-1.7.11,3.07,3.07,0,0,0-.91.66s0,0,0,.07A1.78,1.78,0,0,0,170.22,117.34Z"/><path class="cls-2" d="M177.46,123.34a3.4,3.4,0,0,1,2.25,0c.5.29.67,1.91.73,2.4a1.66,1.66,0,0,1,0,.32l.43-.11a6.3,6.3,0,0,0-1.19-3.84c-3.05.75-4.12.67-5.42-1.31-.82-1.24-.77-2.24-1.62-2.74-.52-.3-2-.39-2.45-.75a1.78,1.78,0,0,1-.79-.9s0,0,0-.07a7.55,7.55,0,0,0-.84,1,17.4,17.4,0,0,0-1,1.72,9.16,9.16,0,0,1,2.62,1.39c1,.88,2.8,1.67,3,3a16.5,16.5,0,0,1,.2,3.6c.29,0,.59,0,.89,0,0-.69.72-1.4,1.41-2.48A3.23,3.23,0,0,1,177.46,123.34Z"/><path class="cls-6" d="M180.44,125.77c-.06-.49-.23-2.11-.73-2.4a3.4,3.4,0,0,0-2.25,0,3.23,3.23,0,0,0-1.83,1.32c-.69,1.08-1.38,1.79-1.41,2.48a26.5,26.5,0,0,0,6.25-1A1.66,1.66,0,0,0,180.44,125.77Z"/><path class="cls-3" d="M171.55,122.58c.95.18,1.21.21,1.58,1v0c-.17-1.38-1.93-2.17-3-3a9.16,9.16,0,0,0-2.62-1.39,10.61,10.61,0,0,0-1.35,4.19c.51.49,1.18,1.16,1.93,1.79a7.12,7.12,0,0,1,.8-2.72C169.59,121.82,170.87,122.45,171.55,122.58Z"/><path class="cls-6" d="M173.13,123.6c-.37-.81-.63-.84-1.58-1-.68-.13-2-.76-2.63-.2a7.12,7.12,0,0,0-.8,2.72,7.71,7.71,0,0,0,3.34,1.9,14.37,14.37,0,0,0,1.77.16h.1c0-.28.08-.52.08-.78A19.2,19.2,0,0,0,173.13,123.6Z"/><path class="cls-5" d="M178.82,122.35c-.51,0-1.46,0-2-.08a2,2,0,0,1-1.62-1,9.7,9.7,0,0,1-1.39-2c-.16-.31-.21-1.12-.54-1.26-.11-.05-.82-.34-1.08-.47s-1-.14-1.44-.44a1.32,1.32,0,0,1-.46-1c0-.24.82-.55.76-.55-.76-.07-1.12.19-1.74.89-.23.25.88,1,.91,1,.6.38,2,.55,2.26,1s.08,1.35-.11,1.89a6.75,6.75,0,0,0-.25,2.66c.24.71.59.44.72.55.31.27.1,1.48.5,1.93.06-.51-.13-2.24.42-2.9.16-.19.53-.1,1.61,0A5.51,5.51,0,0,0,178.82,122.35Z"/><path class="cls-2" d="M37.45,123.53c.14,0,.07-.77.22-.83a9.56,9.56,0,0,1,1.44-.41,16.7,16.7,0,0,1,3.24,0,24.51,24.51,0,0,0,4.5-.63c-.71.07-.91-.31-.82-.45-.64-1.51-.93-2.31-2.61-2.34a15.46,15.46,0,0,0-6.21,1.58c-.43.19-1.14.42-1.77.76-.1.36-.26.78-.3,1C35,123,36.78,123.59,37.45,123.53Z"/><path class="cls-3" d="M34.12,122.8c0,1.15,1.63,1.74,2.46,2.07a17,17,0,0,0,6,.71c1.16,0,2.86.06,3.87-.62a2.29,2.29,0,0,0,.57-3.08,25.64,25.64,0,0,1-4.64.37,16.7,16.7,0,0,0-3.24,0,9.56,9.56,0,0,0-1.44.41c-.15.06-.08.82-.22.83-.67.06-2.43-.54-2.31-1.32,0-.26.2-.68.3-1C34.72,121.55,34.1,122.06,34.12,122.8Z"/><path class="cls-1" d="M45.61,120.22c-1.35.34-2.75,1.29-4.14,1.37-.71,0-2-.16-2.58.22a2.48,2.48,0,0,1-1.22.89c.87.69,2.83,0,3.89,0a18.6,18.6,0,0,0,2.38.08,10.61,10.61,0,0,0,3.05-.9c-.13-.39-.73-.5-1-.71A5.21,5.21,0,0,0,45.61,120.22Z"/><path class="cls-5" d="M45.22,119.57c-1.13-1.54-4.14-.7-5-.43a17.73,17.73,0,0,0-4,1.67c-.53.36.63,0,.78-.07,1.24-.31,3-1.09,4.29-1.35C42,119.24,44.75,119.85,45.22,119.57Z"/><path class="cls-9" d="M134.78,71.78c-.87.26-2.38-.39-3.2-.81a9.92,9.92,0,0,0-5.32-.93c-1.28.23-3.49-1.6-5.85-1.73-1.3-.08-3.35.29-4.53-.66a83.94,83.94,0,0,0-7.62-5.34c1.32,2.28,3.93,4.28,5.58,5.8,2.09,1.92,4.53.58,6.77,2.58s10.17,4.65,12.5,6.12"/><path class="cls-10" d="M28.58,59.49a4.15,4.15,0,0,0-2-.16,5.92,5.92,0,0,0-1.46.21c-.72.15-.86-.07-2.52,1.27-.54.43-2.11.46-2.79.68-1.19.4-2.07,1.4-3,1.88-.68.35-1.65.05-2.34.27-.95.31-1.55.8-2.5,1.15S8.43,65.05,8.1,67c-.06.32-2.07,1.76-1.89,2,.75.74.87,1.12,5,.78a3,3,0,0,1-.36-2c.23-1.17,1.24-1.42,1.82-1.64,1.37-.51,3.58-.12,4.72-.58,1-.39,2.29-1.92,3.66-2.3.8-.23,1.38-.59,2.34-.84.22-.06,1.06.61,1.29.61s.48-.52.68-.52c.44,0,1,.26,1.45.3a3.84,3.84,0,0,0-1.57-1.05,1,1,0,0,1-.51-.56c0-.12.33-.35.48-.37.78-.08,1.94.31,2.63-.11"/><path class="cls-10" d="M75,109.84c1.88,1.29,2,2.89,3.78,3.11,2.13.27,6.09-.79,8.51.7a32.92,32.92,0,0,0-5-.37c-1.32.11-3,1.08-4.54.32-1-.48-1.76-2.27-2.75-2.95"/><path class="cls-10" d="M23.56,93.27c1.17-.28,3-1.13,3.92-1.34.6-.14.59-.48.86-.75.72-.71,1.49-1.62,2.18-1.7a8.6,8.6,0,0,0,2.69-1.31c.2-.09,2.1-2.88,3.16-3.38A15,15,0,0,0,40.2,82c.51-1.69,1.29-4.08,1.46-5.1-.69-4.17-.6-.44-.57-.42s-.19,5.29-3.91,6.54c-2.87,1-4.52,4.33-5.07,4.68a8.28,8.28,0,0,1-3,1.18c-.16,0-.88,0-1.06.32a7.21,7.21,0,0,1-3.13,2.94,13.05,13.05,0,0,1-3.13.94,15.94,15.94,0,0,0-1.84.06,3.52,3.52,0,0,1-1.42-.32c-1.83-1-2.64-1.19-3.05-1.15A33.13,33.13,0,0,0,13.45,89c.29-1.24,2-2.64,3.11-3.67.41-.38,1.07-.25,1.55-.45.22-.09.76-.49,1-.56,2.55-.71,2.91-1.45,3-1.87a1.41,1.41,0,0,0-.1-1,7.41,7.41,0,0,0,1.41-.07,8.41,8.41,0,0,0,1-.15,5.11,5.11,0,0,0,1.81-.52,20.11,20.11,0,0,1,2-.36c.85-.19,1.5-.54,2.18-.74.48-.14,1.16-.1,1.65-.21.68-.15,1.12-.33,1.79-.49s2.15-.48,1.73-1a14.13,14.13,0,0,0-3.71-2.63C25.32,72.54,34.48,77,33.8,77c.21.15.72.59.59.83a1.47,1.47,0,0,1-1,.68c-1,.24-2.53.25-3.34.45s-1.66.7-2.64.89c-.57.12-1,.26-1.67.39-.15,0-.73-.12-.89-.11s-.36.18-.5.19c-.31,0-.7,0-1,0a3.62,3.62,0,0,0,1.08.22.52.52,0,0,1,.35.14s-.25.12-.35.14a11.07,11.07,0,0,0-1.86.18,1.68,1.68,0,0,1-1.34-.2,3.14,3.14,0,0,0-1-.12c.11.08.64.35.73.43,0,.72.52.94.1,1.33a7.42,7.42,0,0,1-1,.75,11.79,11.79,0,0,1-3.12,1,6,6,0,0,1-1.75,0,11.08,11.08,0,0,0-2.91,0c-.69.13-1.18-.41-2.47-.31-.7,0,.32-2.11.19-2.48-.89-2.41-3-4.73-4.36-5,.75.51,1.86,2.44,2.59,3,1,.79.31,5,1.59,5.12s1.9.65,3.19.47a4.14,4.14,0,0,1,1.91.13,9.32,9.32,0,0,1-2.66,3.42,4.1,4.1,0,0,0,1.2,1.59c0,.5-.14.47-1.12.42-.61,0-3.19-.1-3.8-.12,0,0-3.38,3.48-4.61,2.86C2.46,92.62,2,90,.77,89.6c0,0,1.48,2.68,2.17,3.69,1.92,2.82,3.82-1,5-1.09.34,0,.81-.82,1.58-.79a39.21,39.21,0,0,1,4.17-.13c.55.31,1.06.47,1.3.94-1.1.31-2.39,1.17-3.46,1.43.8.33,2.53-.21,3.47-.89a1.84,1.84,0,0,1,2.17.29,6.78,6.78,0,0,0,2.16,1.24"/><path class="cls-8" d="M143.2,49.91a52.05,52.05,0,0,0-8-3.64c-.17.73,3.17,1.68,5.17,3.26.3.23.23.76-1,1.09-.42.11-2.39.88-3.9.43a10.65,10.65,0,0,0-2.69-.25c0,.74.08,1.83-.68,2.36a3.2,3.2,0,0,1-1.95.49c-1.94.34-3.88.64-5.85.81-3.38.3-7.3.58-10.68.72a79.56,79.56,0,0,0,12.91,0c1.42-.14,5.32-1.21,5.53-.14.77,4,5.92,7.48,7.17,8.53,1.16-.15-2.1-1.19-4.83-6,.07-.16-1.54-1.24-.86-3.18a.2.2,0,0,0,0-.15l.23-.17c.24-.11.23-.38,0-.43h0a.3.3,0,0,0,.3-.28,5.14,5.14,0,0,0-.2-1.33h0a4.58,4.58,0,0,0,.81.25.26.26,0,0,0,.15,0c.22.08.17.21.39.28S142.47,50.6,143.2,49.91Z"/><path class="cls-10" d="M95.84,111.22a5.7,5.7,0,0,0,1.31.11c.33,0,.61,0,1,0a4.44,4.44,0,0,0,1.74-.35,15.31,15.31,0,0,1,1.87-.14c.81-.1,1.45-.4,2.1-.53.47-.1,1.1,0,1.56,0,.65-.07,1.08-.21,1.72-.3s2.34,0,2.67-.61c0-.1,1.46-.52,1.35-.58-.46-.26-.51-.38-3.26-.38a.54.54,0,0,1,.13.67c-.22.37-.89.42-1.29.48-.94.13-2.38-.06-3.15.06s-1.62.56-2.55.65c-.54.05-.94.15-1.59.21-.15,0-.67-.23-.82-.23s-.35.15-.48.14c-.29,0-.65-.1-.94-.13a3.07,3.07,0,0,0,1,.38.44.44,0,0,1,.3.2s-.23.1-.33.1a9.36,9.36,0,0,0-1.75,0"/><path class="cls-10" d="M97.76,111.15c-.79-.5-1.31.07-1.74-.8-.52-1-1-3.57-1.94-4.28a21.84,21.84,0,0,1,1.14,2.55c.23.75.25,2,.81,2.55.35.35,1.07.06,1.48.32"/><path class="cls-8" d="M92.26,80.27c-.35,2.33-.77,4.4-2.9,5.52-1.19.64-2.64,3-3.54,3.63-2.08,1.37-1.51,4-.66,5.48.34-3.16,1-3.82,2.24-4.83s1.43-2.78,2.81-3.66C92.6,84.88,92.69,82.42,92.26,80.27Z"/><path class="cls-8" d="M49.73,54.73c-2.78,1-5.3,1.88-7.36.92-1.16-.54-4.44-.28-5.44-.62-2.32-.79-5.1,1.1-6.49,2.57,3.73-1.51,4.73-1.39,6.34-1s3.69-.49,5.2.05C44.6,57.56,47.43,56.26,49.73,54.73Z"/><path class="cls-8" d="M69.79,39h0"/><path class="cls-8" d="M68.58,38.2c-1.73-1.12-6.39-.53-7.26-1.41,2-4.91,3.39-3,5.63-7.43.34,2.51-3.25,4.62-4.53,6.56-.25.38.72.53,1.9.6a4.92,4.92,0,0,0,2.45,0c.77-.2,2.53,1.08,3,1.13a2.19,2.19,0,0,1,1.62.43,1.67,1.67,0,0,0,1.84.1c1.77-.18,3.68.2,5.26-.85,2.83-1.9,3.41.37,7.5-.82-2.44,3.28-3.86.27-9.33,2.88-1,.5-5.32-1-5.07.86.17,1.23,1.62,5,1,7.25A17.38,17.38,0,0,0,71,41.36"/><path class="cls-8" d="M118.73,11.48c-5.54-4.37-9.78-2.21-10.57-1.09,6-1,8.58.92,8.44,2.95-.4,5.74-5.55,6.81-7.27,8-2.91,2-4.74,4.38-6.79,5.61,2.08.27,6.79-5.61,9.68-5.47,1.18.06,4.64-2.8,5.63-5.06C118.49,14.94,119.86,12.36,118.73,11.48Z"/><path class="cls-8" d="M200.53,93.94c1.6-3.21,5.73-4,6.89-4-4.79,1.79-6,3.49-4.85,4,3.33,1.55,8-.16,9.83-.41,3.12-.42,5.68-.37,7.77-.72-1.32.81-6.63,1.22-9.73,1.76-1.08.19-4.77.8-6.67.48C202.55,94.87,200.21,94.59,200.53,93.94Z"/><path class="cls-8" d="M199.18,68.34a69.45,69.45,0,0,0-10.81-4.07c.81,1.32,4.59,2,8.14,4.21.53.32-.12.64-.66,1.56-.18.31.55,1.88-1.2,1.51-1.18-.25-.81,2-2.59,1.8-12.54-.82-1.15,1.4,2,.9"/><path class="cls-8" d="M208,69.33c-1.71.31-1.26.87-2.9,1.48-.64.24-2.82.71-3.67,1.07-.91.16-3,0-3.55.52a17.78,17.78,0,0,0-2.2,3.44c1.1-.63,2.21-2,3.76-2.62A8.59,8.59,0,0,0,204,72.4c3.14-1.37,5.78-1.42,9.06-2.17C211.4,69.67,209.76,69,208,69.33Z"/><path class="cls-8" d="M155.28,43.63c-2,.27-1.53,1-3.46,1.64-.74.24-3.26.69-4.26,1.07-1,.15-3.41-.23-4.06.42a22.82,22.82,0,0,0-2.91,4.06c1.31-.7,2.74-2.32,4.56-3a9.45,9.45,0,0,0,5.31-.72c3.72-1.49,6.69-1.39,10.49-2.11C159.09,44.25,157.33,43.35,155.28,43.63Z"/><path class="cls-8" d="M55.14,21.59c-1.17-.07-1,.41-2.23.56-.46.05-2,0-2.62.12s-1.94-.55-2.41-.24a14.23,14.23,0,0,0-2.26,2.06,18.07,18.07,0,0,1,3.06-1.21,5.45,5.45,0,0,0,3.17.21c2.36-.43,4.07,0,6.37,0A6.06,6.06,0,0,0,55.14,21.59Z"/><path class="cls-8" d="M167.63,120c.32.33.55.28,1,.62.18.13.63.56.9.73s.29.56.62.69c.05,0,1.47.5,1.91.58a16.17,16.17,0,0,1-1.67-.83c-.1-.32-.4-.58-.88-.9a12.75,12.75,0,0,1-2-1.79C167.44,119.41,167.29,119.68,167.63,120Z"/><path class="cls-8" d="M48.43,111c1.52-.71,2.25-.26,4.26-.82.78-.22,2.85-1.1,4-1.38.81-.37,1.67-1.51,3-1.53.21,0,5.68.07,7.29.32-1.74.28-4.8.26-6.75.78-.71.94-2.06,1.47-4.09,2-4.21,1-5.8,2.27-9,3.58C47.05,112.8,46.85,111.72,48.43,111Z"/><path class="cls-8" d="M108.36,110.51c-.84.54-1.28.29-2.41.76-.44.19-1.59.87-2.22,1.11-.45.29-.45.29-1.63,1.16a30.64,30.64,0,0,1-4.19.19,35.93,35.93,0,0,0,3.83-.88,3.28,3.28,0,0,1,2.27-1.48c3.32-.7,4.48-1.57,5-2.81C109.07,109.25,109.24,109.94,108.36,110.51Z"/><path class="cls-8" d="M187.58,91.83a45.39,45.39,0,0,0-4.88-6.34c-.19.93,1.91,2.83,3.06,5.29A.9.9,0,0,1,185,92c-.29.07-1.64.71-2.59-.19-.63-.6-1-.5-1.73-.84,0,1-.12,2.43-.66,3a1.21,1.21,0,0,1-1.33.28,23.12,23.12,0,0,1-3.9-.07c-2.23-.26-4.81-.63-7-1.1a28.8,28.8,0,0,0,8.43,2.42c.94.08,3.61-.57,3.62.88,0,1-.35,3.27.36,4.89.77,0,.25-3.29.49-4.82a5.58,5.58,0,0,1,.18-.58.65.65,0,0,0,0-.19l.16-.18a.4.4,0,0,0,0-.58h0c.11,0,.21-.1.22-.31a13.36,13.36,0,0,0,0-1.79h0a2.63,2.63,0,0,0,.5.5l.09,0c.14.14.09.3.24.44S187,92.6,187.58,91.83Z"/><path class="cls-8" d="M42.18,29.82c1-.53,1.48-.21,2.8-.63.5-.16,1.87-.82,2.61-1,.53-.28,1.11-1.11,1.94-1.14.14,0,3.71,0,4.76.17-1.14.22-3.14.24-4.42.63a4.58,4.58,0,0,1-2.69,1.44c-2.76.75-3.82,1.69-5.93,2.67C41.26,31.15,41.14,30.38,42.18,29.82Z"/><path class="cls-8" d="M188.49,56.56c-2,.2-3,.83-5.66,1.35-1,.2-3.83.53-5.32.85-1.09.11-2.29-.27-4,.28-.28.1-7.48,2.58-9.58,3.46,2.31-.58,6.33-2,8.93-2.48,1,.31,2.81.07,5.51-.52,5.61-1.21,7.79-1.07,12.1-1.62C190.42,57.17,190.62,56.36,188.49,56.56Z"/><path class="cls-8" d="M129.46,25.52c.49-1.21-.06-1.18.21-2.49.1-.51.67-2.09.78-2.79.26-.64,1.25-1.89,1.09-2.46a14.64,14.64,0,0,0-1.36-3c0,1,.43,2.3.2,3.55a6.19,6.19,0,0,0-1.33,3.28c-.37,2.59-1.41,4.27-2.24,6.68A7.17,7.17,0,0,0,129.46,25.52Z"/><path class="cls-8" d="M138.5,119.6c-1.94,0-2.48-.86-4.86-1.27-.91-.16-3.53-.27-4.83-.55-1,0-2.52.75-3.86.14-.22-.1-5.87-2.93-7.41-4,1.95.58,5.12,2.13,7.41,2.56,1.23-.62,2.9-.51,5.26,0,4.89,1.07,7.2.52,11.22.75C140.87,118.37,140.53,119.61,138.5,119.6Z"/><path class="cls-8" d="M157.66,114.3c-1.18.61-1.8.32-3.38.84-.61.2-2.22,1-3.11,1.23-.62.33-.62.33-2.27,1.3a53.41,53.41,0,0,1-5.89.16c1.38-.31,3.84-.46,5.38-1a4.54,4.54,0,0,1,3.16-1.66c4.66-.75,6.29-1.72,7-3.14C158.64,112.88,158.88,113.66,157.66,114.3Z"/><path class="cls-8" d="M54.92,123.7c.14.48.31.34.55.81.09.17.3.79.43,1s.08.86.27,1a5.39,5.39,0,0,0,1.14.58,7.36,7.36,0,0,1-.93-1,2.4,2.4,0,0,0-.39-1.31,12.71,12.71,0,0,1-.94-2.56A2.78,2.78,0,0,0,54.92,123.7Z"/><path class="cls-8" d="M45.57,120.14c-1.5.59-2.85,1.06-3.92.64-.61-.24-2.35,0-2.87-.17-1.21-.33-2.73.67-3.51,1.43,2-.84,2.54-.8,3.39-.67s2-.33,2.76-.1C42.78,121.67,44.32,121,45.57,120.14Z"/><path class="cls-8" d="M225.64,116.28c-2.76,0-5.22-.12-6.85-2.21-.91-1.18-3.92-2.34-4.74-3.21-1.89-2-4.84-1-6.45.19,3.72-.15,4.58.45,5.94,1.62s3.44,1.07,4.67,2.4C220.34,117.39,223.2,117.09,225.64,116.28Z"/><path class="cls-8" d="M192.24,74.67c-1.86,0-2.74-.51-5.21-.74-.94-.09-3.5-.11-4.87-.27-1,0-2.07.54-3.62.16-.26-.06-6.93-1.81-8.88-2.49,2.13.35,5.85,1.31,8.24,1.55.9-.44,2.54-.39,5-.1,5.15.62,7.13.21,11.07.29C194,73.82,194.19,74.64,192.24,74.67Z"/><path class="cls-8" d="M124.63,94.67c-5.84-1.75-11-3.59-13.1-9.3-1.19-3.21-6.82-7.73-8-10.19-2.74-5.68-9.66-5.26-13.8-3.71,8,2,9.43,3.94,11.56,7.41,2.28,3.7,6.61,4.6,8.36,8.36C112.68,93.78,119,94.93,124.63,94.67Z"/><path class="cls-9" d="M134.59,71.72a5.41,5.41,0,0,0,3.11.42,2.55,2.55,0,0,1,2.44.21c.65.36,2.29-.95,3.62-.77.73.1,1.53-.58,2.61-.71,1.68-.22,3.7-1.91,5.44-3-1.24,1.82-4.33,6-6,5.74-2.63-.46-6.78,1.58-10.2,3.19a1.92,1.92,0,0,0-2.52,0"/><path class="cls-8" d="M58.68,60.16c-.36-2.24-.41-4.41,3.92-8.63C65,49.15,67.17,45.09,69,43.22c4.09-4.31,1.48-5.29-1.23-5,.8,2.82-.4,4.36-2.75,7.08-2.51,2.9-1.9,4.3-4.63,7.14C55.58,57.39,56.61,59.3,58.68,60.16Z"/></g></g></svg>