<?xml version="1.0" encoding="UTF-8"?>
<svg xmlns="http://www.w3.org/2000/svg" xmlns:xlink="http://www.w3.org/1999/xlink" viewBox="0 0 198.65 155.45">
  <defs>
    <style>
      .cls-1 {
        fill: url(#_Áĺçűě_ííűé_ăđŕäčĺíň_533-4);
      }

      .cls-2 {
        fill: #ff7b00;
      }

      .cls-3, .cls-4, .cls-5, .cls-6 {
        fill: #fff;
      }

      .cls-4, .cls-7, .cls-8 {
        opacity: .5;
      }

      .cls-4, .cls-5, .cls-6 {
        mix-blend-mode: soft-light;
      }

      .cls-9 {
        opacity: .1;
      }

      .cls-9, .cls-7, .cls-8, .cls-10, .cls-11, .cls-12 {
        mix-blend-mode: multiply;
      }

      .cls-9, .cls-11, .cls-12 {
        fill: #f42774;
      }

      .cls-13 {
        fill: url(#linear-gradient-4);
      }

      .cls-13, .cls-14, .cls-15, .cls-16 {
        mix-blend-mode: screen;
      }

      .cls-14 {
        fill: url(#linear-gradient-2);
      }

      .cls-17 {
        mix-blend-mode: overlay;
      }

      .cls-17, .cls-18 {
        fill: #fff603;
      }

      .cls-19 {
        fill: url(#_Áĺçűě_ííűé_ăđŕäčĺíň_533);
      }

      .cls-20 {
        isolation: isolate;
      }

      .cls-21 {
        fill: url(#_Áĺçűě_ííűé_ăđŕäčĺíň_533-5);
      }

      .cls-7, .cls-10 {
        fill: #de376d;
      }

      .cls-15 {
        fill: url(#linear-gradient-3);
      }

      .cls-8 {
        fill: #cf4a76;
      }

      .cls-22 {
        fill: url(#_Áĺçűě_ííűé_ăđŕäčĺíň_533-2);
      }

      .cls-16 {
        fill: url(#linear-gradient-5);
      }

      .cls-23 {
        fill: url(#_Áĺçűě_ííűé_ăđŕäčĺíň_533-6);
      }

      .cls-10 {
        opacity: .7;
      }

      .cls-11 {
        opacity: .15;
      }

      .cls-12, .cls-6 {
        opacity: .2;
      }

      .cls-24 {
        fill: url(#_Áĺçűě_ííűé_ăđŕäčĺíň_533-3);
      }

      .cls-25 {
        fill: url(#linear-gradient);
      }
    </style>
    <linearGradient id="linear-gradient" x1="68.14" y1="33.34" x2="145.72" y2="172.31" gradientUnits="userSpaceOnUse">
      <stop offset="0" stop-color="#ffcf00"/>
      <stop offset="1" stop-color="#ff9600"/>
    </linearGradient>
    <linearGradient id="linear-gradient-2" x1="-33.88" y1="49.77" x2="124.09" y2="173.63" gradientUnits="userSpaceOnUse">
      <stop offset="0" stop-color="#fff601"/>
      <stop offset=".1" stop-color="#ece400"/>
      <stop offset=".31" stop-color="#bdb600"/>
      <stop offset=".61" stop-color="#706c00"/>
      <stop offset=".97" stop-color="#070700"/>
      <stop offset="1" stop-color="#000"/>
    </linearGradient>
    <linearGradient id="linear-gradient-3" x1="28" y1="-1.93" x2="123.79" y2="141.75" xlink:href="#linear-gradient-2"/>
    <linearGradient id="linear-gradient-4" x1="75.36" y1="-55.15" x2="149.24" y2="98.82" xlink:href="#linear-gradient-2"/>
    <linearGradient id="linear-gradient-5" x1="256.5" y1="52.37" x2="78.81" y2="175.8" xlink:href="#linear-gradient-2"/>
    <linearGradient id="_Áĺçűě_ííűé_ăđŕäčĺíň_533" data-name="Áĺçűě˙ííűé ăđŕäčĺíň 533" x1="142.52" y1="32.47" x2="142.52" y2="23.48" gradientUnits="userSpaceOnUse">
      <stop offset=".04" stop-color="#ef6300"/>
      <stop offset="1" stop-color="#e13e00"/>
    </linearGradient>
    <linearGradient id="_Áĺçűě_ííűé_ăđŕäčĺíň_533-2" data-name="Áĺçűě˙ííűé ăđŕäčĺíň 533" x1="135.5" y1="37.43" x2="135.5" y2="35.47" xlink:href="#_Áĺçűě_ííűé_ăđŕäčĺíň_533"/>
    <linearGradient id="_Áĺçűě_ííűé_ăđŕäčĺíň_533-3" data-name="Áĺçűě˙ííűé ăđŕäčĺíň 533" x1="85.3" y1="85.23" x2="85.3" y2="81.77" xlink:href="#_Áĺçűě_ííűé_ăđŕäčĺíň_533"/>
    <linearGradient id="_Áĺçűě_ííűé_ăđŕäčĺíň_533-4" data-name="Áĺçűě˙ííűé ăđŕäčĺíň 533" x1="56.81" y1="128.05" x2="56.81" y2="124.49" xlink:href="#_Áĺçűě_ííűé_ăđŕäčĺíň_533"/>
    <linearGradient id="_Áĺçűě_ííűé_ăđŕäčĺíň_533-5" data-name="Áĺçűě˙ííűé ăđŕäčĺíň 533" x1="69.26" y1="126.66" x2="69.26" y2="123.11" xlink:href="#_Áĺçűě_ííűé_ăđŕäčĺíň_533"/>
    <linearGradient id="_Áĺçűě_ííűé_ăđŕäčĺíň_533-6" data-name="Áĺçűě˙ííűé ăđŕäčĺíň 533" x1="173.87" y1="131.57" x2="173.87" y2="126.71" xlink:href="#_Áĺçűě_ííűé_ăđŕäčĺíň_533"/>
  </defs>
  <g class="cls-20">
    <g id="Vrstva_2" data-name="Vrstva 2">
      <g id="Layer_1" data-name="Layer 1">
        <g>
          <path class="cls-2" d="m1.86,124.49s14.16,20.82,18.14,21.71c3.98.89,82.24-11.54,87.47-9.09,5.23,2.45,31.03,19.43,35.68,18.28,4.66-1.15,34.53-9.72,36.06-11.56,1.53-1.84,9.12-16.99,9.12-16.99l-19.5-15.26s25.64-41.82,26.79-46.5-47.08,19.04-47.08,19.04L1.86,124.49Z"/>
          <path class="cls-18" d="m10.76,135.16S-1.29,123.24.11,121.41c1.4-1.83,24.32-10.96,34.28-14.66,9.96-3.7,21-7.09,21.19-7.79.19-.7-5.62-14.97-5.55-15.47s9.7-13.51,9.64-14.47c-.06-.96-4.91-26.54-4.08-27.54C56.41,40.5,124.29-1.25,131.91.03c7.61,1.28,46.72,23.16,49.87,26.45,3.83,4.01,18.51,31.09,16.72,34.61-14.93,29.4-20.3,30.85-20.68,31.17-.38.32-12.94,16.75-12.94,16.75,0,0,26.15,8.68,26.66,11.77.51,3.09-14.08,22.17-14.08,22.17l-110.43-18.45-56.27,10.67Z"/>
          <path class="cls-25" d="m171.65,106.53c-1.4,2.39-2.27,3.84-2.27,3.84,0,0,6.87,2.99,12.82,5.89.17.08.49.24.91.44.09.04.18.09.27.13.08.04.17.09.25.13,0,0,.03,0,.04,0,.07.04.14.08.22.11.26.13.5.26.75.37.12.06.25.12.37.19.11.05.22.11.33.17.33.18.64.33.95.5.2.11.4.21.6.32.19.11.39.21.57.32.27.14.54.29.78.44.13.08.26.16.4.23.12.08.25.15.36.22.7.43,1.22.8,1.51,1.09.02.02.04.04.04.07.02.02.03.04.03.05.02.04.03.08.03.13,0,.04.02.06.02.1v.08c0,.07,0,.14-.02.22,0,.08-.02.17-.04.26-.02.09-.04.18-.07.29-.03.11-.06.22-.1.33,0,.03-.02.06-.04.1-.04.11-.08.24-.13.36-.02.05-.04.11-.06.16-.05.14-.11.29-.18.44-.03.06-.05.12-.08.19-.02.05-.04.1-.07.15h0s0,.04-.02.04c-.05.11-.1.22-.16.33-.08.18-.17.37-.26.55-.21.45-.45.91-.7,1.37-.11.22-.23.44-.35.66-.18.33-.35.65-.53.97-.06.11-.11.21-.18.32,0,0,0,.02-.02.03-.12.22-.24.42-.35.62-.11.19-.21.37-.31.54-.21.37-.41.7-.59.99,0,0,0,.02,0,.03,0,.03-.03.04-.04.07-.02.02-.03.04-.04.05-.24.4-.44.72-.57.94,0,0,0,.02,0,.02-1.03,1.68-2.11,3.37-3.15,4.93-2.25,3.36-4.3,6.08-5.09,6.61-3.41,2.29-27.48,10.06-33.35,10.88-.32.04-.58.07-.78.07h-.03c-.35,0-.82-.09-1.38-.26-5.94-1.78-22.91-12.25-31.27-16.65-.15-.08-.29-.16-.43-.23-.08-.04-.15-.08-.22-.11-.18-.09-.35-.18-.52-.26-.16-.08-.32-.16-.47-.24-.11-.04-.21-.1-.32-.15-4.65-2.24-85.56,10.78-88.54,8.9-.06-.04-.12-.08-.18-.12-.41-.29-.94-.73-1.55-1.29-3.33-3.11-9.18-9.9-13.19-15.11-1.43-1.86-2.61-3.52-3.37-4.74-.28-.44-.5-.82-.65-1.14-.13-.26-.21-.48-.24-.64,0-.05,0-.11.04-.18v-.02c.18-.3.82-.74,1.83-1.29.08-.04.17-.09.26-.14.09-.04.18-.1.27-.14.24-.12.49-.26.77-.39.04-.03.1-.04.15-.07.58-.28,1.22-.59,1.94-.92.08-.04.17-.07.26-.11.18-.08.36-.16.55-.25.13-.05.27-.11.41-.18.53-.23,1.09-.47,1.66-.71.04-.02.07-.03.1-.04.44-.19.9-.39,1.36-.57l.05-.03c.82-.34,1.67-.7,2.55-1.05h0c.35-.14.7-.29,1.07-.44.19-.07.4-.15.6-.23.54-.22,1.07-.43,1.63-.65.22-.09.45-.18.69-.27.4-.15.79-.31,1.19-.47,1-.4,2.02-.79,3.07-1.19.33-.12.65-.26.98-.38.2-.08.4-.16.62-.24.2-.07.41-.15.62-.24,4.12-1.57,8.41-3.16,12.47-4.65.4-.15.81-.3,1.21-.45.84-.31,1.67-.61,2.48-.9.2-.07.4-.15.6-.22.19-.07.4-.14.59-.21.34-.12.68-.25,1.01-.37.44-.16.87-.32,1.29-.47.38-.14.75-.27,1.12-.4.28-.11.57-.2.85-.31.26-.09.5-.18.76-.27.43-.16.85-.31,1.27-.46.33-.11.65-.23.96-.34.16-.05.32-.11.47-.17.26-.09.51-.18.75-.26.2-.07.4-.14.59-.21.26-.09.49-.18.74-.26.18-.06.34-.12.51-.18.25-.08.48-.17.7-.25.03,0,.05-.02.07-.03.34-.12.67-.24.99-.35.05-.02.1-.04.15-.05.2-.07.39-.13.57-.2.32-.11.62-.21.89-.32.56-.19,1.03-.36,1.4-.48.12-.04.24-.09.33-.12.04,0,.06-.02.1-.04.13-.05.25-.09.33-.11.03,0,.05-.02.07-.03.02,0,.03,0,.04,0s.02,0,.03,0c.02,0,.04,0,.04,0h0s0-.02-.02-.04c0-.02-.02-.05-.04-.1,0-.03-.02-.04-.03-.07-.03-.07-.06-.16-.11-.26-.04-.1-.09-.21-.14-.33-.07-.18-.15-.37-.24-.6-.27-.67-.63-1.53-1.03-2.51-.13-.32-.26-.65-.4-.99-.23-.56-.47-1.15-.72-1.74-.08-.2-.16-.4-.25-.6h0c-.3-.74-.6-1.47-.9-2.17-.22-.55-.44-1.07-.66-1.58-.5-1.21-.95-2.27-1.29-3.03-.11-.24-.19-.44-.27-.62-.09-.19-.16-.33-.21-.43,0,0,0,0,0-.03-.04-.09-.07-.19-.07-.31,0,0,0-.02,0-.03,0-.18.03-.37.09-.59.04-.11.08-.24.13-.36.06-.16.14-.33.24-.51.06-.12.13-.25.21-.38.83-1.43,2.33-3.28,3.91-5.15.28-.33.55-.67.84-.99.14-.17.28-.33.41-.49.39-.47.77-.92,1.14-1.36.29-.34.55-.68.82-1,.31-.39.59-.77.85-1.12.3-.4.55-.77.76-1.1.12-.18.23-.36.32-.53.11-.2.2-.4.26-.57.06-.18.11-.39.14-.62.03-.25.04-.52.04-.83,0-.12,0-.26,0-.39,0-.12,0-.26-.02-.39v-.04c0-.13-.02-.26-.04-.4-.06-.73-.18-1.58-.33-2.49-.04-.28-.1-.57-.15-.87-.27-1.59-.64-3.37-1.05-5.23h0c-.07-.35-.14-.7-.23-1.06-.14-.7-.3-1.43-.46-2.14-.23-1.11-.46-2.22-.68-3.31-.18-.87-.34-1.73-.49-2.58-.14-.79-.27-1.57-.38-2.31-.04-.27-.08-.55-.11-.81-.11-.86-.2-1.68-.26-2.44-.03-.41-.04-.81-.04-1.19,0-.25,0-.48,0-.7v-.04c.15-3.38,71.16-40.36,75.06-40.36,5.02,0,34.5,16.72,45.05,22.92.26.15.49.28.71.41.15.09.29.18.42.25.92.55,1.62.97,2.07,1.25.04,0,.06.04.1.06.02,0,.03,0,.04.02.05.04.11.07.15.1.27.17.59.48.96.92.02.02.03.04.04.05.61.73,1.34,1.79,2.14,3.07.07.1.13.2.19.3.03.04.05.09.08.14.1.16.19.32.3.48.2.33.41.7.64,1.09,5.17,8.92,12.28,24.64,12.28,27.6,0,.49-.41,1.63-1.15,3.23-4.13,9.1-18.37,33.4-23.98,42.88,0,0-.02.02-.02.03Z"/>
          <path class="cls-14" d="m110.19,118.08c0,.08-.55.23-1.58.45-3.21.69-11,2-20.61,3.54-.03,0-.05,0-.08,0-.04,0-.08,0-.11.02-.04,0-.1.02-.15.03-15.04,2.42-34.49,5.36-47.73,7.27-.11.02-.23.04-.34.05-8.16,1.18-13.93,1.95-14.79,1.95-2.5,0-5.91-1.03-9.37-2.41,0,0,0,0-.02,0-.17-.06-.33-.13-.49-.2,0,0-.03,0-.04-.02,0,0-.02,0-.03,0-2.13-.85-4.25-1.84-6.18-2.8,0,0,0,0-.02,0s0,0-.02,0,0,0-.02,0c-.8-.39-1.57-.78-2.29-1.15-.02-.02-.04-.03-.05-.03-1.75-.91-3.2-1.71-4.14-2.24h0c-.74-.42-1.16-.67-1.16-.67l.04-.18v-.02c.18-.3.82-.74,1.83-1.29.08-.04.17-.09.26-.14.09-.04.18-.1.27-.14.24-.12.49-.26.77-.39.04-.03.1-.04.15-.07.58-.28,1.22-.59,1.94-.92.08-.04.17-.07.26-.11.18-.08.36-.16.55-.25.13-.05.27-.11.41-.18.53-.23,1.09-.47,1.66-.71.04-.02.07-.03.1-.04.44-.18.9-.38,1.36-.57l.05-.03c.82-.33,1.66-.69,2.55-1.05h0c.35-.14.7-.29,1.07-.44.19-.07.4-.15.6-.23.54-.22,1.07-.43,1.63-.65.22-.09.45-.18.69-.27.4-.15.79-.31,1.19-.47,1-.4,2.02-.79,3.07-1.19.33-.12.65-.26.98-.38.2-.08.4-.16.62-.24.2-.07.41-.15.62-.24,4.12-1.57,8.41-3.16,12.47-4.65.4-.15.81-.3,1.21-.45.84-.31,1.67-.61,2.48-.9.2-.07.4-.15.6-.22.19-.07.4-.14.59-.21.34-.12.68-.25,1.01-.37.44-.16.87-.32,1.29-.47.38-.14.75-.27,1.12-.4.28-.11.57-.2.85-.31.26-.09.5-.18.76-.27.43-.16.85-.31,1.27-.46.33-.11.65-.23.96-.34.16-.05.32-.11.47-.17.26-.09.51-.18.75-.26.2-.07.4-.14.59-.21.26-.09.49-.18.74-.26.18-.06.34-.12.51-.18.25-.08.48-.17.7-.25.03,0,.05-.02.07-.03.34-.12.67-.24.99-.35.05-.02.1-.04.15-.05.2-.07.39-.13.57-.2.32-.11.62-.21.89-.32.56-.19,1.03-.36,1.4-.48.12-.04.24-.09.33-.12.04,0,.06-.02.1-.04.13-.04.25-.08.33-.11.03,0,.05-.02.07-.03.02,0,.03,0,.04,0s.02,0,.03,0c.02,0,.04,0,.04,0h0s28.4,8.85,43.69,14.42c.04,0,.07.02.11.04.75.28,1.47.55,2.16.8,4.32,1.62,7.15,2.85,7.23,3.34Z"/>
          <path class="cls-15" d="m113.15,82.24s-.04.04-.06.06c-.26.24-.52.41-.79.52-.31.12-1.91.24-4.42.36h-.04c-9.64.44-32.51.86-46.2,1.08h-.2s-.08,0-.12,0c-1.62.03-3.11.05-4.43.07-3.8.05-6.17.09-6.17.09,0,0,0,0,0-.03,0-.04-.04-.15-.07-.31,0,0,0-.02,0-.03,0-.18.03-.37.09-.59.04-.11.08-.24.13-.36.06-.16.14-.33.24-.51.06-.12.13-.25.21-.38.83-1.43,2.33-3.28,3.91-5.15.28-.33.55-.67.84-.99.14-.17.28-.33.41-.49.39-.47.77-.92,1.14-1.36.29-.34.55-.68.82-1,.31-.39.6-.77.85-1.12.3-.4.55-.77.76-1.1.12-.18.23-.36.32-.53.11-.2.2-.4.26-.57,3.13.85,20.86,2.59,35.35,4.2,6.24.69,11.88,1.36,15.49,1.91h.03c1.65.26,2.86.49,3.52.7.16.04.28.09.37.13.5.25-.62,3.86-2.21,5.4Z"/>
          <path class="cls-13" d="m180.16,26.72c-1.03,1.01-3.54,2.82-7,5.1-.02,0-.04.02-.05.03-12.45,8.21-37.14,22.52-50.23,28.4,0,0-.03.02-.04.03-3.35,1.51-5.94,2.46-7.36,2.61-.3.04-.83-.04-1.56-.18-6.47-1.34-28.55-9.39-43.36-15.03-.02,0-.03,0-.04-.02-5.54-2.1-10.05-3.87-12.36-4.82-.87-.36-1.43-.6-1.6-.7-.08-.04-.08-.05,0-.04.15-3.38,71.16-40.36,75.06-40.36,5.02,0,34.5,16.72,45.05,22.92,1.75,1.02,2.98,1.76,3.49,2.09Z"/>
          <path class="cls-16" d="m190.62,121.28c-3.17,1.66-11.75,5.24-20.42,8.71-.47.18-.93.37-1.4.56-.4.15-.78.3-1.16.46-3.26,1.29-6.45,2.55-9.3,3.66-.26.11-.53.2-.77.3-5.06,1.95-8.89,3.39-9.76,3.65-.39.11-1.18.04-2.25-.19,0,0,0,0-.02,0-4.61-.99-14.52-4.74-21.55-7.75-.03,0-.06-.03-.09-.04-3.19-1.36-5.77-2.57-6.96-3.29-.31-.18-.52-.33-.63-.45-.19-.19.27-.54,1.25-.99,8.13-3.8,51.84-15.54,51.84-15.54,0,0,6.87,2.99,12.82,5.89,3.87,1.88,7.37,3.73,8.31,4.67.08.08.11.19.11.35Z"/>
          <path class="cls-12" d="m110.2,120.91c0,.97-.04,2.35-.11,3.93-.12,2.71-.34,6.01-.71,8.72-.12.94-.26,1.8-.42,2.56-.11-.04-.21-.1-.32-.15-4.65-2.24-85.56,10.78-88.54,8.9,0,0,.05-.31.14-.83.22-1.36.7-4.14,1.21-6.64.54-2.53,1.12-4.77,1.54-4.93.93-.36,7.45-1.53,16.53-3.04.11,0,.23-.04.34-.05,13.62-2.24,32.83-5.2,47.73-7.27.05,0,.11-.02.15-.03.04,0,.08,0,.11-.02,1.73-.24,3.4-.47,4.99-.68,10.18-1.36,17.32-2.12,17.34-1.63,0,.25,0,.63,0,1.14Z"/>
          <path class="cls-6" d="m25.97,143c-.35-1.33-.51-7.28,2.75-8.53s78.04-8.27,75.06-4.96c-2.98,3.31-77.14,16.01-77.81,13.48Z"/>
          <path class="cls-8" d="m21.11,137.16c-.09.64-.18,1.33-.29,2.03,0,.04,0,.06,0,.1-.26,1.81-.55,3.74-.84,5.47-.41-.29-.94-.73-1.55-1.29-3.33-3.11-9.18-9.9-13.19-15.11-1.43-1.86-2.61-3.52-3.37-4.74-.28-.44-.5-.82-.65-1.14,1.18.52,3,1.33,5.07,2.27.02,0,.04,0,.05.03,1.44.64,3.01,1.36,4.56,2.08.07.03.14.06.2.1,1.07.49,2.12.99,3.13,1.47.05.03.11.05.16.08.34.16.69.33,1.02.48,0,0,.02,0,.02,0,3.45,1.66,6.12,3.07,6.14,3.45.04.54-.16,2.39-.47,4.72Z"/>
          <path class="cls-8" d="m146.65,140.24c-.13.5-.96,4.07-1.86,7.79-.11.46-.22.92-.33,1.37h0c-.4,1.62-.78,3.19-1.13,4.49h-.03c-.35,0-.82-.09-1.38-.26-5.94-1.78-22.91-12.25-31.27-16.65-.15-.08-.29-.16-.43-.23-.5.87-.82,1.28-.8.85.18-.31.38-.63.58-.97.7-1.14,1.48-2.4,2.24-3.59,0,0,.02-.02.03-.04.41-.65.82-1.28,1.21-1.85.33-.49.65-.95.94-1.36.66-.89,1.2-1.52,1.51-1.68.31-.16,3.62.93,7.97,2.52.03.02.06.03.09.04,0,0,.03.02.04.02,0,0,.02,0,.03,0,4.32,1.59,9.64,3.65,14.02,5.46.03,0,.05.03.08.04,4.89,2.02,8.6,3.7,8.51,4.05Z"/>
          <path class="cls-12" d="m190.39,122.47s-.02.06-.04.1c-.23.69-.6,1.52-1.04,2.4-.06.13-.12.26-.19.39-.32.64-.67,1.29-1.02,1.94-.15.28-.31.56-.48.85-.19.33-.38.66-.55.96-.11.21-.25.43-.38.65-.42.71-.77,1.29-.98,1.63,0,0,0,.02,0,.02-1.03,1.68-2.11,3.37-3.15,4.93-2.25,3.36-4.3,6.08-5.09,6.61-3.41,2.29-27.48,10.06-33.35,10.88.16-.8.35-1.74.55-2.76.11-.52.22-1.07.33-1.62.02-.03.02-.06.03-.1.08-.39.16-.77.25-1.17.93-4.37,2-8.9,2.48-9.15.18-.1.56-.27,1.11-.5h0c1.31-.57,3.58-1.51,6.46-2.67.04-.02.07-.03.11-.04.68-.27,1.38-.56,2.11-.85.25-.1.51-.19.77-.3,2.18-.87,4.59-1.83,7.1-2.81.72-.28,1.46-.56,2.2-.85.38-.16.77-.31,1.16-.46.41-.17.84-.33,1.26-.49,7.42-2.88,15.1-5.78,20.32-7.59h0Z"/>
          <path class="cls-12" d="m196.79,60.39c-1.45.8-4.7,1.81-9.08,2.95h-.02c-20.79,5.34-67.15,13.22-70.03,12.83-.49-.07-.92-1.09-1.23-2.52-.18-.77-.32-1.67-.43-2.61v-.03c-.07-.62-.13-1.24-.18-1.85-.07-.91-.11-1.79-.11-2.53v-.02c0-1.21.11-2.09.33-2.24.56-.41,3.06-1.92,6.79-4.11,0,0,.03-.02.04-.03,11.88-6.98,36.19-20.86,50.23-28.4.02,0,.04-.02.05-.03,3.36-1.8,6.14-3.24,8-4.12.91,1.08,2.07,2.88,3.35,5.09,5.17,8.92,12.28,24.64,12.28,27.6Z"/>
          <path class="cls-8" d="m116,71.02v.03c.02,2.51-.24,4.81-.94,5.1-.03.02-.04.02-.07.03-.23.04-1.5,0-3.52-.15h-.03c-2.57-.18-6.34-.48-10.76-.88h-.02s-.08,0-.18-.02c-.14,0-.28-.03-.42-.04-.11,0-.24-.02-.37-.04-12.4-1.13-29.37-2.91-39.35-4.57.11-.2.2-.4.26-.57.06-.18.11-.39.14-.62.03-.25.04-.52.04-.83,0-.12,0-.26,0-.39,0-.12,0-.26-.02-.39v-.04c0-.13-.02-.26-.04-.4-.06-.73-.18-1.58-.33-2.49-.04-.28-.1-.57-.15-.87-.27-1.59-.64-3.37-1.05-5.23h0c-.07-.35-.14-.7-.23-1.06-.14-.7-.3-1.43-.46-2.14-.23-1.11-.46-2.22-.68-3.31-.18-.87-.34-1.73-.49-2.58-.14-.79-.27-1.57-.38-2.31-.04-.27-.08-.55-.11-.81-.11-.86-.2-1.68-.26-2.44-.03-.41-.04-.81-.04-1.19.74.19,1.63.45,2.64.75,0,0,.02,0,.03,0,1.25.38,2.68.84,4.27,1.36.02,0,.04,0,.05.02,10.92,3.62,28.83,10.27,40.43,14.78.04.02.07.03.11.04.03.02.05.03.08.03,5.97,2.32,10.23,4.06,10.96,4.48.23.14.45,1.06.61,2.33v.02c.17,1.26.27,2.85.28,4.38Z"/>
          <path class="cls-8" d="m112.09,102.46v.04c-.04.33-.07.66-.11.99,0,.1,0,.2-.03.3,0,0,0,.03,0,.04v.08s0,.02,0,.04c0,.09-.02.17-.03.26-.26,2.59-.56,5.03-.86,7.04-.18,1.29-.38,2.4-.56,3.27-.25,1.18-.48,1.91-.68,2.02-.06.04-.3,0-.69-.07-1.05-.22-3.23-.83-6.16-1.71-7.02-2.11-18.33-5.77-28.64-9.23-.46-.15-.92-.3-1.38-.46-4.81-1.62-9.35-3.17-13.05-4.47-.32-.11-.63-.23-.93-.33-.72-.26-1.41-.5-2.06-.73.02,0,.03,0,.04,0s.02,0,.03,0c.02,0,.04,0,.04,0h0s0-.02-.02-.04c0-.02-.02-.05-.04-.1,0-.03-.02-.04-.03-.07-.03-.07-.06-.16-.11-.26-.04-.1-.09-.21-.14-.33-.07-.18-.15-.37-.24-.6-.27-.67-.63-1.53-1.03-2.51-.13-.32-.26-.65-.4-.99-.23-.56-.47-1.15-.72-1.74-.08-.19-.16-.4-.25-.6h0c-.3-.74-.6-1.47-.9-2.17-.22-.55-.44-1.07-.66-1.58-.5-1.21-.95-2.27-1.29-3.03-.1-.24-.19-.44-.27-.62.66-.06,1.68-.13,3-.21,1.91-.11,4.44-.25,7.38-.38.09,0,.18,0,.26,0h.06c8.29-.37,19.69-.77,29.6-.98.12,0,.24,0,.35,0,3.4-.07,6.61-.11,9.44-.13h.08c2.61-.02,4.89,0,6.72.04h.04c2.65.06,4.32.2,4.58.43.91.83.46,10.28-.36,18.85Z"/>
          <path class="cls-8" d="m195.64,63.62c-4.13,9.1-18.37,33.4-23.98,42.88,0,0-.02.02-.02.03-1.51,1.8-2.59,2.9-3.03,3.03-2.36.66-34.02,9.94-46.93,14.26h0c-3.11,1.04-5.12,1.8-5.39,2.07-.41.43-1.2,1.8-2.09,3.47-.4.73-.82,1.51-1.23,2.31v.02c-.24.45-.48.89-.7,1.33,0,.02-.02.03-.03.04-.77,1.47-1.49,2.83-2.02,3.71-.5.87-.82,1.28-.8.85.02-.4.04-.81.06-1.23.03-.58.06-1.19.1-1.81.16-2.85.37-6.15.62-9.69.32-4.56.7-9.51,1.14-14.45,0-.03,0-.04,0-.06.18-2.15.39-4.3.6-6.41,0-.02,0-.03,0-.04,0-.04,0-.08,0-.11.02-.1.03-.2.03-.3.04-.33.07-.67.11-.99v-.04c1.39-13.5,3.11-25.05,4.77-25.29,28.15-3.93,47-7.14,59.62-9.54,9.47-1.8,15.42-3.15,19.16-4.01Z"/>
          <path class="cls-17" d="m174.35,19.51c.05,0,.13.07.23.2-.18-.13-.27-.2-.23-.2Z"/>
          <path class="cls-17" d="m145.36,74.37c-5.17,1.09-27.66,1.85-29.12,5.22-1.46,3.37-5.6,55.4-6.67,54.96-1.06-.43,4.44-47.47,2.26-49.12-3.28-2.48-64.37.12-57.98-.77,10.86-1.52,56.52-1.33,58.43-1.84,3.19-.84,3.88-14.28,1.83-16.91-2.91-2.91-55.45-21.12-55.96-23.1-.34-1.31,53.95,20.57,58.32,19.56,4.37-1.01,22.81-12.87,27.08-15,36.63-18.35,33.94-19.26,33.1-22.74,4.03,2.35,4.23,1.92,7.85,8.15-1.76-1.24-3.46-2.17-4.36-1.81-2.21.9-59.04,30.81-60.22,32.38-1.26,1.69-3.08,4.51-3.08,11.37,0,1.8,20.69-2.1,27.87-3,5.17-.65,108.46-20.35.64,2.65Z"/>
          <path class="cls-17" d="m1.21,122.48c-.42-1.14,18.21,6.74,21.78,7.75,3.57,1.01,14.16-1.25,19.33-2.12,5.17-.87,66.12-10.68,66.29-9.57.16,1.11-82.38,12.19-84.64,15.08-2.26,2.89-3.56,11.17-3.67,10.47-.11-.7,1.74-10.67-.14-11.74-1.88-1.07-18.7-9.23-18.94-9.87Z"/>
          <path class="cls-17" d="m190.62,121.28c.11,1.82-3.95,8.54-4.9,10.1.17-.36,3.12-6.55,2.63-7.21-.51-.67-19.82,7.91-22.34,9.31-2.53,1.41-16.42,4.66-17.6,5.51-1.18.84-3.92,12.98-4.28,13.67-.38.74,1.6-10.77,1.44-12.39-.17-1.63-27.21-10.86-28.62-11.09-1.4-.22-3.38,1.87-3.97,2.5,1.95-8.15,8.81-7.89,8.72-7.86-.08.03-3.2,1.9-3.67,2.33-1.84,1.71,4.51,3.39,27.16,12,4.59,1.75,39.34-14.58,42.32-16.91,1.8-1.41-4.27-4.09-5.31-4.98,1.07.52,8.42,4.03,8.42,5.03Z"/>
          <path class="cls-12" d="m19.66,133.61c0,.79-.04,1.66-.12,2.57-.22,2.43-.69,5.13-1.12,7.28-3.33-3.11-9.18-9.9-13.19-15.11-1.43-1.86-2.61-3.52-3.37-4.74.77.24,1.77.55,2.93.94h0c1.15.4,2.47.86,3.82,1.37,0,0,0,0,.02,0s0,0,.02,0,0,0,.02,0c.73.28,1.48.58,2.22.9.07.03.14.06.2.1,1.08.46,2.14.95,3.13,1.47.05.03.11.05.16.08.16.09.32.17.47.26,0,0,.02,0,.03,0,0,0,.03.02.04.02,1.61.9,2.98,1.85,3.81,2.82.59.67.92,1.34.93,2.02Z"/>
          <path class="cls-12" d="m58.28,99.06c-1.13-.83-5.22-11.57-3.37-12.36,1.85-.79,52.97,4.55,53.7,9.16.74,4.61.74,17.92-.39,18.43-1.12.51-47.88-13.7-49.95-15.23Z"/>
          <path class="cls-12" d="m63.15,68.57c-1.29-1.42-5.24-22.4-3.67-22.55,1.57-.15,49.61,21.65,49.94,23.22.33,1.57,1.17,4.57,0,4.94-1.17.37-44.85-4.05-46.27-5.62Z"/>
          <path class="cls-12" d="m142.61,144.13c-.04.66-.04,1.88-.08,3.34-.05,1.94-.18,4.27-.61,6.16-5.94-1.78-22.91-12.25-31.27-16.65.77-1.64,2.66-4.23,4.76-5.26.42-.21.86-.36,1.29-.42,3.27-.48,26.07,10.43,25.9,12.84Z"/>
          <path class="cls-4" d="m115.48,121.87c-2.52-2.25,1.34-32.81,5.5-36.52,4.16-3.71,65.62-18.77,64.61-13.71s-13.9,32.05-19.55,36.18c-5.65,4.13-48.42,15.96-50.56,14.05Z"/>
          <path class="cls-5" d="m64.01,40.92c1.02-2.11,60.23-35.28,68.88-34.16,8.65,1.12,35.17,19.33,33.6,21.8-1.57,2.47-26.42-6.07-42.65-2.7-16.23,3.37-61.63,18.77-59.83,15.06Z"/>
          <path class="cls-5" d="m24.49,127.72c-3.15-.93-17.98-5.07-15.81-7.17,2.17-2.1,48.43-18.73,47.81-16.93-.62,1.8-29.31,15.7-30.13,18.07-.82,2.38,1.06,6.89-1.87,6.02Z"/>
          <path class="cls-5" d="m61.09,72.27c-1.12.34-6.74,8.15-5.5,9.27,1.23,1.12,24.49-.34,23.76-.9-.73-.56-14.61-.67-15.96-2.36s-.84-6.46-2.3-6.01Z"/>
          <path class="cls-5" d="m168.85,111.57c1.1-.39,16.01,7.04,15.2,8.81-.81,1.77-33.34,16.32-35.7,15.28s22.67-14.1,22.22-16.63c-.45-2.53-4-6.65-1.71-7.47Z"/>
          <path class="cls-5" d="m115.26,55.91c-7.23.41-49.8-11.98-44.84-17.08S128.06,2.65,132.33,4.34c4.27,1.69-11.11,51.24-17.07,51.58Z"/>
          <path class="cls-9" d="m122.25,127.83c-1.35-1.2,39.25-14.24,38.58-13.52s-27.27,12.95-29.22,13.8c-1.95.85-8.69.32-9.36-.28Z"/>
          <path class="cls-7" d="m182.55,136.33c-2.25,3.36-4.3,6.08-5.09,6.61-3.41,2.29-27.48,10.06-33.35,10.88-.32.04-.58.07-.78.07h-.03c-.35,0-.82-.09-1.38-.26-5.94-1.78-22.91-12.25-31.27-16.65-.15-.08-.29-.16-.43-.23-.5.87-.82,1.28-.8.85.02-.4.04-.81.06-1.23-.16-.08-.32-.16-.47-.24-.11-.04-.21-.1-.32-.15-4.65-2.24-85.56,10.78-88.54,8.9-.06-.04-.12-.08-.18-.12-.41-.29-.94-.73-1.55-1.29-3.33-3.11-9.18-9.9-13.19-15.11,4.82,2.43,10.48,5.54,14.3,7.83.51.32.99.62,1.43.89.04.03.09.05.13.09.14.08.27.17.4.26.18.11.36.23.53.34.54.35.97.66,1.29.92,3.93,3.09,12.7,3.35,19.89,2.32,7.09-1.01,60.6-18.02,66.73-16.22.07.02.13.04.19.07.02,0,.03,0,.04.02.3.15.57.3.82.48,1.4.91,2.18,2.09,2.95,3.55.08.15.16.31.24.47.08.15.15.3.22.45.07.11.12.24.18.35.25.49.52,1.01.81,1.56,1.1,2,2.66,4.33,5.57,6.96,6.29,5.68,15.74,7.42,21.55,8.79.78.18,1.5.35,2.13.53.04.02.09.03.13.04.16.05.31.1.46.14,0,0,.02,0,.03,0,.02,0,.04,0,.06.02,5.17,1.51,23.08-2.39,26.88-4.07,1.49-.66,5.72-3.99,10.33-7.8Z"/>
          <path class="cls-7" d="m111.95,103.82v.08s0,.02,0,.04c-.09,1.96-.29,4.3-.6,6.41,0,.02,0,.04,0,.06-.12.83-.26,1.62-.4,2.35-.14.65-.28,1.24-.44,1.75-.39,1.29-.84,2.08-1.36,1.95-.55-.14-3.71-1.09-8.32-2.51-.04-.02-.07-.03-.11-.04-6.94-2.15-17.09-5.34-26.38-8.4-.46-.15-.92-.3-1.38-.46-4.85-1.6-9.4-3.15-13.05-4.47-.32-.11-.63-.23-.93-.33-.7-.26-1.37-.51-2-.75.02,0,.04,0,.04,0h0s0-.02-.02-.04c0-.02-.02-.05-.04-.1,0-.03-.02-.04-.03-.07-.03-.07-.06-.16-.11-.26-.04-.1-.09-.21-.14-.33-.07-.18-.15-.37-.24-.6-.27-.67-.63-1.53-1.03-2.51-.13-.32-.26-.65-.4-.99-.23-.56-.47-1.15-.72-1.74-.08-.2-.16-.4-.25-.6.56.7,1.21,1.43,1.96,2.15h0c1.43,1.41,3.19,2.83,5.34,4.06,7.78,4.45,21.8,3.82,28.1,5.62,4.91,1.41,14.88-1.14,19.58-3.13,1.33-.57,2.24-1.08,2.51-1.46.17-.25.29-.05.37.44.11.74.12,2.17.04,3.9Z"/>
          <path class="cls-7" d="m100.69,75.14h-.02s-.08,0-.18-.02c-.1,0-.25-.02-.42-.04-.11,0-.24-.02-.37-.04-5.19-.42-29.55-2.48-39.67-4.04.12-.18.23-.36.32-.53.11-.2.2-.4.26-.57.06-.18.11-.39.14-.62.03-.25.04-.52.04-.83,0-.12,0-.26,0-.39,0-.12,0-.26-.02-.39v-.04c0-.13-.02-.26-.04-.4-.06-.73-.18-1.58-.33-2.49-.04-.28-.1-.57-.15-.87-.27-1.59-.64-3.37-1.05-5.23.57.96,1.21,1.9,1.94,2.81,2.37,3,5.59,5.58,9.96,6.74,5.61,1.5,11.48,2.9,16.5,4.04,3.25.75,6.13,1.38,8.36,1.87,2.93.63,4.74,1.01,4.74,1.03Z"/>
          <path class="cls-4" d="m120.23,73.74c-.15-1.01,50.19-18.58,57.68-18.88,7.49-.3,18.13,3.28,15.88,4.63-2.25,1.36-73.34,15.74-73.56,14.24Z"/>
          <path class="cls-9" d="m146.41,152.4c.89-2.34,37.57-27.29,36.93-23.85-.64,3.44-3.45,12.69-7.87,14.6-4.42,1.91-29.48,10.34-29.07,9.25Z"/>
          <path class="cls-9" d="m125.08,144.13c.34-.87,15.42-5.93,16.07-4.47.65,1.46.37,11.1-1.57,11.24-1.94.14-14.69-6.26-14.5-6.77Z"/>
          <path class="cls-9" d="m112,128.55c-1.48-.43,3.28-46.04,8.23-47.91,4.94-1.87,7.44,9.2,6.89,11.62-.15.66-14.21,36.56-15.12,36.29Z"/>
          <path class="cls-3" d="m115.48,62.88c-2.49.31-.85,10.4,1.17,8.09,2.02-2.3,2.43-8.55-1.17-8.09Z"/>
          <path class="cls-3" d="m123.84,58.88c-3.54-.12-5.41,3.95-2.69,2.99,2.72-.96,5.55-2.89,2.69-2.99Z"/>
          <path class="cls-3" d="m143.06,72.24c-4.75,0-7.56,2.03-4.38,2.33,3.18.3,15.45-2.34,4.38-2.33Z"/>
          <path class="cls-3" d="m22.73,130.53c-2.97-.82-3.82,6.74-1.01,5.81,2.81-.94,3.6-5.09,1.01-5.81Z"/>
          <path class="cls-3" d="m145.98,138.5c-1.21.27-2.25,6.67,0,4.83,2.25-1.85,2.27-5.33,0-4.83Z"/>
          <path class="cls-11" d="m168.62,134.76c-2.8.44-4.52,3.12-1.97,2.13s4.72-2.56,1.97-2.13Z"/>
          <path class="cls-11" d="m102.27,90.02c-3.37,1.28-6.35,7.89-2.25,6.33,4.1-1.56,5.51-7.57,2.25-6.33Z"/>
          <path class="cls-11" d="m95.7,86.63c.19,2.9,2.31,4.29,2.33,2.49.02-1.8-2.45-4.26-2.33-2.49Z"/>
          <path class="cls-11" d="m63.05,94.57c-2.12,1.34-2.87,3.19,0,2.02,2.87-1.17,1.52-2.97,0-2.02Z"/>
          <path class="cls-11" d="m65.16,52.82c-1.96,1.09-5.64,5.45-.81,3.71,4.83-1.74,2.52-4.66.81-3.71Z"/>
          <path class="cls-11" d="m61.17,50.13c-.58,1.71,1.32,3.29,1.26,1.81-.06-1.47-.84-3.05-1.26-1.81Z"/>
          <path class="cls-11" d="m129.01,86.63c-3.82.29-8.65,2.92-4.38,3.3,4.27.38,6.97-3.49,4.38-3.3Z"/>
          <path class="cls-11" d="m125.03,81.96c-1.43,2.07,1.77,4.31,2.16,2.48.39-1.84-1.37-3.63-2.16-2.48Z"/>
          <path class="cls-11" d="m133.07,89.95c-1,1.21-2.01,2.37,0,1.47,2.01-.9.7-2.32,0-1.47Z"/>
          <path class="cls-11" d="m164.88,109.01c-1.36-1.52-4.12-4.94-1.71-4.16s2.68,5.25,1.71,4.16Z"/>
          <path class="cls-11" d="m185.08,69.91c-2.83,1.06-6.57,3.98-3.03,2.86,3.54-1.12,4.94-3.58,3.03-2.86Z"/>
          <path class="cls-11" d="m133.68,136.89c-1.94.7-2.2,4.81-.41,4.17,1.79-.64,1.23-4.47.41-4.17Z"/>
          <path class="cls-11" d="m135.77,142.45c-.36,1.85,2.17,1.64,1.8.55-.37-1.09-1.61-1.51-1.8-.55Z"/>
          <path class="cls-11" d="m162.93,141.91c-1.58-.4-3.07-2.64-1.35-2.65,1.72-.01,2.85,3.02,1.35,2.65Z"/>
          <path class="cls-11" d="m72.21,113.45c-4.55-.2-11.75,3.83-4.98,3.09,6.77-.74,7.56-2.98,4.98-3.09Z"/>
          <path class="cls-19" d="m145.36,23.67c-5.79-1.81-13.37,10.36-5.51,8.63s11.97-6.61,5.51-8.63Z"/>
          <path class="cls-22" d="m137.32,35.58c-3.08-.63-7.52,1.8-2.92,1.85s5.1-1.4,2.92-1.85Z"/>
          <path class="cls-24" d="m85.77,81.96c-3.62-1.02-5.48,2.47-1.21,3.16,4.28.69,5.63-1.91,1.21-3.16Z"/>
          <path class="cls-1" d="m57.75,124.52c-6.09.43-8.55,4.51-1.2,3.31s5.7-3.62,1.2-3.31Z"/>
          <path class="cls-21" d="m69.02,123.11c-1.88.08-3.13,4.93.42,3.16,3.56-1.77,1.33-3.23-.42-3.16Z"/>
          <path class="cls-23" d="m174.69,126.86c-3.62.84-5.81,5.68-1.91,4.55,3.9-1.14,6.26-5.56,1.91-4.55Z"/>
          <path class="cls-10" d="m137.99,27.23c-.6.81.87,3.25,5.29,1.91,4.42-1.35,6.06-2.71,4.72-3.98s-5.48-4.03-10.02,2.07Z"/>
          <path class="cls-10" d="m132.82,36.35c-.33.27,1.35.71,3.15.44,1.81-.27,2.96-.61,1.99-1.03-.97-.42-3.47-.78-5.14.59Z"/>
          <path class="cls-10" d="m82.35,82.65c-.43.44,1.16,1.55,3.22,1.45,2.06-.1,3.14-.39,2.46-1.06s-3.93-2.17-5.67-.39Z"/>
          <path class="cls-10" d="m52.37,126.42c-.37.42,2.8.55,5.02.13,2.22-.42,4.21-1.2,3.34-1.67-.87-.47-6.21-.9-8.36,1.54Z"/>
          <path class="cls-10" d="m68.66,123.19c-1.57.48-1.95,2.52.16,2.06,2.11-.46,2.28-2.8-.16-2.06Z"/>
          <path class="cls-10" d="m171.26,129.14c-.4.91.26,1.29,2.3.64,2.04-.66,4.14-2.48,3.03-2.91-1.11-.44-4.5.37-5.34,2.28Z"/>
          <path class="cls-17" d="m137.2,28.93c.86-.09,1.92.96,3.78.97,1.27,0,7.09-2.8,6.6-1.47s-7.47,5.9-9.87,4.04c-2.4-1.86-.85-3.5-.51-3.53Z"/>
          <path class="cls-17" d="m132.49,36.66c-.18-.25,1.54.4,2.1.35,1.73-.13,3.79-.7,3.76-.35-.03.35-4.64,1.74-5.86,0Z"/>
          <path class="cls-17" d="m82.16,83.32c.49.07,1.43.85,2.2.91.77.06,3.76-.4,3.93,0,.18.4-3.02,1.73-4.87.59-1.85-1.14-1.32-1.5-1.26-1.5Z"/>
          <path class="cls-17" d="m52.14,126.96c.38-.57,2.91.39,4.67,0,1.76-.39,4.38-1.81,4.65-1.29.27.52-2.27,2.33-5.93,2.38-3.66.05-3.59-.81-3.4-1.09Z"/>
          <path class="cls-17" d="m67.3,125.31c.41-.02.88.47,1.6.24.72-.23,2.15-2.28,2.28-1.37.13.91-1.51,3.01-3.03,2.48-1.53-.53-1.13-1.33-.85-1.34Z"/>
          <path class="cls-17" d="m170.72,130.61c.11-.83.86.05,2.03-.22,1.17-.27,4.31-2.54,4.05-1.71s-2.95,2.98-4.64,2.9-1.48-.71-1.44-.97Z"/>
        </g>
      </g>
    </g>
  </g>
</svg>