<?xml version="1.0" encoding="UTF-8"?>
<svg xmlns="http://www.w3.org/2000/svg" xmlns:xlink="http://www.w3.org/1999/xlink" viewBox="0 0 88.27 123.7">
  <defs>
    <style>
      .cls-1 {
        fill: #ff7b00;
      }

      .cls-2, .cls-3, .cls-4 {
        fill: #fff;
      }

      .cls-5 {
        opacity: .1;
      }

      .cls-5, .cls-6, .cls-7, .cls-8, .cls-9, .cls-10 {
        mix-blend-mode: multiply;
      }

      .cls-5, .cls-9, .cls-10 {
        fill: #f42774;
      }

      .cls-11 {
        fill: url(#linear-gradient-2);
        mix-blend-mode: screen;
      }

      .cls-12 {
        mix-blend-mode: overlay;
      }

      .cls-12, .cls-13 {
        fill: #fff603;
      }

      .cls-14 {
        fill: url(#_Áĺçűě_ííűé_ăđŕäčĺíň_533);
      }

      .cls-15 {
        isolation: isolate;
      }

      .cls-6, .cls-7 {
        opacity: .5;
      }

      .cls-6, .cls-8 {
        fill: #de376d;
      }

      .cls-7 {
        fill: #cf4a76;
      }

      .cls-16 {
        fill: url(#_Áĺçűě_ííűé_ăđŕäčĺíň_533-2);
      }

      .cls-3, .cls-4 {
        mix-blend-mode: soft-light;
      }

      .cls-4 {
        opacity: .4;
      }

      .cls-8 {
        opacity: .7;
      }

      .cls-9 {
        opacity: .15;
      }

      .cls-10 {
        opacity: .2;
      }

      .cls-17 {
        fill: url(#_Áĺçűě_ííűé_ăđŕäčĺíň_533-3);
      }

      .cls-18 {
        fill: url(#linear-gradient);
      }
    </style>
    <linearGradient id="linear-gradient" x1="48.95" y1="4.13" x2="41.68" y2="154.85" gradientUnits="userSpaceOnUse">
      <stop offset="0" stop-color="#ffcf00"/>
      <stop offset="1" stop-color="#ff9600"/>
    </linearGradient>
    <linearGradient id="linear-gradient-2" x1="65.75" y1="-72.39" x2="56.05" y2="128.6" gradientUnits="userSpaceOnUse">
      <stop offset="0" stop-color="#fff601"/>
      <stop offset=".1" stop-color="#ece400"/>
      <stop offset=".31" stop-color="#bdb600"/>
      <stop offset=".61" stop-color="#706c00"/>
      <stop offset=".97" stop-color="#070700"/>
      <stop offset="1" stop-color="#000"/>
    </linearGradient>
    <linearGradient id="_Áĺçűě_ííűé_ăđŕäčĺíň_533" data-name="Áĺçűě˙ííűé ăđŕäčĺíň 533" x1="15.79" y1="98.43" x2="15.79" y2="84.53" gradientUnits="userSpaceOnUse">
      <stop offset=".04" stop-color="#ef6300"/>
      <stop offset="1" stop-color="#e13e00"/>
    </linearGradient>
    <linearGradient id="_Áĺçűě_ííűé_ăđŕäčĺíň_533-2" data-name="Áĺçűě˙ííűé ăđŕäčĺíň 533" x1="18.14" y1="79" x2="18.14" y2="72.88" xlink:href="#_Áĺçűě_ííűé_ăđŕäčĺíň_533"/>
    <linearGradient id="_Áĺçűě_ííűé_ăđŕäčĺíň_533-3" data-name="Áĺçűě˙ííűé ăđŕäčĺíň 533" x1="46.99" y1="34.58" x2="46.99" y2="23.63" xlink:href="#_Áĺçűě_ííűé_ăđŕäčĺíň_533"/>
  </defs>
  <g class="cls-15">
    <g id="Vrstva_2" data-name="Vrstva 2">
      <g id="Layer_1" data-name="Layer 1">
        <g>
          <path class="cls-1" d="m23.2,24.5c.04-.15-5.36,7.41-14.89,41.01C2.52,85.9-1.07,107.97.29,109.3c2.01,1.95,16.9,12.57,51.48,14.36,16.45.85,36.51-11.75,36.49-18.55,0-4.13-6.76-40.03-6.76-40.03L23.2,24.5Z"/>
          <path class="cls-13" d="m19,35.91S29.28.02,46.9,0c9.28-.01,25.65,28.35,29.57,41.8,2.61,8.97,9.49,40.56,7.82,61.08-.71,8.72-18.07,10.74-18.07,10.74L19,35.91Z"/>
          <path class="cls-18" d="m87.08,104.98c0,6.74-16,16.55-31.66,17.53-.72.04-1.47.07-2.25.07-.3.01-.6.01-.9.01-16.55-.06-45.87-7.11-50.98-13.74-1.27-1.63,1.81-20.77,7.73-42.45,3.25-11.91,7.35-24.59,12.07-35.56,4.02-9.36,8.49-17.46,13.24-22.77.48-.55.98-1.07,1.48-1.56,3.25-3.18,6.62-5.01,10.07-5.01.61,0,1.23.07,1.85.22,1.58.37,3.17,1.2,4.78,2.42,7.84,5.94,15.9,21.21,22.73,38.08,0,.03.03.06.04.09,0,.02,0,.03.02.05,2.72,7.81,7.57,33.05,10.12,49.24,1.01,6.46,1.66,11.48,1.66,13.38Z"/>
          <path class="cls-11" d="m75.24,42.79c-5.84,14.93-21.77,34.62-23.93,32.63-2.81-2.59-4.69-66.61-4.37-69.71.14-1.42.41-2.55.79-3.42,9.27,2.17,19.28,20.17,27.51,40.5Z"/>
          <path class="cls-12" d="m75.3,42.36c-.71,2.82-3.02,12.28-7.74,19.69-1.3,2.03-10.1,8.27-14.44,13.23s.88,44.15,0,41.39c-1.43-4.49-3.9-35.22-5.11-47.14-.56-5.46.38-52.93-3.45-62.81-1.19-3.07-5.49-1.4-8.75-.22,3.25-3.18,6.62-5.01,10.07-5.01.61,0,1.23.07,1.85.22,1.58.37,3.17,1.2,4.78,2.42-1.35,1.1-2.61,2.17-3.22,3.32-2.15,4.08-.37,60.85,3.45,63.61,3.83,2.75,20.18-23.86,21.37-26.71.16-.38,1.3-2.44,1.19-2Z"/>
          <path class="cls-7" d="m52.27,122.59c-16.55-.06-45.87-7.11-50.98-13.74-1.27-1.63,1.81-20.77,7.73-42.45,3.25-11.91,7.35-24.59,12.07-35.56,4.02-9.36,8.49-17.46,13.24-22.77,3.51-2.51,6.69-3.27,9.19-1.6,1.18.79,2.54,11.7,3.83,27.08,1.63,19.45,3.17,46.06,4.14,68.43.09,1.97.17,3.91.24,5.81.14,3.38.27,6.64.37,9.72.07,1.75.12,3.45.17,5.08Z"/>
          <path class="cls-10" d="m4.61,107.55C2.59,104.28,21.46,8.86,38.31,10.93c10.28,1.27,10.45,86.28,5.73,94.9-4.71,8.63-36.2,6.98-39.44,1.71Z"/>
          <path class="cls-10" d="m53.17,122.58c-.3.01-.6.01-.9.01-16.55-.06-45.87-7.11-50.98-13.74-1.27-1.63,1.81-20.77,7.73-42.45,1.18-2,2.41-3.74,3.67-5.09.27-.29.55-.57.82-.82,1.28-1.2,2.6-1.99,3.95-2.28,7.29-1.56,19.95,19.44,28.25,40.03.83,2.06,1.61,4.11,2.34,6.14,1.67,4.61,3.06,9.08,4.05,13.13.44,1.78.8,3.48,1.07,5.07Z"/>
          <path class="cls-6" d="m87.08,104.98c0,6.74-16,16.55-31.66,17.53-.72.04-1.47.07-2.25.07-.3.01-.6.01-.9.01-16.55-.06-45.87-7.11-50.98-13.74-1.27-1.63,1.81-20.77,7.73-42.45,3.25-11.91,7.35-24.59,12.07-35.56.27.96.43,2.22.39,3.91,0,.25,0,.51-.02.79-.21,4.32-3.04,10.43-6.37,19.18,0,.01,0,.03-.02.05-.77,2.03-1.57,4.21-2.38,6.54-2.23,6.5-4.46,14.2-6.12,23.33-.94,5.16-1.3,9.13-.98,12.18.59,5.77,3.57,8.24,9.55,9.21,4.8.78,7.85,3.45,11.18,5.83,3.02,2.15,6.27,4.05,11.25,4.07,3.14.02,6.11-7.29,10.48-11.55.95-.92,1.96-1.7,3.06-2.23.12-.06.25-.12.38-.17.17-.07.35-.14.53-.2,1.1-.37,2.27-.49,3.54-.26,9.05,1.65,13.45,16.67,23.01,11.57,9.27-4.95,5.8-16.56,6.85-21.49,1.01,6.46,1.66,11.48,1.66,13.38Z"/>
          <path class="cls-4" d="m59.16,117.87c-2.98-2.36-8.57-36.53-3.6-41.16,4.96-4.63,14.79-18.08,19.75-12.63,4.96,5.45,11.02,40.22,8.32,43.81-2.71,3.59-20.38,13.22-24.46,9.98Z"/>
          <path class="cls-3" d="m53.17,65.06c-1.27-.42-4.81-55.92-.9-56.43,3.91-.51,20.51,29.42,19.1,30.29-1.4.86-10.09-10.75-13.02-6.8-2.94,3.96-2.79,33.72-5.18,32.94Z"/>
          <path class="cls-5" d="m53.58,68c-1.65-1.03-.04-10.44,1.47-11.6s17.34-14.82,17.22-13.03c-.13,1.79-17.46,25.4-18.69,24.64Z"/>
          <path class="cls-5" d="m53.17,77.57c-.4,1.54,3.78,2.17,5.44,1.15,1.66-1.02,18.26-19.49,18-20.6-.26-1.1-23,17.79-23.44,19.45Z"/>
          <path class="cls-2" d="m49.72,67.48c-2.47-1-1.1,6.52-1.02,9.23s.39,11.4,1.99,8.4c1.6-3,3.09-15.97-.97-17.63Z"/>
          <path class="cls-2" d="m48.87,53.97c-.98,1.49-.28,6.94.8,5.98s-.27-6.8-.8-5.98Z"/>
          <path class="cls-2" d="m44.63,2.7c-1.76.5-.83,9.51,2.39,7.66,3.22-1.85,4.22-9.54-2.39-7.66Z"/>
          <path class="cls-2" d="m72.82,46.75c-2.89.87-3.22,5.44-1.36,4.02,1.86-1.42,3.26-4.59,1.36-4.02Z"/>
          <path class="cls-9" d="m33.07,68.65c-3.75.14-9.19,8.21-3.45,6.91,5.74-1.3,6.12-7.01,3.45-6.91Z"/>
          <path class="cls-9" d="m25.74,58.08c-.28,3.44,4.02,7.96,3.51,3.33-.51-4.64-3.31-5.71-3.51-3.33Z"/>
          <path class="cls-9" d="m38.31,10.93c-2.86.41-6.13,6.25-1.4,3.83,4.72-2.42,3.83-4.18,1.4-3.83Z"/>
          <path class="cls-9" d="m62.58,112.81c-4.72-1.95-.01-13.53,3.31-8.81,3.32,4.72.41,10.34-3.31,8.81Z"/>
          <path class="cls-9" d="m58.22,95.7c.69,3.29,2.43,5.87,2.75,2.94.32-2.94-3-4.15-2.75-2.94Z"/>
          <path class="cls-9" d="m75.31,68.65c-2.68.95-3.05,5.26,0,3.52,3.05-1.73,1.76-4.15,0-3.52Z"/>
          <path class="cls-14" d="m16.27,84.64c-5.99,2.41-7.49,17.49,0,12.94,7.49-4.56,3.06-14.17,0-12.94Z"/>
          <path class="cls-16" d="m15.79,73.62c.92,3.98,5.65,7.32,4.59,4.09-1.05-3.23-5.1-6.26-4.59-4.09Z"/>
          <path class="cls-17" d="m47.28,23.75c-2.83,4.43-3.13,13.98.07,9.79s.64-10.91-.07-9.79Z"/>
          <path class="cls-8" d="m47.53,23.63c-.6-.46-3.06,7.54-.89,7.59,2.17.05,3.03-5.95.89-7.59Z"/>
          <path class="cls-8" d="m15.79,73.06c-.56.8,1.9,4.38,2.73,3.5.83-.88-2.14-4.34-2.73-3.5Z"/>
          <path class="cls-8" d="m17.19,84.57c-2.94-1.16-8.62,9.08-2.18,8.93,6.45-.16,7.07-7,2.18-8.93Z"/>
          <path class="cls-12" d="m17.4,76.88c.16-.28,1.07.3,1.27,0,.19-.3-.26-1.72.26-1.39.52.33,2.31,3,1.46,3.17s-3.22-1.38-2.99-1.78Z"/>
          <path class="cls-12" d="m11.36,92.37c.32-.32.84,1.54,2.37,1.63,1.53.09,6.76-2.41,6.38-1.34-.37,1.08-4.48,7.65-7,5.67s-2.37-5.34-1.76-5.96Z"/>
          <path class="cls-12" d="m45.15,30.42c.38-.29.82,1.41,1.42,1.19.6-.21,1.99-1.81,1.96-1.04-.04.77-1.34,4.4-2.55,4.01s-1.46-3.68-.82-4.16Z"/>
        </g>
      </g>
    </g>
  </g>
</svg>