<?xml version="1.0" encoding="UTF-8"?>
<svg xmlns="http://www.w3.org/2000/svg" xmlns:xlink="http://www.w3.org/1999/xlink" viewBox="0 0 312.59 60.92">
  <defs>
    <style>
      .cls-1 {
        fill: #ff7b00;
      }

      .cls-2, .cls-3, .cls-4 {
        fill: #fff;
      }

      .cls-3, .cls-5, .cls-6 {
        opacity: .5;
      }

      .cls-3, .cls-4 {
        mix-blend-mode: soft-light;
      }

      .cls-7 {
        opacity: .1;
      }

      .cls-7, .cls-5, .cls-6, .cls-8, .cls-9, .cls-10 {
        mix-blend-mode: multiply;
      }

      .cls-7, .cls-9, .cls-10 {
        fill: #f42774;
      }

      .cls-11 {
        fill: url(#linear-gradient-2);
        mix-blend-mode: screen;
      }

      .cls-12 {
        mix-blend-mode: overlay;
      }

      .cls-12, .cls-13 {
        fill: #fff603;
      }

      .cls-14 {
        fill: url(#_Áĺçűě_ííűé_ăđŕäčĺíň_533);
      }

      .cls-15 {
        isolation: isolate;
      }

      .cls-5, .cls-8 {
        fill: #de376d;
      }

      .cls-6 {
        fill: #cf4a76;
      }

      .cls-16 {
        fill: url(#_Áĺçűě_ííűé_ăđŕäčĺíň_533-2);
      }

      .cls-8 {
        opacity: .7;
      }

      .cls-9 {
        opacity: .15;
      }

      .cls-10 {
        opacity: .2;
      }

      .cls-17 {
        fill: url(#linear-gradient);
      }
    </style>
    <linearGradient id="linear-gradient" x1="145" y1="-22.82" x2="172.58" y2="119.47" gradientUnits="userSpaceOnUse">
      <stop offset="0" stop-color="#ffcf00"/>
      <stop offset="1" stop-color="#ff9600"/>
    </linearGradient>
    <linearGradient id="linear-gradient-2" x1="-520.31" y1="-191.3" x2="593.73" y2="167.31" gradientUnits="userSpaceOnUse">
      <stop offset="0" stop-color="#fff601"/>
      <stop offset=".1" stop-color="#ece400"/>
      <stop offset=".31" stop-color="#bdb600"/>
      <stop offset=".61" stop-color="#706c00"/>
      <stop offset=".97" stop-color="#070700"/>
      <stop offset="1" stop-color="#000"/>
    </linearGradient>
    <linearGradient id="_Áĺçűě_ííűé_ăđŕäčĺíň_533" data-name="Áĺçűě˙ííűé ăđŕäčĺíň 533" x1="87.7" y1="41.83" x2="87.7" y2="35.39" gradientUnits="userSpaceOnUse">
      <stop offset=".04" stop-color="#ef6300"/>
      <stop offset="1" stop-color="#e13e00"/>
    </linearGradient>
    <linearGradient id="_Áĺçűě_ííűé_ăđŕäčĺíň_533-2" data-name="Áĺçűě˙ííűé ăđŕäčĺíň 533" x1="101.16" y1="49.1" x2="101.16" y2="44.21" xlink:href="#_Áĺçűě_ííűé_ăđŕäčĺíň_533"/>
  </defs>
  <g class="cls-15">
    <g id="Vrstva_2" data-name="Vrstva 2">
      <g id="Layer_1" data-name="Layer 1">
        <g>
          <path class="cls-1" d="m3.36,38.41c-.1-.12,7.67,10.37,11.59,12.16,3.91,1.79,188.43,12.52,200.85,9.96,12.43-2.55,94.87-16.62,96.76-19.68,1.05-1.7-18.61-15.06-18.8-14.94-.19.13-290.4,12.49-290.4,12.49Z"/>
          <path class="cls-13" d="m12.11,47.19S-2.1,34.92.26,31.41C2.63,27.89,42.9-.19,47.95,0c5.04.19,95.66,16.28,105.33,16.28S253.5,1.55,259.12,2.92s34.16,21.37,50.45,34.94c2.7,2.25-152.06,1.82-152.06,1.82L12.11,47.19Z"/>
          <g>
            <path class="cls-17" d="m311.56,40.73c-2.57,2.52-80.53,15.24-95.85,18.24-.31.06-.69.12-1.14.17-21.56,2.42-197.19-7.68-199.37-9.31-1.57-1.16-3.74-3.17-5.9-5.46,0,0,0-.01-.01-.02-2.22-2.35-4.42-4.99-5.93-7.28-.77-1.16-1.35-2.23-1.68-3.13-.32-.9-.38-1.63-.09-2.12.63-1.05,6.42-5.34,13.74-10.38,0-.01.02-.02.02-.02C27.89,12.78,44.87,1.92,47.88,1.32c4.77-.96,91.92,15.91,107.24,15.81,2.02-.01,5.25-.24,9.32-.64.02,0,.05-.01.07-.01,17.77-1.74,51.66-6.56,73.56-9.58,0-.01.02,0,.02,0,11.14-1.54,19.17-2.62,20.4-2.58.3.01.85.19,1.61.53,1.1.48,2.63,1.28,4.48,2.33,6.1,3.43,15.67,9.49,24.6,15.53,12.43,8.42,23.61,16.81,22.38,18.02Z"/>
            <path class="cls-11" d="m260.1,4.85c.05.24-.18.67-.66,1.28-2.94,3.78-15.26,14.15-27.11,23.14-10.4,7.89-20.42,14.71-23.43,15.1-1.13.14-2.92.23-5.3.26-9.3.1-27.49-.65-49.31-1.84h-.05C92.87,39.45,2.88,32.66,1.59,31.82c.63-1.05,6.42-5.34,13.74-10.38,0-.01.02-.02.02-.02C27.89,12.78,44.87,1.92,47.88,1.32c4.77-.96,91.92,15.91,107.24,15.81,2.02-.01,5.25-.24,9.32-.64.02,0,.05-.01.07-.01,17.77-1.74,51.66-6.56,73.56-9.58,0-.01.02,0,.02,0,11.14-1.54,19.17-2.62,20.4-2.58.3.01.85.19,1.61.53Z"/>
            <path class="cls-6" d="m214.57,59.14c-21.56,2.42-197.19-7.68-199.37-9.31-1.57-1.16-3.74-3.17-5.9-5.46,0,0,0-.01-.01-.02-2.22-2.35-4.42-4.99-5.93-7.28-.77-1.16-1.35-2.23-1.68-3.13,2.35.12,5.56.3,9.5.53,5.33.31,11.99.71,19.6,1.17,59.54,3.64,177.56,11.39,178.72,12.55.05.05.1.11.16.19.31.4.73,1.16,1.22,2.15,1.1,2.22,2.53,5.6,3.69,8.61Z"/>
            <path class="cls-10" d="m311.56,40.73c-2.57,2.52-80.53,15.24-95.85,18.24-2.2-4.45-3.91-10.97-1.49-14.33,3.09-4.28,37.56-30.4,50.36-37.46,14.59,8.21,49.09,31.47,46.98,33.55Z"/>
            <path class="cls-4" d="m253.54,8.23c-3.43,6.76-36,32.79-44.68,34.6-8.68,1.8-51.19-.13-53.49-2.17-1.45-1.3.16-21.58,1.16-22.6.17-.17,3.12-.75,7.91-1.57.02,0,.05-.01.07-.01,17.77-1.74,51.66-6.56,73.56-9.58,0-.01.02,0,.02,0,9.94-.69,16.37-.48,15.45,1.33Z"/>
            <path class="cls-10" d="m18.26,47.56c1.57-6.61,135.66-2.67,157.62,0,21.96,2.67,33.36,5.99,30.98,8.97-2.38,2.98-189.62-4.67-188.6-8.97Z"/>
            <path class="cls-3" d="m219.84,55.6c-.61-2.25,40.21-45.83,47.49-43.02,7.28,2.81,34.21,22.09,30.77,26.17s-77.49,19.66-78.26,16.85Z"/>
            <path class="cls-5" d="m311.56,40.73c-2.57,2.52-80.53,15.24-95.85,18.24-.31.06-.69.12-1.14.17-21.56,2.42-197.19-7.68-199.37-9.31-1.57-1.16-3.74-3.17-5.9-5.46,0,0,0-.01-.01-.02-2.22-2.35-4.42-4.99-5.93-7.28.91.56,2.02,1.44,3.32,2.48,3.04,2.42,7.14,5.65,12.25,7.34,1.52.51,3.13.87,4.83,1.04,11.61,1.15,66.61.03,84.36,2.64,12.89,1.89,32.22,4.57,47.18,5.87h0c5.65.49,10.67.78,14.49.76,1.31-.01,2.69-.1,4.15-.26h.04c7.43-.8,16.51-3.35,24.4-5.57h0c3-.85,5.83-1.65,8.32-2.28,1.04-.27,2.03-.51,2.94-.71,2.01-.44,3.69-.7,4.91-.7,7.31,0,44.8,4.92,62.95-2.39,16.1-6.49,10.5-17.07,11.66-22.58,12.43,8.42,23.61,16.81,22.38,18.02Z"/>
            <path class="cls-4" d="m18.26,28.33c-.54-1.5,23.62-23.02,34.47-23.48,10.85-.45,36.77,5.8,36,7.59-.77,1.79-42.51,4.98-48.13,7.41-5.62,2.43-21.58,10.58-22.34,8.48Z"/>
            <path class="cls-4" d="m159.33,19.85s53.62.26,56.55,2.04c2.94,1.79-1.79,11.23,3.06,9.83,4.85-1.4,33.83-21.57,28.21-21.96-5.62-.38-91.28,7.79-87.83,10.09Z"/>
            <path class="cls-12" d="m259.44,6.13c-.39.46-14.74,12.19-27.11,23.14-9.53,8.44-17.89,16.41-17.76,18.41.25,3.97.92,9.51,1.09,10.94-.22-1.28-1.22-5.74-4.78-8.09-.82-.54-1.79-.98-2.91-1.23-.27-.06-.69-.13-1.25-.21-13.81-1.92-113.6-9.01-129.39-9.5-9.07-.28-29.75-2.53-46.55-3.95-7.95-.67-15.03-1.16-19.6-1.17-3.28,0-5.26.24-5.36.83-.19,1.18.24,2.75.86,4.25,1,2.39,2.47,4.6,2.61,4.8-2.22-2.35-4.42-4.99-5.93-7.28-.77-1.16-1.35-2.23-1.68-3.13-.32-.9-.38-1.63-.09-2.12.63-1.05,6.42-5.34,13.74-10.38-.46.42-9.08,8.29-6.09,9.9,3.08,1.65,62.22,4.34,72.17,5.1,5.76.45,41.33,3.96,72.83,6.35h.05c22.95,1.75,43.72,2.9,49.26,1.85.02,0,.03-.01.05-.01,13.14-2.54,27.84-18.05,33.56-21.67,5.73-3.62,22.96-17.64,22.28-16.83Z"/>
            <path class="cls-2" d="m208.86,43.06c-2.78,2.35,2.36,12.6,5.07,8.76,2.71-3.84-1.54-11.74-5.07-8.76Z"/>
            <path class="cls-2" d="m223.18,34.42c-4.39,3.59-1.98,4.92,0,3.73s7.55-9.9,0-3.73Z"/>
            <path class="cls-2" d="m7.09,30.4c-7.27,2.29.64,6.04,11.17,4.49,10.53-1.55-6.76-5.88-11.17-4.49Z"/>
            <path class="cls-7" d="m149.84,41.11c1.18-2.44,4.26-21.52,3.23-22.03-1.02-.51-5.79-.85-6.13,0-.34.85,2.39,23.07,2.89,22.03Z"/>
            <path class="cls-9" d="m27.46,42.23c.44,4.23,6.64,10.95,6.89,4.49s-7.06-6.11-6.89-4.49Z"/>
            <path class="cls-9" d="m40.39,40.11c-2.62,2.49-5.02,4.09-1.62,2.64,3.4-1.45,2.89-3.85,1.62-2.64Z"/>
            <path class="cls-9" d="m145.16,50.57c-2.04.69-3.23,3.02-.6,2.11,2.64-.91,2.64-2.79.6-2.11Z"/>
            <path class="cls-9" d="m238.35,29.86c-3.09,3.62,2.3,10.55,4.21,6.33,1.91-4.21-2.3-8.58-4.21-6.33Z"/>
            <path class="cls-9" d="m249.58,27.26c-2.46,2.4-3.57,3.61,0,3.14,3.57-.46,1.68-4.79,0-3.14Z"/>
            <path class="cls-9" d="m283.31,36.45c-1.39,5.25,5.88,7.04,6.7,3.33.82-3.71-5.78-6.78-6.7-3.33Z"/>
            <path class="cls-9" d="m224.69,52.89c-2.28.48-3.7-8.64-1.53-6.16,2.17,2.48,4.09,5.61,1.53,6.16Z"/>
            <path class="cls-9" d="m135.33,35.4c-1.87,2.86,5.36,1.1,3.19-.46-2.17-1.56-2.43-.72-3.19.46Z"/>
            <path class="cls-9" d="m84.52,12.45c-1.38,2.84,3.61,7.47,4.23,4.31.62-3.16-3.63-5.54-4.23-4.31Z"/>
            <path class="cls-9" d="m80.18,17.81c-3.16,2.17-4.34,4.46-.89,3,3.45-1.47,2.46-4.07.89-3Z"/>
            <path class="cls-14" d="m90.61,35.51c-9.19-.95-16.68,4.31-7.57,6.03,9.11,1.72,20.68-4.67,7.57-6.03Z"/>
            <path class="cls-16" d="m101.99,44.39c-4.4,1.36-6.13,5.69-1.28,4.51,4.85-1.19,4.85-5.61,1.28-4.51Z"/>
            <path class="cls-8" d="m79.82,37.63c-.88.64,1.9,2.69,8.79,1.84,6.89-.85,8.17-1.87,7.03-2.7-1.14-.83-9.82-3.51-15.82.86Z"/>
            <path class="cls-8" d="m98.43,46.65c-.12.84,4.11,1.09,5.09.14s1.72-2.71-.21-2.58c-1.94.13-4.58.3-4.88,2.44Z"/>
            <path class="cls-12" d="m78.9,39.46c-.47-.58.64-.73,1.01-.54.37.19,3.01,2.01,6,1.26,2.99-.75,10.02-2.2,9.93-1.35-.1.84-7.85,4.17-11.92,3-4.07-1.17-4.19-1.34-5.02-2.36Z"/>
            <path class="cls-12" d="m98.02,47.28c.45.09.65.36,1.49.47.85.11,4.43-1.01,3.83-.34-.6.67-3.3,2.48-4.69,1.63-1.39-.84-.86-1.81-.63-1.76Z"/>
          </g>
        </g>
      </g>
    </g>
  </g>
</svg>