<?xml version="1.0" encoding="UTF-8"?>
<svg xmlns="http://www.w3.org/2000/svg" xmlns:xlink="http://www.w3.org/1999/xlink" viewBox="0 0 102.25 91.19">
  <defs>
    <style>
      .cls-1 {
        fill: #ff7b00;
      }

      .cls-2, .cls-3, .cls-4, .cls-5 {
        fill: #fff;
      }

      .cls-3, .cls-6, .cls-7 {
        opacity: .5;
      }

      .cls-3, .cls-4, .cls-5 {
        mix-blend-mode: soft-light;
      }

      .cls-8 {
        opacity: .1;
      }

      .cls-8, .cls-6, .cls-7, .cls-9, .cls-10 {
        mix-blend-mode: multiply;
      }

      .cls-8, .cls-10 {
        fill: #f42774;
      }

      .cls-11 {
        fill: url(#linear-gradient-2);
        mix-blend-mode: screen;
      }

      .cls-12 {
        mix-blend-mode: overlay;
      }

      .cls-12, .cls-13 {
        fill: #fff603;
      }

      .cls-14 {
        fill: url(#_Áĺçűě_ííűé_ăđŕäčĺíň_533);
      }

      .cls-15 {
        isolation: isolate;
      }

      .cls-6, .cls-9 {
        fill: #de376d;
      }

      .cls-7 {
        fill: #cf4a76;
      }

      .cls-16 {
        fill: url(#_Áĺçűě_ííűé_ăđŕäčĺíň_533-2);
      }

      .cls-5 {
        opacity: .4;
      }

      .cls-9 {
        opacity: .7;
      }

      .cls-10 {
        opacity: .2;
      }

      .cls-17 {
        fill: url(#_Áĺçűě_ííűé_ăđŕäčĺíň_533-3);
      }

      .cls-18 {
        fill: url(#linear-gradient);
      }
    </style>
    <linearGradient id="linear-gradient" x1="69.9" y1="6.92" x2="35.42" y2="82.23" gradientUnits="userSpaceOnUse">
      <stop offset="0" stop-color="#ffcf00"/>
      <stop offset="1" stop-color="#ff9600"/>
    </linearGradient>
    <linearGradient id="linear-gradient-2" x1="84.68" y1="-29.04" x2="40.4" y2="75.42" gradientUnits="userSpaceOnUse">
      <stop offset="0" stop-color="#fff601"/>
      <stop offset=".1" stop-color="#ece400"/>
      <stop offset=".31" stop-color="#bdb600"/>
      <stop offset=".61" stop-color="#706c00"/>
      <stop offset=".97" stop-color="#070700"/>
      <stop offset="1" stop-color="#000"/>
    </linearGradient>
    <linearGradient id="_Áĺçűě_ííűé_ăđŕäčĺíň_533" data-name="Áĺçűě˙ííűé ăđŕäčĺíň 533" x1="55.07" y1="78.87" x2="55.07" y2="66.84" gradientUnits="userSpaceOnUse">
      <stop offset=".04" stop-color="#ef6300"/>
      <stop offset="1" stop-color="#e13e00"/>
    </linearGradient>
    <linearGradient id="_Áĺçűě_ííűé_ăđŕäčĺíň_533-2" data-name="Áĺçűě˙ííűé ăđŕäčĺíň 533" x1="23.05" y1="38.82" x2="23.05" y2="31.81" xlink:href="#_Áĺçűě_ííűé_ăđŕäčĺíň_533"/>
    <linearGradient id="_Áĺçűě_ííűé_ăđŕäčĺíň_533-3" data-name="Áĺçűě˙ííűé ăđŕäčĺíň 533" x1="25.02" y1="27.06" x2="25.02" y2="23.29" xlink:href="#_Áĺçűě_ííűé_ăđŕäčĺíň_533"/>
  </defs>
  <g class="cls-15">
    <g id="Vrstva_2" data-name="Vrstva 2">
      <g id="Layer_1" data-name="Layer 1">
        <g>
          <path class="cls-1" d="m.02,33.8c.61,4.65,1.89,13.12,16.44,29.96,10.68,12.37,27.11,28.05,32.43,27.41,5.31-.64,45.53-15.21,52.19-25.62C106.36,57.3.02,33.8.02,33.8Z"/>
          <path class="cls-13" d="m.02,33.8s4.2-8.67,23.72-21.01S45.4-.15,46.76.02s32.06,9.74,42.21,21.39c6.17,7.08,13.23,36.17,13.28,42.35.03,4.29-13.34,8.56-13.34,8.56L.02,33.8Z"/>
          <path class="cls-18" d="m101.09,65.1c-.14.29-.33.6-.58.92-5.84,7.61-40.84,22.06-51.11,23.28-.23.03-.44.05-.65.06-.19.01-.37.02-.54.02-.84,0-2.3-.64-4.21-1.8-10.52-6.45-34.54-29-42.09-47.65-.67-1.66-1.22-3.3-1.61-4.89-.11-.42-.2-.83-.28-1.25-.18-.94,1.18-2.69,3.55-4.91C12.98,20.09,38.25,3.91,44.97,1.85c.46-.14.85-.22,1.12-.22,9.41,0,36.82,14.2,42.01,20.41.1.11.19.24.29.37,4.02,5.34,10.71,24.36,12.57,35.37.58,3.43.69,6.09.11,7.31Z"/>
          <path class="cls-11" d="m88.4,22.41c-1.93,8.48-9.67,35.29-10.35,36.04-.81.91-49-15.84-50.73-22.13-.89-3.24,11.36-25.49,17.65-34.48.46-.14.85-.22,1.12-.22,9.41,0,36.82,14.2,42.01,20.41.1.11.19.24.29.37Z"/>
          <g>
            <path class="cls-12" d="m49.5,85.46c.08-.14.18-.33.29-.58-.41.73-.54.99-.29.58Z"/>
            <path class="cls-12" d="m101.34,64.28c-1.01.12-9.98.42-11.28,0-1.3-.42-8.44-2.38-8.76-5.02-.32-2.64,6.78-35.46,6.78-35.46,0,0-5.91,25.9-10.89,31.96-2.52,3.07-19.95-4.33-23.74-5.5-7.62-2.35-25.25-11.59-24.5-16.45s14.1-29.07,14.1-29.07c-.18.27-12.29,20.25-18.13,29.26-3.81,5.88-23.01-.19-23.01-.19,0,0,2.87,2.25,23.9,4.31,3.43.34,10.87,8.4,18.9,10.97,3.35,1.07,12.83,3.73,14.2,5.37.48.57-6.91,25.56-9.11,30.44.6-1.07,1.79-3.16,3.28-5.71,1.42,0,2.49-1.28,3.46-2.33.97-1.05,4.31-10.57,4.32-10.6,2.77-4.39,5.11-7.77,5.73-7.75,1.84.07,8,.07,9.52.61s11.68,6.87,14.28,7.38c2.6.51,11.96-2.33,10.96-2.21Z"/>
          </g>
          <path class="cls-7" d="m48.74,89.37c-.19.01-.37.02-.54.02-5.9.04-42.35-31.73-47.9-54.34,7.19,1.14,24.39,3.96,26.98,5.24,3.29,1.62,5.22,4.36,10.95,7.68,4.6,2.67,16.4,3.82,18.73,6.47,3.57,4.05-4,23.95-8.22,34.93Z"/>
          <path class="cls-10" d="m100.5,66.02c-5.84,7.61-40.84,22.06-51.11,23.28,2.88-6.7,13.34-28.93,19.47-29.66,7.3-.86,13.78,4.72,20.71,7.46,2.83,1.12,6.59.08,10.93-1.09Z"/>
          <path class="cls-6" d="m101.09,65.1c-.14.29-.33.6-.58.92-5.84,7.61-40.84,22.06-51.11,23.28-.23.03-.44.05-.65.06-.19.01-.37.02-.54.02-5.9.04-42.35-31.73-47.9-54.34-.11-.42-.2-.83-.28-1.25-.18-.94,1.18-2.69,3.55-4.91-.51,1.49-.86,3.49-.79,6.15.22,7.36,13.41,26.74,20.66,33.19,7.24,6.44,20.12,10.32,27.58,13.46,7.47,3.15,11.31,3.23,20.23,0,8.92-3.23,16.71-8.75,21.74-11.88,4.77-2.97,5.45-6.21,8-12.03.58,3.43.69,6.09.11,7.31Z"/>
          <path class="cls-10" d="m43.99,87.58c-10.52-6.45-34.54-29-42.09-47.65,14.18,2.65,46.59,9.64,49.75,18.69,2.62,7.48-3.18,20.57-7.66,28.96Z"/>
          <path class="cls-4" d="m46.04,4.73c-1.99.94,20.87,43.63,26.71,40.46,5.84-3.17,14.49-20.13,12.65-22.14-1.84-2.01-33.96-20.89-39.37-18.32Z"/>
          <path class="cls-5" d="m54.04,85.65c-1.6-3.67,4.19-14.05,11.75-16.67,7.56-2.63,26.13,1.51,24.21,2.74-1.92,1.23-34.51,17.25-35.96,13.94Z"/>
          <path class="cls-8" d="m30.03,35.03c-.76-1.12,14.17-29.47,16.12-29.74,1.95-.27,1.19,9.93.65,12.41s-14.6,20.51-16.77,17.33Z"/>
          <path class="cls-3" d="m1.37,32.66c1.61.62,15.47,3.79,19.04.46,3.57-3.33,16.55-24.03,14.28-24.9C32.41,7.34.27,32.24,1.37,32.66Z"/>
          <path class="cls-8" d="m90.13,30.89c1.94-.76,11.84,31.18,10.37,31.33-1.47.15-3.67-1.45-5.11-2.96s-7.52-27.48-5.26-28.37Z"/>
          <path class="cls-14" d="m52.71,78.69c-1.4-.62-1.78-8.62,1.06-10.57,2.84-1.95,4.38-1.43,4.7,0s-2,12.25-5.76,10.57Z"/>
          <path class="cls-16" d="m19.87,33.06c-1.22,2.17,6.14,7.69,6.46,5.07s-4.26-9-6.46-5.07Z"/>
          <path class="cls-17" d="m24.75,23.52c-1.98,1.1-.18,4.65.74,3.19s1.17-4.25-.74-3.19Z"/>
          <path class="cls-9" d="m54.47,67.67c-.7.45-3.54,2.23-1.75,5.59,1.78,3.37,4.62,1.32,5.12-.92.49-2.24,1.56-5.04,0-5.23-1.56-.19-2.66.11-3.36.56Z"/>
          <path class="cls-12" d="m52.05,73.42c.2-.13,1.15,2.26,2.19,2.08,1.04-.18,2.49-.59,2.35,0-.14.6-1.35,3.37-3.08,2.95s-2.6-4.31-1.46-5.04Z"/>
          <path class="cls-9" d="m19.74,33.55c-.12.78,2.12,4.6,3.79,2.84,1.68-1.75.99-2.87,0-3.74-1.35-1.19-3.52-.97-3.79.9Z"/>
          <path class="cls-9" d="m24.75,23.52c-.74.38-1.16,1.02-.68,1.65.47.63,1.67.76,2.03,0,.35-.76.01-2.36-1.34-1.65Z"/>
          <path class="cls-12" d="m23.87,25.43c.14-.19.82.55,1.15.49.32-.06.78-.41.8-.16.02.25-.33,1.47-.8,1.29s-1.34-1.37-1.15-1.62Z"/>
          <path class="cls-12" d="m22.76,37.14c1.02-.27,1.4-.26,1.64-.74.25-.48-.04-2.02.49-1.72s2.05,3.42,1.34,3.78-3.98-1.19-3.47-1.32Z"/>
          <path class="cls-2" d="m60.42,53.32c-1.22,1.44-3.36,7.62.59,8.22,3.96.6,8.59-4.7,6.98-5.73s-6-4.33-7.57-2.49Z"/>
          <path class="cls-2" d="m86.76,28.17c-1.63,1.94-2.25,11.74-1.1,9.36,1.15-2.38,2.24-10.71,1.1-9.36Z"/>
          <path class="cls-2" d="m87.53,26.15c-1.05-1.26-1.32-2.91,0-2.41,1.32.51.3,2.77,0,2.41Z"/>
        </g>
      </g>
    </g>
  </g>
</svg>