<?xml version="1.0" encoding="UTF-8"?>
<svg xmlns="http://www.w3.org/2000/svg" xmlns:xlink="http://www.w3.org/1999/xlink" viewBox="0 0 88.52 149.27">
  <defs>
    <style>
      .cls-1 {
        fill: #ff7b00;
      }

      .cls-2, .cls-3, .cls-4, .cls-5 {
        fill: #fff;
      }

      .cls-3, .cls-6, .cls-7 {
        opacity: .5;
      }

      .cls-3, .cls-4, .cls-5 {
        mix-blend-mode: soft-light;
      }

      .cls-8 {
        opacity: .1;
      }

      .cls-8, .cls-6, .cls-7, .cls-9, .cls-10, .cls-11 {
        mix-blend-mode: multiply;
      }

      .cls-8, .cls-10, .cls-11 {
        fill: #f42774;
      }

      .cls-12 {
        fill: url(#linear-gradient-2);
        mix-blend-mode: screen;
      }

      .cls-13 {
        mix-blend-mode: overlay;
      }

      .cls-13, .cls-14 {
        fill: #fff603;
      }

      .cls-15 {
        fill: url(#_Áĺçűě_ííűé_ăđŕäčĺíň_533);
      }

      .cls-16 {
        isolation: isolate;
      }

      .cls-6, .cls-9 {
        fill: #de376d;
      }

      .cls-7 {
        fill: #cf4a76;
      }

      .cls-17 {
        fill: url(#_Áĺçűě_ííűé_ăđŕäčĺíň_533-2);
      }

      .cls-5 {
        opacity: .4;
      }

      .cls-9 {
        opacity: .7;
      }

      .cls-10 {
        opacity: .15;
      }

      .cls-11 {
        opacity: .2;
      }

      .cls-18 {
        fill: url(#_Áĺçűě_ííűé_ăđŕäčĺíň_533-3);
      }

      .cls-19 {
        fill: url(#linear-gradient);
      }
    </style>
    <linearGradient id="linear-gradient" x1="39.05" y1="-.21" x2="47.49" y2="162.35" gradientUnits="userSpaceOnUse">
      <stop offset="0" stop-color="#ffcf00"/>
      <stop offset="1" stop-color="#ff9600"/>
    </linearGradient>
    <linearGradient id="linear-gradient-2" x1="22.56" y1="221.09" x2="39.97" y2="-40.91" gradientUnits="userSpaceOnUse">
      <stop offset="0" stop-color="#fff601"/>
      <stop offset=".1" stop-color="#ece400"/>
      <stop offset=".31" stop-color="#bdb600"/>
      <stop offset=".61" stop-color="#706c00"/>
      <stop offset=".97" stop-color="#070700"/>
      <stop offset="1" stop-color="#000"/>
    </linearGradient>
    <linearGradient id="_Áĺçűě_ííűé_ăđŕäčĺíň_533" data-name="Áĺçűě˙ííűé ăđŕäčĺíň 533" x1="13.6" y1="119.19" x2="13.6" y2="115.2" gradientUnits="userSpaceOnUse">
      <stop offset=".04" stop-color="#ef6300"/>
      <stop offset="1" stop-color="#e13e00"/>
    </linearGradient>
    <linearGradient id="_Áĺçűě_ííűé_ăđŕäčĺíň_533-2" data-name="Áĺçűě˙ííűé ăđŕäčĺíň 533" x1="19.71" y1="114.92" x2="19.71" y2="111.9" xlink:href="#_Áĺçűě_ííűé_ăđŕäčĺíň_533"/>
    <linearGradient id="_Áĺçűě_ííűé_ăđŕäčĺíň_533-3" data-name="Áĺçűě˙ííűé ăđŕäčĺíň 533" x1="48.33" y1="64.26" x2="48.33" y2="54.64" xlink:href="#_Áĺçűě_ííűé_ăđŕäčĺíň_533"/>
  </defs>
  <g class="cls-16">
    <g id="Vrstva_2" data-name="Vrstva 2">
      <g id="Layer_1" data-name="Layer 1">
        <g>
          <path class="cls-1" d="m1.03,115.03s10.57,30.23,15.64,32.27,30.05,2.3,32.6,1.66c2.55-.64,28.17-14.52,29.45-16.81,1.28-2.29,10.86-34.84,9.7-38.51-1.13-3.58-30.26-64.28-32.09-69.26-1.83-4.98-8.01-19.64-8.01-19.64L1.03,115.03Z"/>
          <path class="cls-14" d="m10.52,134.38S.09,114.53,0,111.9c-.09-2.64,13.19-64.18,14.3-67.41S43.94-2.91,46.57.15c2.63,3.06,8.54,23.88,8.54,23.88L10.52,134.38Z"/>
          <path class="cls-19" d="m77.87,131.81c-1.78,2.27-22.45,15.24-29.15,16.49-.34.06-.64.1-.9.1-18.64.08-30.29.63-32.91-3.75-2.1-3.53-6.15-12.56-9.3-20.31-1.47-3.61-2.74-6.95-3.53-9.31-.2-.6-.37-1.13-.5-1.6-.15-.51-.23-.9-.23-1.14,0-3.71,6.96-33.62,13.57-65.45,1.18-5.66,20.15-32.78,28.01-42.25,1.71-2.05,2.89-3.27,3.25-3.27.07,0,.15.03.23.09.4.28.94,1.22,1.56,2.56.52,1.14,1.11,2.58,1.71,4.15,2.33,6.12,4.91,14.39,5.41,15.91.05.16.23.58.51,1.22.14.33.31.72.51,1.16,2.84,6.33,11,23.84,18.27,39.39,6.39,13.66,12.08,25.8,12.88,27.53.13.29.21.72.24,1.28.34,7.24-7.9,34.98-9.64,37.2Z"/>
          <path class="cls-12" d="m59.24,97.01c-.72,5.82-10.91,26.11-14.8,27.85-2.99,1.33-28.83-6.85-40.71-10.73-.04-.02-.09-.03-.13-.04,0,0-.02,0-.02-.01h0c-.71-.24-1.38-.45-1.98-.65-.15-.51-.23-.9-.23-1.14,0-3.71,6.96-33.62,13.57-65.45,1.18-5.66,20.15-32.78,28.01-42.25,1.71-2.05,2.89-3.27,3.25-3.27.07,0,.15.03.23.09.13,1.84.12,4.74.03,8.18-.34,12.16-1.78,31.04-2.01,33.39-.25,2.5,8.88,28.94,12.93,44.12,0,.01,0,.02.01.02,1.27,4.76,2.04,8.42,1.86,9.87Z"/>
          <path class="cls-7" d="m55.61,25.25c-3.29,7.7-8.79,18.58-10.09,18.03-1.4-.59.85-23.88,2.08-35.75.14-1.35.27-2.56.38-3.56.52,1.14,1.11,2.58,1.71,4.15,2.33,6.12,4.91,14.39,5.41,15.91.05.16.23.58.51,1.22Z"/>
          <path class="cls-11" d="m87.51,94.61c-6.47,1.71-24.15,1.86-26.58,1.26-2.94-.72-14.61-48.71-14.46-51.44.05-.9,5.38-11.54,9.66-18.02,5.33,11.89,29.45,63.22,31.15,66.92.13.29.21.72.24,1.28Z"/>
          <path class="cls-7" d="m48.72,148.3c-.34.06-.64.1-.9.1-9.59.04-17.33.21-22.94-.24-5.3-.42-8.7-1.39-9.97-3.52-2.45-4.12-7.57-15.73-10.79-24.06-.83-2.14-1.53-4.05-2.04-5.57,9.74,1,41.46,10.78,42.36,11.91,1.38,1.73,3.67,15.5,4.28,21.36Z"/>
          <path class="cls-4" d="m4.58,111.19c-.76-2.3,7.86-63.62,13.4-62.37,5.54,1.25,37.41,41.59,37.64,45.44.23,3.85-9.95,28.17-13.53,27.89-3.57-.28-36.61-8.24-37.51-10.96Z"/>
          <path class="cls-11" d="m17.93,145.62c-3.05-1.09-13.93-27.81-11.52-27.91,2.41-.09,42.86,26.17,40.05,28.44-2.81,2.27-21.43,2.01-28.53-.54Z"/>
          <path class="cls-8" d="m46.46,41.4c-.4.63-.86-7.59-.41-8.48.76-1.52,8.45-8.35,8.44-7.49,0,1.98-5.7,12.33-8.04,15.98Z"/>
          <path class="cls-8" d="m61.82,94c-.84-.12-9.59-26.25-9.73-38.12-.03-2.63,11.12-9.14,12.15-8.59,2.06,1.12,21.43,44.47,20.27,45.63-1.16,1.16-20.36,1.41-22.68,1.07Z"/>
          <path class="cls-8" d="m50.35,146.34c-.79-.76-4.42-20.6-2.64-21.33,1.79-.73,29.11,2.93,28.49,5.25-.63,2.32-24.65,17.24-25.85,16.07Z"/>
          <path class="cls-4" d="m8.55,110.13c-2.63-.26,6.03-56.87,11.65-54.83s35.77,36.76,32.95,38.96c-2.81,2.2-22.77-12.73-31.08-7.94-8.31,4.78-9.54,24.21-13.53,23.81Z"/>
          <path class="cls-4" d="m20.87,41.44c-1.79-1.3,23.29-36.71,23.57-35.52.28,1.19-3.79,32.96-3.79,37.08s-15.2,1.75-19.78-1.56Z"/>
          <path class="cls-13" d="m76.21,98.2c-2.22.45-14.45-2.39-15.64-1.43-1.19.97-5.18,12.32-6.07,14.65-.89,2.32-6.96,9.06-7.9,11.48-.93,2.41,2.36,22.37,2.12,23.51-.24,1.13-1.64-14.34-5.12-18.28-3.39-3.86-37.29-13.13-39.88-13.98-.06-.02-.1-.03-.13-.04-.02,0-.03-.01-.03-.01h0c.29,0,35.04,8.94,40.12,8.77,5.18-.18,14.29-25.5,14.47-27.59.18-2.1-13.22-46.19-14.38-48.58-1.16-2.39,2.74-40.9,2.09-41.61-.33-.36-1.59-.49-2.93-.47,1.71-2.05,2.89-3.27,3.25-3.27.07,0,.15.03.23.09.4.28.94,1.22,1.56,2.56.52,1.14,1.11,2.58,1.71,4.15-.91-1.55-1.7-2.09-2.3-2.24-.36-.09-.73,2.3-.95,3.72-1.02,6.74-1.75,27.6-1.37,34.08.36,6.09,7.3,30.59,12.29,43.44,0,.01,0,.02.01.02,1.46,3.75,2.57,6.36,3.01,7,1.97,2.81,23.01,1.2,25.36.84,2.36-.36-7.32,2.76-9.54,3.21Z"/>
          <path class="cls-6" d="m77.87,131.81c-1.78,2.27-22.45,15.24-29.15,16.49-.34.06-.64.1-.9.1-18.64.08-30.29.63-32.91-3.75-2.1-3.53-6.15-12.56-9.3-20.31,4.19,6.68,10.36,16.36,13.25,18.78,4.48,3.75,11.33,3.43,13.8,1.79,2.48-1.64,6.96-10.52,14.79-13.84,7.84-3.31,24.14,4.11,28.1-1.56,3.95-5.68,10.93-28.63,10.56-31.57-.37-2.94-12.9-29.44-11.72-32.14,6.39,13.66,12.08,25.8,12.88,27.53.13.29.21.72.24,1.28.34,7.24-7.9,34.98-9.64,37.2Z"/>
          <path class="cls-11" d="m25.41,146.46c-.16.6-.34,1.18-.52,1.71-5.3-.42-8.7-1.39-9.97-3.52-2.45-4.12-7.57-15.73-10.79-24.06,6.53,6.19,22.28,22.03,21.29,25.87Z"/>
          <path class="cls-8" d="m56.33,95.84c-.43-3.24-17.37,16.99-17.37,19.19s4.28,7.73,6.3,6.39,11.43-22.91,11.07-25.59Z"/>
          <path class="cls-5" d="m51.55,143.57c-2.58-1.23,7.68-41.53,11.16-43.22,3.48-1.7,19.47-3.48,19.91.98.45,4.47-9.02,30.38-12.5,33.05-3.48,2.67-16.52,10.17-18.58,9.19Z"/>
          <path class="cls-3" d="m20.78,60.31c-1.39,2.6,14.4,57.7,17.37,58.34,2.97.64,16.98-18.63,16.01-22.12-.97-3.49-31.47-39.82-33.38-36.22Z"/>
          <path class="cls-10" d="m59.27,123.92c-2.7,1.3-1.02,12.22,1.39,8.79s.83-9.86-1.39-8.79Z"/>
          <path class="cls-10" d="m59.88,116.12c-.26,3.91,4.8,7.08,3.6,3.55-1.21-3.53-3.44-5.86-3.6-3.55Z"/>
          <path class="cls-10" d="m76.21,85.85c-2.69,2.44-5.5,5.54-1.35,3.72,4.15-1.82,1.35-3.72,1.35-3.72Z"/>
          <path class="cls-10" d="m66.89,82.6c.73,2.74,5.42,2.2,4.08.73-1.34-1.47-4.82-3.47-4.08-.73Z"/>
          <path class="cls-10" d="m72.75,76.64c-.91,2.44-1.97,5.86,0,3.8s.53-5.21,0-3.8Z"/>
          <path class="cls-10" d="m51.14,47.26c-.63,3.55,4.36,10.75,5.2,7.13.84-3.62-4.67-10.11-5.2-7.13Z"/>
          <path class="cls-10" d="m37.46,65.17c-4.46,1.1-7.78,7.81-3.43,6.35s6.03-6.99,3.43-6.35Z"/>
          <path class="cls-10" d="m33.47,58.46c.65,2.74,1.47,4.51,1.87,2.84.41-1.68-2.23-4.34-1.87-2.84Z"/>
          <path class="cls-2" d="m45.39,130.08c-2.55-.76-5.07-6.61-2.01-6.28,3.06.33,4.49,7.02,2.01,6.28Z"/>
          <path class="cls-2" d="m59.71,94.14c-2.24-.11-4.5,7.63-2.31,6.83,2.19-.8,4.06-6.74,2.31-6.83Z"/>
          <path class="cls-2" d="m56.34,86.82c-.05,1.96,1.78,6.84,2.12,5.36.34-1.49-2.09-6.24-2.12-5.36Z"/>
          <path class="cls-2" d="m44.14,40.82c-1.27,1.13-.62,7.46.94,7.41,1.56-.04.22-8.44-.94-7.41Z"/>
          <path class="cls-15" d="m12.52,115.2c-3.73,0-1.79,3.9,1.96,3.98s2.4-3.99-1.96-3.98Z"/>
          <path class="cls-17" d="m19.85,111.91c-2.26.27-2.68,4.06,0,2.72,2.68-1.34,1.47-2.9,0-2.72Z"/>
          <path class="cls-18" d="m46.57,54.71c-1.36.94.43,12.25,3.15,8.94,2.72-3.3-1.93-9.79-3.15-8.94Z"/>
          <path class="cls-9" d="m46.57,54.71c-.84.21-.42,7.41,1.97,5.55,2.39-1.86.11-6.07-1.97-5.55Z"/>
          <path class="cls-9" d="m19.55,111.97c-.98.17-2.49,2.81,0,2.01,2.49-.8,2.19-2.39,0-2.01Z"/>
          <path class="cls-9" d="m10.71,115.84c-.34.53,1.49,1.7,3.31,1.88,1.83.18,2.9.33,2.36-.81-.54-1.14-4.53-2.86-5.67-1.07Z"/>
          <path class="cls-13" d="m10.53,116.57c.26-.17,1.35,1.13,2.7,1.27,1.35.14,3.38-.27,3.29.21-.08.48-1.23,1.82-3.69.83-2.46-.99-2.58-2.14-2.31-2.31Z"/>
          <path class="cls-13" d="m17.99,114.06c.3-.09.15.19.64.23.49.04,3-1.56,2.68-.88-.32.68-1.66,1.79-2.68,1.51-1.03-.27-.64-.86-.64-.86Z"/>
          <path class="cls-13" d="m46.72,60.42c.48-.12.97.52,1.44.41,1.14-.26,1.51-3.05,2.1-1.89.59,1.16.13,5.74-1.48,5.31-1.49-.4-2.32-3.77-2.06-3.83Z"/>
        </g>
      </g>
    </g>
  </g>
</svg>