<?xml version="1.0" encoding="UTF-8"?>
<svg xmlns="http://www.w3.org/2000/svg" xmlns:xlink="http://www.w3.org/1999/xlink" viewBox="0 0 262.15 80.12">
  <defs>
    <style>
      .cls-1 {
        fill: #ff7b00;
      }

      .cls-2, .cls-3, .cls-4 {
        fill: #fff;
      }

      .cls-3, .cls-5, .cls-6 {
        opacity: .5;
      }

      .cls-3, .cls-4 {
        mix-blend-mode: soft-light;
      }

      .cls-7 {
        opacity: .1;
      }

      .cls-7, .cls-5, .cls-6, .cls-8, .cls-9, .cls-10 {
        mix-blend-mode: multiply;
      }

      .cls-7, .cls-9, .cls-10 {
        fill: #f42774;
      }

      .cls-11 {
        fill: url(#linear-gradient-2);
        mix-blend-mode: screen;
      }

      .cls-12 {
        mix-blend-mode: overlay;
      }

      .cls-12, .cls-13 {
        fill: #fff603;
      }

      .cls-14 {
        fill: url(#_Áĺçűě_ííűé_ăđŕäčĺíň_533);
      }

      .cls-15 {
        isolation: isolate;
      }

      .cls-5, .cls-8 {
        fill: #de376d;
      }

      .cls-6 {
        fill: #cf4a76;
      }

      .cls-8 {
        opacity: .7;
      }

      .cls-9 {
        opacity: .15;
      }

      .cls-10 {
        opacity: .2;
      }

      .cls-16 {
        fill: url(#linear-gradient);
      }
    </style>
    <linearGradient id="linear-gradient" x1="100.35" y1="-60.75" x2="148.96" y2="84.2" gradientUnits="userSpaceOnUse">
      <stop offset="0" stop-color="#ffcf00"/>
      <stop offset="1" stop-color="#ff9600"/>
    </linearGradient>
    <linearGradient id="linear-gradient-2" x1="15.17" y1="-234.93" x2="176.9" y2="173.39" gradientUnits="userSpaceOnUse">
      <stop offset="0" stop-color="#fff601"/>
      <stop offset=".1" stop-color="#ece400"/>
      <stop offset=".31" stop-color="#bdb600"/>
      <stop offset=".61" stop-color="#706c00"/>
      <stop offset=".97" stop-color="#070700"/>
      <stop offset="1" stop-color="#000"/>
    </linearGradient>
    <linearGradient id="_Áĺçűě_ííűé_ăđŕäčĺíň_533" data-name="Áĺçűě˙ííűé ăđŕäčĺíň 533" x1="77.38" y1="50.44" x2="77.38" y2="43.02" gradientUnits="userSpaceOnUse">
      <stop offset=".04" stop-color="#ef6300"/>
      <stop offset="1" stop-color="#e13e00"/>
    </linearGradient>
  </defs>
  <g class="cls-15">
    <g id="Vrstva_2" data-name="Vrstva 2">
      <g id="Layer_1" data-name="Layer 1">
        <g>
          <path class="cls-1" d="m2.74,38.34s9.22,19.79,15.47,22.19c8.52,3.27,89.89,20.4,111.91,19.56,13.23-.51,31.58-4.99,60.47-8.76,28.82-3.76,49.75-6.26,57.25-10.7,2.54-1.5,14.8-30.74,14.3-31.97-.5-1.23-259.4,9.68-259.4,9.68Z"/>
          <path class="cls-13" d="m262.14,28.66c-.18.74-.89,2.41-1.87,4.52h0c-3.03,6.52-8.59,17.14-8.59,17.37.03.23-240.2.51-240.2.51-.03-.03-.04-.05-.05-.07-.86-1.1-12.83-16.52-11.28-20.5,1.21-3.14,33.22-18.74,50.24-26.34C55.83,1.74,59.74.13,60.62.02c.55-.07,4.63.04,11.2.28,36.59,1.4,150.34,7.12,159.32,10.25,10.6,3.68,31.69,15.14,31,18.11Z"/>
          <path class="cls-16" d="m259.33,36.16c-2.85,8.21-8.91,20.85-13.12,24.1-5.56,4.3-91.36,14.49-111.74,17.74-1.47.23-2.59.42-3.33.58-.09.01-.19.04-.3.05-1.2.2-3.11.22-5.6.07-20.95-1.16-82.78-13.1-101.93-17.86-1.13-.27-2.11-.53-2.92-.75-.42-.12-.78-.23-1.1-.32-.24-.08-.53-.23-.85-.47-.07-.05-.15-.11-.23-.18-3.56-2.8-10.93-13.68-14.65-21.03-.15-.3-.3-.58-.43-.86-.13-.28-.26-.55-.39-.82-.08-.22-.17-.43-.27-.63-.54-1.23-.92-2.28-1.06-3.07-.11-.55-.12-.97,0-1.25.38-.9,4.54-3.5,10.5-6.81.04-.03.07-.04.08-.05.03-.01.04-.03.04-.03,11.42-6.36,29.38-15.28,40.17-19.82,4-1.68,7-2.76,8.35-2.9.16-.01.39-.03.69-.01.08,0,.17,0,.28-.01.24-.01.55-.01.92-.01.54,0,1.2,0,1.98.01,1.27.03,2.8.05,4.58.11,28.8.73,121.22,5.05,151.91,8.54.26.03.51.05.75.09,4.83.57,8.01,1.12,8.96,1.62.54.28,1.14.59,1.8.93.11.05.23.11.34.16,1.29.67,2.79,1.4,4.4,2.2.71.35,1.44.71,2.18,1.08.05.03.12.05.18.08,9.24,4.57,20.7,10.32,21.36,12.59.27.92-.36,3.56-1.55,6.96Z"/>
          <path class="cls-11" d="m232.76,13.25c-3.57,3.99-32.83,16.25-59.49,25.48-3.3,1.14-6.57,2.24-9.74,3.26-.08.04-.16.07-.24.08-13.94,4.51-26.03,7.69-31.69,7.69-6.06,0-43.5-2.8-73.35-5.44-1.36-.11-2.71-.23-4.03-.35-.05,0-.11-.01-.18-.01-16.75-1.52-30.37-2.92-33.37-3.66-3.37-.83-11.58-4.54-18.8-7.59-.11-.55-.12-.97,0-1.25.01-.04.04-.08.08-.13.03-.04.07-.09.12-.15.04-.05.09-.11.16-.18.07-.07.12-.13.2-.19.08-.07.16-.13.26-.22.09-.07.19-.15.28-.23.2-.16.44-.34.71-.51.12-.09.26-.19.4-.28.15-.09.3-.2.44-.3.47-.31.98-.65,1.55-.98.94-.58,2.02-1.23,3.19-1.91.46-.26.94-.53,1.44-.81.54-.31,1.09-.62,1.66-.93,11.35-6.33,29.24-15.23,40.09-19.82,4.09-1.72,7.19-2.84,8.55-2.98.05-.01.13-.01.22-.01s.17,0,.28-.01c.24-.01.55-.01.92-.01.54,0,1.2,0,1.98.01,1.25,0,2.8.03,4.62.07,28.33.73,121.61,5.08,152.4,8.59.08.03.15.05.23.08,4.83.57,8.01,1.12,8.96,1.62.54.28,1.14.59,1.8.93.11.05.23.11.34.16Z"/>
          <path class="cls-12" d="m239.34,16.52c-1.86-.26-3.62-.53-4.55-.48-2.24.09-9.05,3.89-14.58,5.68-13.04,4.22-31.12,14.21-48.02,22.64-6.01,2.99-31.12,2.55-33.65,5.84-3.1,4.05-5.88,25.49-6.94,25.49-.71-.01,1.76-21.72,0-24.47-1.76-2.75-11.5-.69-20.55-.51-12.81.24-42.3-5.1-52.8-6.4-.44-.05-.86-.09-1.24-.13-.81-.08-1.75-.16-2.79-.22-.05,0-.11-.01-.18-.01-10.72-.62-31.46-.13-32.86.79-1.55,1.04-1.12,12.29-1.55,13.08-.43.77-1.71-12.55-2.14-14.96-.43-2.41-11.1-7.39-13.06-7.65-.57-.07-1.06.16-1.49.55-.54-1.23-.92-2.28-1.06-3.07-.11-.55-.12-.97,0-1.25.01-.04.04-.08.08-.13.03-.04.07-.09.12-.15.04-.05.09-.11.16-.18.07-.07.12-.13.2-.19.08-.07.16-.13.26-.22.09-.07.19-.15.28-.23.2-.16.44-.34.71-.51.12-.09.26-.19.4-.28.15-.09.3-.2.44-.3.47-.31.98-.65,1.55-.98.94-.58,2.02-1.23,3.19-1.91.46-.26.94-.53,1.44-.81.54-.31,1.09-.62,1.66-.93-.97.71-7.78,5.74-7.78,6.37,0,.69,5.68,3.86,12.73,6.88,7.04,3,35.42,4.98,38.16,4.98s43.64,4.3,50.51,4.81c6.88.53,20.05,1.09,39.83-1.54,5.36-.71,11.37-2.2,17.45-4.07.08-.01.16-.04.24-.08,3.25-1,6.53-2.1,9.74-3.26,16.44-5.94,31.2-13.13,32.74-13.57,2.41-.69,17.96-8,20.97-10.83,1.24-1.17-1.55-2.55-5.31-3.78,4.83.57,8.01,1.12,8.96,1.62.54.28,1.14.59,1.8.93.11.05.23.11.34.16,1.29.67,2.79,1.4,4.4,2.2.71.35,1.44.71,2.18,1.08Z"/>
          <path class="cls-6" d="m18.21,59.12c-3.56-2.8-10.93-13.68-14.65-21.03-.15-.3-.3-.58-.43-.86-.13-.28-.26-.55-.39-.82,1.32-.16,2.52-.22,2.98.01,1.36.69,10.15,4.89,10.67,6.65.31,1.06,1.1,8.5,1.64,14.11.07.69.12,1.33.19,1.94Z"/>
          <path class="cls-6" d="m131.78,62.03c-.09,5.06-.57,11.45-.93,16.6-1.2.2-3.11.22-5.6.07-20.95-1.16-82.78-13.1-101.93-17.86-1.13-.27-2.11-.53-2.92-.75-.05-.67-.11-1.39-.13-2.13-.27-5.05-.04-11.26,2.48-12.23,4.35-1.7,25.32-1.66,36.79,0,14.66,2.11,33.33,4.94,42.41,5.84,6.4.63,27.35-1.37,29.19,2.29.58,1.17.73,4.27.65,8.16Z"/>
          <path class="cls-10" d="m246.21,60.26c-2.49,1.94-21.17,5.05-42.85,8.2-26.58,3.85-57.66,7.74-68.89,9.53.04-6.4,1.89-26.39,9.98-28.24,9.8-2.22,25.45-1.05,34.39-5.28,29.91-14.17,35.03-21.53,58.32-29.03.77.38,1.55.77,2.36,1.16,9.24,4.57,20.7,10.32,21.36,12.59.92,3.12-8.71,26.46-14.66,31.07Z"/>
          <path class="cls-10" d="m246.21,60.26c-2.49,1.94-21.17,5.05-42.85,8.2-5.31-.01-9.1-.34-9.74-.85-2.34-1.9,64.15-42.66,64.8-37.64.44,3.45-6.1,21.86-12.21,30.29Z"/>
          <path class="cls-5" d="m259.33,36.16c-2.85,8.21-8.91,20.85-13.12,24.1-5.56,4.3-91.36,14.49-111.74,17.74-1.47.23-2.59.42-3.33.58-.09.01-.19.04-.3.05-1.2.2-3.11.22-5.6.07-20.95-1.16-82.78-13.1-101.93-17.86-1.13-.27-2.11-.53-2.92-.75-.42-.12-.78-.23-1.1-.32-.24-.08-.53-.23-.85-.47-.07-.05-.15-.11-.23-.18-3.56-2.8-10.93-13.68-14.65-21.03,2.42.35,6.44,2.29,8.75,4.98,2.79,3.25,1.27,11.43,5.71,14.11.46.28,1,.5,1.62.65.16.04.38.08.62.13.69.12,1.66.27,2.87.44,15.15,2.15,68.68,7.51,77.77,10.06,10.09,2.83,17.32,8.32,21.44,7.23,1.52-.4,3.03-2.68,4.58-5.43,1.58-2.77,3.18-6.01,4.86-8.24,1.18-1.56,2.4-2.64,3.66-2.73,4.89-.39,28.79,14.95,87.67,3.34,12.28-2.42,31.71-26.47,36.22-26.47Z"/>
          <path class="cls-10" d="m126.91,70.27c-.46,2.88-1.08,5.82-1.67,8.43-20.95-1.16-82.78-13.1-101.93-17.86-.08-.78-.16-1.6-.19-2.44-.13-2.98.28-5.98,2.25-6.83,4.24-1.83,98.56-.58,101.66,5.16,1.25,2.32.83,7.81-.12,13.53Z"/>
          <path class="cls-4" d="m10.48,30.49c-3.1-.75,47.68-25.61,52.66-26.13,4.99-.52,116.73,2.92,112.94,7.22-3.78,4.3-122.17,29.4-165.61,18.91Z"/>
          <path class="cls-7" d="m160.61,40.97c1.33.8,63.43-25.36,62.83-26.56-.6-1.2-2.41-1.81-4.38-1.63s-60.56,26.92-58.45,28.19Z"/>
          <path class="cls-4" d="m23.94,36.26c-2.34-1.86,36.1-28.47,45.04-29.15,8.94-.69,24.41.67,22.69,3.34S29.39,40.6,23.94,36.26Z"/>
          <path class="cls-3" d="m139.75,74.38c-.99-1.28-1.49-17.19,10.77-21.2,12.26-4.01,86.64-8.09,83.32-2.38-3.32,5.71-90.54,28.17-94.09,23.59Z"/>
          <path class="cls-9" d="m32.45,54.12c0,3.92,13.24,7.13,11.26,2.84-1.98-4.3-11.26-4.81-11.26-2.84Z"/>
          <path class="cls-9" d="m43.92,49.01c-.93,1.58,1,6.23,2.03,4.01,1.03-2.22-.97-5.81-2.03-4.01Z"/>
          <path class="cls-9" d="m111.36,62.46c-3.61.98-6.96,5.16-.52,3.87,6.45-1.29,4.64-4.99.52-3.87Z"/>
          <path class="cls-9" d="m239.99,40.99c-7.2-2.58-10.27-7.87-3.97-9.01,6.3-1.15,7.75,10.37,3.97,9.01Z"/>
          <path class="cls-9" d="m235.57,20.06c-3.86-.5-8.44,6.42-2.67,4.36,5.77-2.06,5.31-4.01,2.67-4.36Z"/>
          <path class="cls-2" d="m133.54,57.48c-2.84-.17-6-8.99,0-9.79,6-.8,4.38,10.05,0,9.79Z"/>
          <path class="cls-2" d="m151.93,45.96c-4.39-2.08-10.27,1.61-8.17,2.56,2.11.95,9.8-1.79,8.17-2.56Z"/>
          <path class="cls-2" d="m226.01,11.66c-1.95.24-1.01,5.72,1.14,4.13,2.15-1.59,1.68-4.47-1.14-4.13Z"/>
          <path class="cls-14" d="m73.54,43.12c-7.36-.59-10.51,1.59-8.52,3.41,4.19,3.83,26.22,5.78,25.28,1.45-.95-4.34-13.58-4.6-16.76-4.86Z"/>
          <path class="cls-8" d="m64.97,44.81c-.08.25,5.9,2.35,13.9,2.69s10.99.34,10.66-.54c-.33-.89-6.69-3.56-12.57-3.61-5.88-.05-11.35-.43-11.99,1.47Z"/>
          <path class="cls-12" d="m64.84,45.3c.24-.48,9.44,3.07,13.84,2.78,4.4-.29,11.25-.88,11.13.02s-2.31,3.68-13.68,1.86c-11.37-1.82-11.79-3.63-11.29-4.66Z"/>
          <path class="cls-2" d="m71.82.3c-.53.48-1.17,1.04-1.98,1.6-.01.01-.04.03-.05.04-1.13.78-2.55,1.59-4.32,2.36-.58.24-1.2.5-1.86.73-1.79.65-3.54.89-5.16.92-2.45.03-4.61-.47-6.21-1.04-.08-.01-.18-.05-.26-.08-.65-.23-1.18-.46-1.6-.66C55.83,1.74,59.74.13,60.62.02c.55-.07,4.63.04,11.2.28Z"/>
        </g>
      </g>
    </g>
  </g>
</svg>