<?xml version="1.0" encoding="UTF-8"?>
<svg xmlns="http://www.w3.org/2000/svg" xmlns:xlink="http://www.w3.org/1999/xlink" viewBox="0 0 142.27 171.94">
  <defs>
    <style>
      .cls-1 {
        fill: #ff7b00;
      }

      .cls-2, .cls-3, .cls-4, .cls-5 {
        fill: #fff;
      }

      .cls-3, .cls-6, .cls-7 {
        opacity: .5;
      }

      .cls-3, .cls-4, .cls-5 {
        mix-blend-mode: soft-light;
      }

      .cls-8 {
        opacity: .1;
      }

      .cls-8, .cls-6, .cls-7, .cls-9, .cls-10, .cls-11 {
        mix-blend-mode: multiply;
      }

      .cls-8, .cls-10, .cls-11 {
        fill: #f42774;
      }

      .cls-12 {
        fill: url(#linear-gradient-2);
      }

      .cls-12, .cls-13 {
        mix-blend-mode: screen;
      }

      .cls-14 {
        mix-blend-mode: overlay;
      }

      .cls-14, .cls-15 {
        fill: #fff603;
      }

      .cls-16 {
        fill: url(#_Áĺçűě_ííűé_ăđŕäčĺíň_533);
      }

      .cls-17 {
        isolation: isolate;
      }

      .cls-6, .cls-9 {
        fill: #de376d;
      }

      .cls-13 {
        fill: url(#linear-gradient-3);
      }

      .cls-7 {
        fill: #cf4a76;
      }

      .cls-18 {
        fill: url(#_Áĺçűě_ííűé_ăđŕäčĺíň_533-2);
      }

      .cls-5 {
        opacity: .4;
      }

      .cls-9 {
        opacity: .7;
      }

      .cls-10 {
        opacity: .15;
      }

      .cls-11 {
        opacity: .2;
      }

      .cls-19 {
        fill: url(#_Áĺçűě_ííűé_ăđŕäčĺíň_533-3);
      }

      .cls-20 {
        fill: url(#linear-gradient);
      }
    </style>
    <linearGradient id="linear-gradient" x1="10.67" y1="-71.83" x2="123.24" y2="228.26" gradientUnits="userSpaceOnUse">
      <stop offset="0" stop-color="#ffcf00"/>
      <stop offset="1" stop-color="#ff9600"/>
    </linearGradient>
    <linearGradient id="linear-gradient-2" x1="188.09" y1="-15.7" x2="56.69" y2="185.53" gradientUnits="userSpaceOnUse">
      <stop offset="0" stop-color="#fff601"/>
      <stop offset=".1" stop-color="#ece400"/>
      <stop offset=".31" stop-color="#bdb600"/>
      <stop offset=".61" stop-color="#706c00"/>
      <stop offset=".97" stop-color="#070700"/>
      <stop offset="1" stop-color="#000"/>
    </linearGradient>
    <linearGradient id="linear-gradient-3" x1="81.23" y1="-68.34" x2="-9.31" y2="148.81" xlink:href="#linear-gradient-2"/>
    <linearGradient id="_Áĺçűě_ííűé_ăđŕäčĺíň_533" data-name="Áĺçűě˙ííűé ăđŕäčĺíň 533" x1="53.18" y1="112.74" x2="53.18" y2="91.61" gradientUnits="userSpaceOnUse">
      <stop offset=".04" stop-color="#ef6300"/>
      <stop offset="1" stop-color="#e13e00"/>
    </linearGradient>
    <linearGradient id="_Áĺçűě_ííűé_ăđŕäčĺíň_533-2" data-name="Áĺçűě˙ííűé ăđŕäčĺíň 533" x1="55.97" y1="120.55" x2="55.97" y2="114.68" xlink:href="#_Áĺçűě_ííűé_ăđŕäčĺíň_533"/>
    <linearGradient id="_Áĺçűě_ííűé_ăđŕäčĺíň_533-3" data-name="Áĺçűě˙ííűé ăđŕäčĺíň 533" x1="111.57" y1="144.45" x2="111.57" y2="135.67" xlink:href="#_Áĺçűě_ííűé_ăđŕäčĺíň_533"/>
  </defs>
  <g class="cls-17">
    <g id="Vrstva_2" data-name="Vrstva 2">
      <g id="Layer_1" data-name="Layer 1">
        <g>
          <path class="cls-1" d="m2.34,60.67s20.53,103.98,24.77,106.79c4.24,2.81,26.36,5.25,28.86,4.26,4.36-1.73,25.04-13,27.68-12.98s17.05,6.91,21.75,8.72c4.43,1.7,19.34-.56,21.32-2.63,1.98-2.07,7.8-36.4,7.85-36.66.05-.25-132.23-67.5-132.23-67.5Z"/>
          <path class="cls-15" d="m25.24,160.09S-2.13,52.17.13,46.8C2.4,41.43,23.35,9.18,27.79,8.47c4.45-.71,50.23-10.18,55.48-8.2,5.25,1.98,29.13,20.22,29.71,22.63.58,2.4,1.32,43.89,2.72,46.97,1.4,3.08,26.43,8.17,26.57,11.5.14,3.33-12.1,75.53-15.5,81.87-1.84,3.44-52.92-11.22-52.92-11.22l-48.62,8.07Z"/>
          <path class="cls-20" d="m140.8,84.27c0,.11-.02.22-.03.34-.02.29-.07.6-.1.93,0,.08-.02.17-.03.25-.02.22-.05.46-.08.7-.03.36-.08.74-.13,1.13-.06.44-.12.9-.18,1.37-.12.91-.26,1.89-.41,2.92-.04.32-.09.65-.14.97-.06.44-.12.9-.2,1.36-.03.24-.07.49-.11.74-.11.72-.22,1.46-.34,2.23-.05.31-.09.61-.14.93-.18,1.16-.37,2.37-.57,3.61-.07.49-.16,1-.24,1.5-.04.25-.08.51-.12.76-.02.1-.03.2-.06.29-.02.19-.04.31-.05.35h0c-.08.57-.18,1.12-.27,1.7-.08.52-.17,1.06-.27,1.59-.08.53-.17,1.07-.27,1.61-.05.32-.11.66-.17.98-.03.22-.07.43-.11.65-.07.44-.15.89-.22,1.34-.06.38-.12.76-.19,1.15-.05.27-.1.55-.14.83-.69,4.04-1.41,8.19-2.14,12.29-.08.42-.16.85-.23,1.26-.07.38-.13.75-.2,1.12-.4,2.24-.81,4.45-1.2,6.6-.07.37-.14.74-.21,1.11,0,.06-.02.12-.03.17-.42,2.25-.83,4.43-1.22,6.51-.09.5-.19.99-.28,1.47-.1.49-.19.97-.27,1.44-.08.42-.17.85-.25,1.26,0,.04-.02.09-.02.14-.08.42-.17.82-.25,1.23-.07.36-.14.7-.21,1.05-.05.27-.11.54-.16.8-.07.34-.13.66-.2.99-.02.07-.03.14-.04.22-.07.32-.13.64-.2.96-.07.35-.14.69-.21,1.02-.13.66-.27,1.28-.39,1.88-.06.29-.12.57-.18.85-.03.17-.07.34-.11.5-.07.33-.14.65-.21.96-.03.16-.07.31-.1.46-.03.13-.07.27-.09.41,0,0,0,.02,0,.03-.07.28-.13.56-.19.83-.03.15-.07.29-.1.43-.05.22-.1.42-.15.62,0,.02-.02.03-.02.05,0,.03,0,.06-.02.09-.03.09-.04.17-.07.25,0,.03-.02.07-.02.11-.02.09-.05.17-.07.26-.02.08-.04.17-.07.25-.12.46-.23.84-.32,1.15,0,.02-.02.03-.02.05-.08.26-.16.45-.22.59-.03.07-.06.12-.08.17-.02.02-.03.03-.04.05-.32.32-.83.62-1.5.9-.12.05-.24.1-.37.15-.02,0-.03,0-.05.02-.29.1-.61.21-.94.3-.09.03-.19.06-.29.08-.11.03-.22.07-.34.09-.14.04-.28.07-.43.11-.18.05-.37.09-.57.13-.19.04-.39.08-.59.12-.21.05-.42.09-.64.13-.4.07-.81.14-1.23.21-.05,0-.09.02-.13.02-.39.06-.78.12-1.18.17h0c-.6.08-1.2.16-1.8.22-.23.02-.46.05-.69.07-.03,0-.07,0-.11,0-.14.02-.27.02-.41.04-.05,0-.1,0-.15.02-.07,0-.13,0-.2.02-.18.02-.36.03-.53.04-.5.05-.99.08-1.46.12-.22.02-.43.02-.64.04-.55.03-1.09.06-1.6.07h-.05c-.06,0-.12,0-.17,0-.25,0-.49,0-.72.02-.97.02-1.82,0-2.49-.03-.61-.03-1.08-.1-1.34-.18-.34-.12-1.3-.52-2.63-1.11-4.88-2.12-14.86-6.6-18.61-7.84-.59-.2-1.02-.31-1.26-.32-.04,0-.07,0-.1,0h-.02c-1.68.3-9.44,4.28-16.4,7.79-3.52,1.77-6.85,3.42-9.07,4.41-.99.44-1.77.75-2.24.88-.25.07-.57.12-.96.16-4.82.49-19.3-1.27-25.13-3.39-.52-.19-.97-.38-1.35-.58-.22-.12-.5-.56-.83-1.32-3.97-8.92-15.33-60.15-21.49-92.15-.5-2.61-.96-5.09-1.39-7.41h0c-.67-3.64-1.24-6.87-1.67-9.59-.83-5.14-1.2-8.41-.93-8.93.14-.27.41-.75.78-1.38,1.29-2.19,3.88-6.36,6.95-11.09,6.91-10.66,16.24-24.19,18.58-24.54,2.28-.35,21.67-4.19,36.73-6.71,9.21-1.55,16.79-2.59,17.86-2.06.79.39,3.32,2.1,6.59,4.41,2.33,1.65,5.02,3.6,7.72,5.6.02.02.05.04.07.05,0,0,0,.02,0,.02,4.05,3.01,8.1,6.12,10.88,8.43,0,0,.02.02.03.03,2.12,1.77,3.49,3.07,3.56,3.52.07.52.21,4.14.41,9.17v.02c.07,1.65.13,3.44.21,5.33.08,1.99.17,4.09.27,6.22v.05c.07,1.52.14,3.05.22,4.58.42,8.55.95,16.88,1.6,20.75v.05c.22,1.31.45,2.09.7,2.17.99.3,7.08,2.31,13.12,4.4,0,0,.03.02.1.04.04,0,.08.02.12.04.05.02.11.04.17.07.04,0,.07.02.11.03,4.59,1.58,9.07,3.19,11.18,4.1.17.07.33.15.47.22.35.17.59.3.71.39.15.12.13,1.11-.02,2.76Z"/>
          <path class="cls-12" d="m140.81,81.51c-2.59,3.6-20.61,20.31-24.29,23.04-.78.58-2.31,1.35-4.25,2.21h0c-4.74,2.08-11.93,4.63-16.72,5.97-.4.11-.77.21-1.13.3,0,0,0,0-.02,0-1.92.5-3.3.74-3.71.58-.02,0-.02-.02-.02-.02-.37-.26.71-2.7,2.59-6.27,0,0,.02-.02.02-.02,5.44-10.3,17.55-30.01,20.85-34.28.33-.43.57-.71.71-.8.99.3,7.08,2.31,13.12,4.4,0,0,.03.02.1.04.04,0,.08.02.12.04.1.03.19.06.28.1,4.59,1.58,9.07,3.19,11.18,4.1.17.07.33.15.47.22.35.17.59.3.71.39Z"/>
          <path class="cls-7" d="m113.94,123.95c-1.55,11.61-3.92,26.35-5.82,35.24,0,.02,0,.03,0,.05-.21.96-.41,1.84-.6,2.66-.7,2.9-1.3,4.78-1.73,5.12-.34-.12-1.3-.52-2.63-1.11-4.88-2.12-14.86-6.6-18.61-7.84-.59-.2-1.02-.31-1.26-.32.05-.71.11-1.56.17-2.56,0-.02,0-.06,0-.08.11-1.66.25-3.67.42-5.9.46-5.97,1.12-13.49,1.96-19.89,0-.07.02-.13.02-.2.9-6.82,1.99-12.36,3.22-13.39.63-.52,2.65-1.52,5.31-2.68,5.4-2.35,13.45-5.33,17.86-6.28,1.74-.37,2.91-.42,3.13,0,.45.87-.25,8.06-1.45,17.18Z"/>
          <path class="cls-11" d="m140.8,84.27c0,.11-.02.22-.03.34-.02.29-.07.6-.1.93,0,.08-.02.17-.03.25-.02.22-.05.46-.08.7-.03.36-.08.74-.13,1.13-.06.44-.12.9-.18,1.37-.12.91-.26,1.89-.41,2.92-.04.32-.09.65-.14.97-.06.44-.12.9-.2,1.36-.03.24-.07.49-.11.74-.11.72-.22,1.46-.34,2.23-.05.31-.1.61-.14.93-.18,1.16-.37,2.37-.57,3.61-.08.49-.16,1-.24,1.5-.04.25-.08.51-.12.76-.03.21-.07.42-.1.64h0c-.08.57-.18,1.12-.27,1.7-.08.52-.17,1.06-.27,1.59-.08.53-.17,1.07-.27,1.61-.05.32-.11.66-.17.98-.03.22-.07.43-.11.65-.07.44-.15.89-.22,1.34-.06.38-.12.76-.19,1.15-.05.27-.1.55-.14.83-.69,4.04-1.41,8.19-2.14,12.29-.08.42-.16.85-.23,1.26-.07.38-.13.75-.2,1.12-.4,2.24-.81,4.45-1.2,6.6-.07.37-.14.74-.21,1.11,0,.06-.02.12-.03.17-.42,2.25-.83,4.43-1.22,6.51-.1.5-.19.99-.28,1.47-.1.49-.19.97-.27,1.44-.08.42-.17.85-.25,1.26,0,.04-.02.09-.02.14-.08.42-.17.82-.25,1.23-.07.36-.14.7-.21,1.05-.05.27-.11.54-.16.8-.07.34-.13.66-.2.99-.02.07-.03.14-.04.22-.07.32-.13.64-.2.96-.07.35-.14.69-.21,1.02-.13.66-.27,1.28-.39,1.88-.06.29-.12.57-.18.85-.03.17-.07.34-.11.5-.07.33-.14.65-.21.96-.03.16-.07.31-.1.46-.03.13-.07.27-.09.41,0,0,0,.02,0,.03-.07.28-.13.56-.19.83-.03.15-.07.29-.1.43-.06.22-.11.42-.15.62,0,.02-.02.03-.02.05-.02.12-.06.23-.08.34,0,.03-.02.07-.02.11-.02.09-.05.17-.07.26-.02.08-.05.17-.07.25-.12.46-.23.84-.32,1.15,0,.02-.02.03-.02.05-.08.26-.16.45-.22.59-.03.07-.06.12-.08.17-.02.02-.03.03-.04.05-.32.32-.83.62-1.5.9-.12.05-.24.1-.37.15-.02,0-.03,0-.05.02-.29.1-.61.21-.94.3-.09.03-.19.06-.29.08-.11.03-.22.07-.34.09-.14.04-.28.07-.43.11-.18.05-.37.09-.57.13-.19.04-.39.08-.59.12-.21.05-.42.09-.64.13-.4.07-.81.14-1.23.21-.05,0-.09.02-.13.02-.39.06-.78.12-1.18.17h0c-.6.08-1.2.16-1.8.22-.23.02-.46.05-.69.07-.04,0-.07,0-.11,0-.14.02-.27.02-.41.04-.05,0-.1,0-.15.02-.07,0-.13,0-.2.02-.18.02-.36.03-.53.04-.5.05-.99.08-1.46.12-.22.02-.43.02-.64.04-.55.03-1.09.06-1.6.07h-.05c-.06,0-.12,0-.17,0-.25,0-.49,0-.72.02-.97.02-1.82,0-2.49-.03.15-1.53.37-3.32.62-5.3.02-.12.03-.25.05-.37,0-.02,0-.03,0-.04.09-.71.19-1.44.29-2.19,0,0,0-.02,0-.03,0-.02,0-.05.02-.07,1.42-10.15,3.8-24.07,5.82-35.24,0-.03.02-.07.02-.11,1.65-9.04,3.07-16.25,3.56-18.18.48-1.87,15.65-16.55,23.28-21.39Z"/>
          <path class="cls-7" d="m55.81,167.16s0,0,0,0c-.04,2.09-.16,3.37-.38,3.66-.25.07-.57.12-.96.16-4.82.49-19.3-1.27-25.13-3.39-.52-.19-.97-.38-1.35-.58-.22-.12-.5-.56-.83-1.32-3.97-8.92-15.33-60.15-21.49-92.15-.5-2.61-.96-5.09-1.39-7.41h0c-.67-3.64-1.24-6.87-1.67-9.59-.83-5.14-1.2-8.41-.93-8.93,3.61-.81,44.36,9.07,46.25,12.06.15.23.32.89.51,1.92.87,4.8,2.14,17.7,3.37,33.02,1.01,12.6,2.01,26.83,2.76,39.57.85,14.47,1.38,27.01,1.25,32.98Z"/>
          <path class="cls-13" d="m82.58,1.83c0,5.83-30.47,55.3-32.74,55.54-1.6.17-45.38-10.42-47.38-11.13,1.29-2.19,3.88-6.36,6.95-11.09,6.91-10.66,16.24-24.19,18.58-24.54,2.28-.35,21.67-4.19,36.73-6.71,9.21-1.55,16.79-2.59,17.86-2.06Z"/>
          <path class="cls-11" d="m114.12,73.02c-.02.9-.07,1.53-.16,1.83-.6,2.25-12.95,20.13-20.69,32.46,0,0,0,.02-.02.02-3.26,5.19-5.68,9.39-6.06,11.02-.36,1.57-.83,5.68-1.33,10.77,0,.07-.02.13-.02.2-.61,6.12-1.25,13.63-1.83,19.89-.04.42-.07.84-.12,1.25-.16,1.68-.3,3.25-.44,4.65,0,.02,0,.06,0,.08-.1.93-.18,1.79-.27,2.56h-.02c-1.68.3-9.44,4.28-16.4,7.79-3.52,1.77-6.85,3.42-9.07,4.41-.36-2.76-.88-8.55-1.5-16.11v-.05c-.47-5.73-.98-12.49-1.5-19.68-1.02-14.33-2.05-30.44-2.76-43.85v-.07c-.41-7.67-.71-14.45-.83-19.51v-.07c-.13-5.56-.07-9.02.29-9.29,4.89-3.66,57.96-35.9,59.5-33.5.3.47.63,2.4.96,5.25v.02c.07,1.65.13,3.44.21,5.33.08,1.99.17,4.09.27,6.22v.05c.07,1.52.14,3.05.22,4.58.42,8.55.95,16.88,1.6,20.75v.05c0,1.17,0,2.18-.02,2.97Z"/>
          <path class="cls-11" d="m54.47,170.98c-4.82.49-19.3-1.27-25.13-3.39-.32-1.07-.66-2.24-1.01-3.51-5.12-18.73-13.15-58.04-16.39-82.89-.11-.86-.22-1.69-.32-2.5-1.42-11.61-1.63-19.49.25-19.6,6.79-.4,30.48,11.72,30.65,21.21.09,4.96,5.45,31.96,8.96,57.03,1.79,12.76,3.09,25.04,2.98,33.65Z"/>
          <path class="cls-11" d="m35.07,153.07c-1.89,3.71-4.07,7.2-6.25,10.33-.17.23-.32.46-.48.68-.39.55-.78,1.09-1.17,1.61-3.97-8.92-15.33-60.15-21.49-92.15-.5-2.61-.96-5.09-1.39-7.41.33.49.68,1.01,1.03,1.55,1.52,2.35,3.17,5.18,4.89,8.34.47.86.94,1.75,1.42,2.67h0c12.7,24.32,28.14,65.12,23.44,74.38Z"/>
          <path class="cls-11" d="m104.2,161.74c-.36,1.55-.71,2.94-1.05,4.16-4.88-2.12-14.86-6.6-18.61-7.84-.05-2.55-.02-5.63.21-8.82.38-5.23,1.33-10.74,3.39-14.65,5.2-9.83,23.66-28.39,23.97-23.2.24,3.86-4.23,34.55-7.91,50.34Z"/>
          <path class="cls-4" d="m10.73,42.17c-2.64-7.09,19.6-28.08,24.44-29.14s39.18-10.4,38.77-5.09S12.39,46.63,10.73,42.17Z"/>
          <path class="cls-4" d="m98.32,105.65c1.9-2.69,13.69-26.17,20.48-26.6,6.79-.43,15.91,2.55,13.58,4.03-2.33,1.48-13.19,4.38-16.67,7.17s-18.33,16.74-17.38,15.4Z"/>
          <path class="cls-6" d="m133.64,129.18c-.4,2.24-.81,4.45-1.2,6.6-.08.43-.16.86-.24,1.28-.42,2.25-.83,4.43-1.22,6.51-.09.5-.19.99-.28,1.47-.1.49-.19.97-.27,1.44-.08.42-.17.85-.25,1.26,0,.04-.02.09-.02.14-.08.42-.17.82-.25,1.23-.27,1.41-.55,2.75-.81,4.01-.07.35-.14.69-.21,1.02-.13.66-.27,1.28-.39,1.88-.06.29-.12.57-.18.85-.14.68-.28,1.31-.42,1.91-.03.13-.07.27-.09.41-.56,2.46-1,4.12-1.26,4.71-.03.07-.06.12-.08.17-.02.02-.03.03-.04.05-.32.32-.83.62-1.5.9-.12.05-.24.1-.37.15-.48.17-1.02.34-1.62.49-.14.04-.28.07-.43.11-.18.05-.37.09-.57.13-.19.04-.39.08-.59.12-.21.05-.42.09-.64.13-.4.07-.81.14-1.23.21-.05.02-.09.02-.13.02-.39.06-.78.12-1.18.17h0c-.6.08-1.2.16-1.8.22-2.01.22-4.04.37-5.78.43h-.05c-.31,0-.61.02-.9.02-.97.02-1.82,0-2.49-.03-.61-.03-1.08-.1-1.34-.18-.34-.12-1.3-.52-2.63-1.11-4.88-2.12-14.86-6.6-18.61-7.84-.59-.2-1.02-.31-1.26-.32-.04,0-.07,0-.1,0h-.02c-1.68.3-9.44,4.28-16.4,7.79-3.52,1.77-6.85,3.42-9.07,4.41-.99.44-1.77.75-2.24.88-.25.07-.57.12-.96.16-4.82.49-19.3-1.27-25.13-3.39-.52-.19-.97-.38-1.35-.58-.22-.12-.5-.56-.83-1.32-3.97-8.92-15.33-60.15-21.49-92.15-.5-2.61-.96-5.09-1.39-7.41h0c-.67-3.64-1.24-6.87-1.67-9.59.78,1.7,1.64,3.7,2.53,5.91,1.6,3.94,3.34,8.58,5.06,13.57.59,1.69,1.16,3.41,1.74,5.17,3.38,10.35,6.51,21.61,8.17,30.99,3.35,18.89,4.24,42.34,8.71,51.22,1.24,2.48,2.77,3.82,4.69,3.61,7.63-.81,12.01-21.66,17.97-29.68.47-.61.92-1.16,1.39-1.66.53-.57,1.06-1.05,1.6-1.43.03-.02.06-.04.09-.06.04-.03.07-.06.12-.08.49-.32.97-.47,1.44-.51,6.26-.49,10.3,21.99,17.82,20.18,7.63-1.84,6.07-4.59,9.94-4.57h.13c.22,0,.47.02.73.04,4.99.45,10.34,11.36,16.65,12.11,1.15.14,2.05.27,2.8.38,1.14.17,1.94.27,2.8.21.17-.02.34-.03.52-.06.06,0,.12,0,.18,0,.02,0,.03,0,.05,0,.64.05,1.63.57,2.85,1.16,2.21,1.06,5.16,2.28,7.98,1.14,7.68-3.1,9.31-24.74,12.5-32.36.74-1.77,1.56-2.79,2.56-2.64Z"/>
          <path class="cls-5" d="m55.84,65.27c-4.17,6.71-2.31,51.81,12.29,47.64s42.18-37.12,40.91-38.78-50.17-13.73-53.2-8.86Z"/>
          <path class="cls-3" d="m83.44,5.08c-1,1.73-5.37,33.24,0,32.32,5.37-.92,25.03-10.77,23.9-12.95-1.13-2.18-22.84-21.2-23.9-19.36Z"/>
          <path class="cls-6" d="m110.56,167.2c-1.37.04-2.56.04-3.44,0-.61-.03-1.08-.1-1.34-.18-.34-.12-1.3-.52-2.63-1.11-4.88-2.12-14.86-6.6-18.61-7.84-.59-.2-1.02-.31-1.26-.32-.04,0-.07,0-.1,0h-.02c-1.68.3-9.44,4.28-16.4,7.79,6.02-6.46,14.73-16.84,17.15-15.08.02,0,.03.02.05.03,3.07,2.55,5.02,7.91,8.86,10.24,3.84,2.33,12.1,2.62,13.73,4.56,1.11,1.31,3.07,1.41,4.02,1.92Z"/>
          <path class="cls-8" d="m5.98,44.1c.75-.69,4.14-4.46,7.85-4.08,3.71.37,37.66,12.36,35.69,13.68-1.96,1.33-44.28-8.92-43.54-9.6Z"/>
          <path class="cls-10" d="m42.53,87.32c-2.25,2.32-5.62,7.25-1.59,5.06,4.03-2.19,2.99-6.5,1.59-5.06Z"/>
          <path class="cls-10" d="m34.04,79.01c.93,2.93,4.14,6.94,3.39,4.07-.74-2.87-3.79-5.31-3.39-4.07Z"/>
          <path class="cls-10" d="m71.26,138.87c-2.1,2.25-3.83,4.88,0,3.18,3.83-1.7,3.06-6.47,0-3.18Z"/>
          <path class="cls-10" d="m82.58,110.5c-1.55,3.13-4.46,8.75-1.1,5.41,3.36-3.34,2.14-7.52,1.1-5.41Z"/>
          <path class="cls-10" d="m76.36,106.46c-.14,1.85,3.74,5.39,3.57,3.47-.17-1.92-3.39-5.8-3.57-3.47Z"/>
          <path class="cls-10" d="m105,36.79c-2.26,2.14-5.73,5.77-2.33,4.07,3.39-1.7,3.99-5.64,2.33-4.07Z"/>
          <path class="cls-10" d="m120.6,156.16c-1.91,2.6.8,6.15,1.7,4.57.9-1.58-.53-6.16-1.7-4.57Z"/>
          <path class="cls-10" d="m133.64,95.17c-2.75,2.33-5.08,4.1-2.01,3.64,3.08-.46,3.5-4.9,2.01-3.64Z"/>
          <path class="cls-5" d="m110.56,164.47c-.64-1.52,8.16-52.68,12.01-55.61s10.73-7.24,11.89-4.31c1.16,2.93-7.6,55.54-10.51,58.08-2.9,2.55-12.64,3.64-13.4,1.84Z"/>
          <path class="cls-15" d="m62.47,4.11c-.17.04-.24.07-.22.05.02,0,.1-.02.22-.05Z"/>
          <path class="cls-15" d="m96.97,11.91s-.03-.03-.07-.07c.02.02.05.04.07.05,0,0,0,.02,0,.02h0Z"/>
          <path class="cls-15" d="m111.85,33.09c.43,10.68.52,2.04-1.32,1.87-2.66-.25-13.48-1.5-24.41,5.38-47.91,30.16-31.09,6.79-30,93.26,1.11,86.43-3.67-17.25-4.31-38.98-.71-24.01-5.49-35.65-9.58-37.25-11.66-4.55-31.69-8.52-36.25-3.55-2.81,3.04,2.71,40.9-3.36,2.73-1.6-9.89-2.48-7.07,6.8-21.4-1.82,3.85-3.44,8.33.16,10.21,3.16,2.2,36.07,12.76,39.42,11.19,3.24-1.52,13.68-23,14.96-23.74,1.27-.75,19.39-27.15,16.85-28.64-1.94-1.14-11.49-.66-16.09-.27,19.82-3.33,16.82-3.05,24.45,2.35-1.57-.64-3.3-.94-4.66.07-4.05,3.1-35.56,52.94-33.48,53.85,2.09.92,17.94-13.16,22.91-15.91s33.9-16.39,35.13-18.06c1.23-1.67-.57-5.33-1.19-5.83,3.89,3.25,3.96,2.21,3.96,12.72Z"/>
          <path class="cls-15" d="m140.8,84.27c-.31,3.97-3.32,23.27-2.9,20.05,3.31-25.45-.38-17.26-8.78-8.86-2.65,2.65-8.82,6.69-10.54,8.98-1.62,2.15-9.64,54.77-10.79,57.08-3.86,14.48,8.68-50.85,7.11-53.41-1.57-2.53-52.4,15.03-.76-3.29,6.59-2.33,23.22-19.29,24.6-21.83,1.51-2.77-12.8-7.19-10.57-6.3,14.7,4.9,12.91,4.38,12.62,7.57Z"/>
          <path class="cls-2" d="m45.92,57.37c-3.26,2.92,4.14,17.74,5.94,13.98,1.8-3.76-1.17-18.27-5.94-13.98Z"/>
          <path class="cls-2" d="m58.07,42.84c-4.34,4.13-5.69,8.57-2.24,5.68,3.45-2.89,4.95-8.27,2.24-5.68Z"/>
          <path class="cls-2" d="m2.62,48.52c-2.66,5.71,14.55,5.19,12.22,1.41-2.33-3.78-9.91-6.37-12.22-1.41Z"/>
          <path class="cls-2" d="m115.51,105.19c-2.89,3.82-3.3,13.14.52,8.24,3.83-4.9,1.5-10.92-.52-8.24Z"/>
          <path class="cls-16" d="m52.39,91.67c-4.72,1.43-5.49,23.25,1.49,20.9,6.98-2.35,2.83-22.21-1.49-20.9Z"/>
          <path class="cls-18" d="m56.86,114.82c-2.78,2.82-5.46,5.92-1.04,5.72,4.42-.2,2.25-6.95,1.04-5.72Z"/>
          <path class="cls-19" d="m110.56,135.97c-2.75,4.06,1.81,10.52,2.69,7.85.88-2.67-1.44-9.69-2.69-7.85Z"/>
          <path class="cls-9" d="m52.39,91.67c-2.1.94-6.26,6.86-3.18,11,3.08,4.14,8.86-.35,7.82-3.85s-2.73-7.99-4.64-7.14Z"/>
          <path class="cls-9" d="m54.07,118.03c-.43,1.55,4.6,1.04,4.39-.41-.21-1.45-.45-3.67-1.31-2.94-.86.73-2.67,1.88-3.08,3.35Z"/>
          <path class="cls-9" d="m110.84,135.67c-.64.32-1.94,2.57-.94,4.21s3.39.92,3.05-.85c-.34-1.77-1.02-3.91-2.11-3.36Z"/>
          <path class="cls-14" d="m48.77,104.32c-.02-1.05,2.74,1.37,4.17.79,1.43-.58,4.46-3.84,4.63-2.23.17,1.61-.49,10.93-4.63,9.6-4.14-1.33-4.15-6.54-4.17-8.16Z"/>
          <path class="cls-14" d="m53.65,118.97c.26-.83.95.38,1.74.33.8-.05,3.3-1.13,2.86-.37-.44.75-1.38,2.09-3.15,1.62-1.77-.47-1.6-1.09-1.45-1.57Z"/>
          <path class="cls-14" d="m109.93,140.8c.02-.52,1.13.71,1.99.38.86-.33.99-1.55,1.32-.85.33.7.64,4.06-.54,3.94-1.18-.12-2.81-2.65-2.77-3.47Z"/>
        </g>
      </g>
    </g>
  </g>
</svg>