<?xml version="1.0" encoding="UTF-8"?>
<svg xmlns="http://www.w3.org/2000/svg" xmlns:xlink="http://www.w3.org/1999/xlink" viewBox="0 0 162.66 153.82">
  <defs>
    <style>
      .cls-1 {
        fill: url(#_Áĺçűě_ííűé_ăđŕäčĺíň_533-4);
      }

      .cls-2 {
        fill: #ff7b00;
      }

      .cls-3, .cls-4, .cls-5, .cls-6, .cls-7 {
        fill: #fff;
      }

      .cls-4, .cls-8, .cls-9 {
        opacity: .5;
      }

      .cls-4, .cls-5, .cls-6, .cls-7 {
        mix-blend-mode: soft-light;
      }

      .cls-10 {
        opacity: .1;
      }

      .cls-10, .cls-8, .cls-9, .cls-11, .cls-12, .cls-13 {
        mix-blend-mode: multiply;
      }

      .cls-10, .cls-12, .cls-13 {
        fill: #f42774;
      }

      .cls-14 {
        fill: url(#linear-gradient-4);
      }

      .cls-14, .cls-15, .cls-16, .cls-17, .cls-18 {
        mix-blend-mode: screen;
      }

      .cls-15 {
        fill: url(#linear-gradient-2);
      }

      .cls-19 {
        mix-blend-mode: overlay;
      }

      .cls-19, .cls-20 {
        fill: #fff603;
      }

      .cls-21 {
        fill: url(#_Áĺçűě_ííűé_ăđŕäčĺíň_533);
      }

      .cls-22 {
        isolation: isolate;
      }

      .cls-8, .cls-11 {
        fill: #de376d;
      }

      .cls-16 {
        fill: url(#linear-gradient-6);
      }

      .cls-17 {
        fill: url(#linear-gradient-3);
      }

      .cls-9 {
        fill: #cf4a76;
      }

      .cls-23 {
        fill: url(#_Áĺçűě_ííűé_ăđŕäčĺíň_533-2);
      }

      .cls-18 {
        fill: url(#linear-gradient-5);
      }

      .cls-6 {
        opacity: .4;
      }

      .cls-11 {
        opacity: .7;
      }

      .cls-12 {
        opacity: .15;
      }

      .cls-13, .cls-7 {
        opacity: .2;
      }

      .cls-24 {
        fill: url(#_Áĺçűě_ííűé_ăđŕäčĺíň_533-3);
      }

      .cls-25 {
        fill: url(#linear-gradient);
      }
    </style>
    <linearGradient id="linear-gradient" x1="86.14" y1="21.1" x2="78.57" y2="181.47" gradientUnits="userSpaceOnUse">
      <stop offset="0" stop-color="#ffcf00"/>
      <stop offset="1" stop-color="#ff9600"/>
    </linearGradient>
    <linearGradient id="linear-gradient-2" x1="55.72" y1="-36.96" x2="112.65" y2="56.53" gradientUnits="userSpaceOnUse">
      <stop offset="0" stop-color="#fff601"/>
      <stop offset=".1" stop-color="#ece400"/>
      <stop offset=".3" stop-color="#bdb600"/>
      <stop offset=".58" stop-color="#706c00"/>
      <stop offset=".94" stop-color="#070700"/>
      <stop offset=".96" stop-color="#000"/>
    </linearGradient>
    <linearGradient id="linear-gradient-3" x1="-14.55" y1="12.37" x2="84.59" y2="98.28" gradientUnits="userSpaceOnUse">
      <stop offset="0" stop-color="#fff601"/>
      <stop offset=".1" stop-color="#ece400"/>
      <stop offset=".31" stop-color="#bdb600"/>
      <stop offset=".61" stop-color="#706c00"/>
      <stop offset=".97" stop-color="#070700"/>
      <stop offset="1" stop-color="#000"/>
    </linearGradient>
    <linearGradient id="linear-gradient-4" x1="-43.59" y1="77.7" x2="136.49" y2="170.27" xlink:href="#linear-gradient-3"/>
    <linearGradient id="linear-gradient-5" x1="143.12" y1="80.86" x2="109.18" y2="118.46" xlink:href="#linear-gradient-3"/>
    <linearGradient id="linear-gradient-6" x1="151.09" y1="125.05" x2="150.63" y2="134.88" xlink:href="#linear-gradient-3"/>
    <linearGradient id="_Áĺçűě_ííűé_ăđŕäčĺíň_533" data-name="Áĺçűě˙ííűé ăđŕäčĺíň 533" x1="20.78" y1="128.87" x2="20.78" y2="125.18" gradientUnits="userSpaceOnUse">
      <stop offset=".04" stop-color="#ef6300"/>
      <stop offset="1" stop-color="#e13e00"/>
    </linearGradient>
    <linearGradient id="_Áĺçűě_ííűé_ăđŕäčĺíň_533-2" data-name="Áĺçűě˙ííűé ăđŕäčĺíň 533" x1="15.47" y1="75.11" x2="15.47" y2="60.38" xlink:href="#_Áĺçűě_ííűé_ăđŕäčĺíň_533"/>
    <linearGradient id="_Áĺçűě_ííűé_ăđŕäčĺíň_533-3" data-name="Áĺçűě˙ííűé ăđŕäčĺíň 533" x1="22.12" y1="86.2" x2="22.12" y2="77" xlink:href="#_Áĺçűě_ííűé_ăđŕäčĺíň_533"/>
    <linearGradient id="_Áĺçűě_ííűé_ăđŕäčĺíň_533-4" data-name="Áĺçűě˙ííűé ăđŕäčĺíň 533" x1="148.05" y1="103.54" x2="148.05" y2="100.64" xlink:href="#_Áĺçűě_ííűé_ăđŕäčĺíň_533"/>
  </defs>
  <g class="cls-22">
    <g id="Vrstva_2" data-name="Vrstva 2">
      <g id="Layer_1" data-name="Layer 1">
        <g>
          <path class="cls-2" d="m10.03,44.15c-1.17,1.02,1.32,11.77,8.55,64.22,1.16,8.45-16.56,21.77-16.36,22.31.2.54,1.5,4.25,4.49,11.98.38.98,100.85,12.04,105.79,11.1,4.93-.94,41-9.43,42.18-10.8,3.83-4.43,6.5-12.56,6.5-12.56L10.03,44.15Z"/>
          <path class="cls-20" d="m6,139.68c.13.27-7.35-13.23-5.79-16.27,2.4-4.66,17.57-13.49,18.44-15.73s-2.33-26.9-2.33-26.9c0,0-8.66-40.18-7.04-41.81s8.43-4.67,9.51-5.37S49.21.62,54.57.01c5.37-.61,81.34,24.08,81.34,29.95s-12.01,56.73-11.1,58.18,37.23,7.22,37.73,10.85c.5,3.63-8.29,25.12-8.29,25.12,0,0,7.32,1.58,8.31,3.46.99,1.89-6.68,11.38-6.68,11.38l-149.89.74Z"/>
          <path class="cls-25" d="m161.18,130.41c-.17.48-.4,1.02-.66,1.58-.66,1.41-1.58,3.02-2.5,4.53-.1.17-.2.32-.29.48-.25.4-.49.77-.72,1.15-.06.08-.09.15-.14.22-.05.08-.09.13-.11.17,0,.02-.02.02-.02.04l-.02.02c-1.06,1.66-1.94,2.96-2.2,3.37-.77,1.29-34.85,8.99-40.81,10.58-.27.07-.47.13-.62.17-.2.06-.68.09-1.41.09-.55,0-1.23-.02-2.05-.06-.27-.02-.55-.02-.85-.04-.3-.02-.61-.04-.93-.06-.39-.02-.8-.05-1.23-.08-.28-.02-.58-.04-.88-.06-1.13-.08-2.37-.17-3.71-.28-.43-.03-.89-.07-1.34-.1-.24-.02-.49-.04-.73-.06h-.02c-3.57-.29-7.71-.66-12.23-1.07-.61-.06-1.22-.11-1.83-.17-1.22-.11-2.48-.23-3.76-.36-1.28-.12-2.58-.25-3.9-.38-.32-.03-.66-.06-.99-.09-.42-.04-.84-.08-1.26-.13-2.32-.23-4.7-.47-7.1-.71-.6-.06-1.2-.12-1.8-.18-.02,0-.05,0-.07,0-.54-.06-1.07-.11-1.6-.17-.13,0-.26-.02-.4-.04-.7-.07-1.39-.14-2.09-.21-.58-.06-1.17-.12-1.75-.18-.43-.05-.85-.09-1.29-.13-8.5-.89-17-1.82-24.65-2.68-.51-.06-1-.12-1.5-.17-.5-.06-.99-.11-1.47-.17-.76-.09-1.5-.17-2.24-.26-1.19-.13-2.34-.27-3.46-.4-.43-.06-.85-.1-1.27-.15-1.55-.19-3.03-.36-4.43-.54-.42-.05-.82-.1-1.22-.15-2.45-.31-4.65-.58-6.51-.84-1.11-.15-2.1-.28-2.96-.42-.08-.02-.17-.02-.24-.04-.06,0-.13-.02-.18-.02-.23-.03-.45-.06-.66-.1-.29-.04-.56-.09-.81-.13-.21-.03-.4-.06-.58-.09-.2-.04-.38-.07-.55-.1,0,0-.82-1.68-1.87-4.01-.09-.18-.17-.36-.24-.55-.84-1.87-1.78-4.09-2.55-6.18-.06-.18-.13-.36-.2-.54-.08-.23-.16-.45-.24-.67-.21-.62-.41-1.22-.58-1.78-.11-.37-.21-.73-.28-1.07-.05-.17-.09-.33-.12-.49,0,0,0-.02,0-.02-.06-.22-.09-.43-.13-.63-.13-.76-.13-1.37.02-1.75,0,0,0-.02,0-.02.11-.27.39-.63.8-1.07.37-.41.86-.89,1.44-1.42.05-.04.09-.09.15-.13h0c.22-.21.46-.43.7-.64,3.43-3.03,8.88-7.29,12.38-10.48.88-.79,1.63-1.52,2.2-2.13.81-.88,1.24-1.55,1.15-1.91,0-.02-.02-.06-.02-.1-.06-.25-.17-.81-.32-1.61-.12-.62-.26-1.38-.43-2.27-.98-5.31-2.73-15.21-4.43-25.6h0c-1.93-11.8-3.79-24.24-4.4-31.41-.04-.46-.07-.9-.1-1.31-.19-2.75-.13-4.48.26-4.74,3-1.96,9.46-4.81,9.46-4.81,0,0,19.97-21.17,29.91-29.68.34-.29.67-.57.99-.83,1.93-1.6,3.37-2.58,4.06-2.65h.02c.51-.06,1.26.02,2.24.18,11.85,2.01,55.88,18.76,71.99,26.02,3.49,1.57,5.67,2.7,5.93,3.14.05.09.06.36,0,.81v.04c-.06.64-.19,1.6-.39,2.82-.17,1.08-.4,2.37-.67,3.83-2.58,14.03-8.98,43.31-10.5,49.08-.14.51-.24.85-.29.96-.81,1.72,37.17,9.25,38.2,11.36,1.55,3.16-7.37,23.42-7,24.4t0,.02c.45.55,4.33,2.13,6.23,3.41.35.24.63.47.81.67l.02.02c.32.39.23,1.19-.13,2.21Z"/>
          <path class="cls-15" d="m134.89,31.6c-13.29,7.08-38.77,19.6-41.74,18.96-4.04-.86-32.7-17.96-33.51-18.82-.79-.85-6.04-28.4-4.91-30.3.51-.06,1.26.02,2.24.18,11.85,2.01,55.88,18.76,71.99,26.02,3.49,1.57,5.67,2.7,5.93,3.14.05.09.06.36,0,.81Z"/>
          <path class="cls-17" d="m57.42,81.05C33.56,64.35,10.36,39.34,10.36,39.34c3-1.96,9.46-4.81,9.46-4.81,2.55,1.33,48.9,43.27,49.71,44.8.81,1.54-10.23,3.03-12.11,1.71Z"/>
          <path class="cls-14" d="m107.38,134.39c0,.8-.1,1.49-.39,1.65-.6.36-3.34.36-7.59.09-8.13-.51-21.79-1.99-36.42-3.74-26.23-3.15-55.6-7.18-62.02-8.19,0,0,0-.02,0-.02.11-.25.36-.59.73-1,.37-.41.86-.89,1.44-1.42.05-.05.09-.09.15-.13.22-.21.46-.42.7-.63,3.4-3.03,8.85-7.29,12.38-10.48.88-.79,1.63-1.52,2.2-2.13.85-.91,1.32-1.61,1.23-1.98,3.55.41,87.42,25.23,87.42,25.23,0,0,.19,1.52.16,2.77Z"/>
          <path class="cls-18" d="m161.32,99.6c-5.86,3.18-54.53,6.78-56.29,6.79-1.75,0-12.64-9.02-11.43-9.56,1.21-.54,29.51-8.58,29.51-8.58-.81,1.72,37.17,9.25,38.2,11.36Z"/>
          <path class="cls-16" d="m161.29,128.18c-2.63,1.59-20.21,4.96-20.87,4.3-.64-.64,12.68-7.79,13.83-8.4t0,.02c.54.65,5.89,2.75,7.03,4.08Z"/>
          <path class="cls-4" d="m58.76,32.53c-.88.8-19.24,14.67-21.39,14.4-2.16-.27-17.56-12.4-17.56-12.4,0,0,21.37-22.66,30.9-30.51,2.85.81,8.92,27.72,8.05,28.51Z"/>
          <path class="cls-9" d="m111.75,152.74c-.55,0-1.26,0-2.12,0-.27-.02-.55-.02-.85-.04-.3-.02-.61-.04-.93-.06-.39-.02-.8-.05-1.23-.08-.28-.02-.58-.04-.88-.06-1.13-.08-2.37-.17-3.71-.28-.43-.03-.89-.07-1.34-.1-.24-.02-.49-.04-.73-.06h-.02c-3.57-.29-7.71-.66-12.23-1.07-.61-.06-1.22-.11-1.83-.17-1.22-.11-2.48-.23-3.76-.36-1.28-.12-2.58-.25-3.9-.38-.32-.03-.66-.06-.99-.09-.42-.04-.84-.08-1.26-.13-2.32-.23-4.7-.47-7.1-.71-.6-.06-1.2-.12-1.8-.18-.02,0-.05,0-.07,0-.54-.06-1.07-.11-1.6-.17-.13,0-.26-.02-.4-.04-.7-.07-1.39-.14-2.09-.21-.58-.06-1.17-.12-1.75-.18-.43-.05-.86-.09-1.29-.13-8.5-.89-17-1.82-24.65-2.68-.51-.06-1-.12-1.5-.17-.5-.06-.99-.11-1.47-.17-.76-.09-1.5-.17-2.24-.26-1.19-.13-2.34-.27-3.46-.4-.43-.05-.85-.1-1.27-.15-1.55-.19-3.03-.36-4.43-.54-.42-.05-.82-.1-1.22-.15-2.45-.31-4.65-.58-6.51-.84-1.11-.15-2.09-.29-2.96-.42-.08-.02-.17-.02-.24-.04-.06,0-.13-.02-.18-.02-.23-.03-.45-.06-.66-.1-.29-.04-.56-.09-.81-.13-.21-.03-.4-.06-.58-.09-.2-.04-.38-.07-.55-.1,0,0-.82-1.68-1.87-4.01-.09-.18-.17-.36-.24-.55-.84-1.87-1.78-4.09-2.55-6.18-.06-.18-.13-.36-.2-.54-.08-.23-.16-.45-.24-.67-.21-.62-.41-1.22-.58-1.78-.11-.37-.21-.73-.28-1.07-.05-.17-.09-.33-.12-.49,0,0,0-.02,0-.02,0-.26-.02-.5-.06-.7,11.12.34,105.96,10.79,107.25,11.44.3.15.66.89,1.02,1.97,1.19,3.51,2.53,10.65,2.53,13.39Z"/>
          <path class="cls-13" d="m134.51,34.46c-1.87,11.55-9.49,46.54-11.17,52.9-7.34,2.05-24.08,7.12-28.62,6.88-1.34-.07-2.73-42,0-43.21,2.26-1,29.21-13.21,39.79-16.57Z"/>
          <path class="cls-13" d="m161.18,130.41c-.58,1.69-1.87,3.99-3.15,6.11-.1.17-.2.32-.29.48-.25.4-.49.77-.72,1.15-.06.08-.09.15-.14.22-.05.08-.09.13-.11.17,0,.02-.02.02-.02.04l-.02.02c-1.06,1.66-1.94,2.96-2.2,3.37-.77,1.29-34.85,8.99-40.81,10.58-3.37-10.84-12.22-42.26-8.27-44.19,4.76-2.32,54.48-7.67,54.28-6.05-.21,1.61-5.96,20.38-6.96,21.09-1.01.71-15.34,9.38-14.63,9.89h0c.78.47,18.66-3.42,23.04-2.88Z"/>
          <path class="cls-9" d="m104.45,129.66c-1.39.85-22.93-5.22-44.22-11.7-.06-.02-.14-.04-.23-.06-6.01-1.84-12-3.71-17.51-5.46-.07-.02-.15-.05-.22-.06-3.11-1-6.05-1.95-8.76-2.84-.06-.02-.12-.04-.18-.06-6.31-2.07-11.31-3.79-13.92-4.83-.11-.58-.26-1.3-.45-2.15-.98-5.31-2.73-15.21-4.43-25.6h0c-1.93-11.8-3.79-24.24-4.4-31.41,14.47,8.59,41.44,33.79,46.22,35.78,4.13,1.72,13.78,0,14.05-1.43.51-2.68-30.36-28.94-31.07-30.99-.69-2.03,18.54-14.94,20.71-15.22,2.17-.27,31.68,15.88,32.48,17.76.81,1.89.04,35.57-.4,45.96-.09,2.37,8.39,6.12,10.19,10.75,1.07,2.73,3.83,20.54,2.13,21.59Z"/>
          <path class="cls-4" d="m62.26,117.95s-5.92-33.83-3.41-34.91c2.5-1.08,12.29-3.2,12.69-1.8.4,1.4,6.1,39.71,3.73,40.11-2.36.4-11.8-2.5-13.01-3.4Z"/>
          <path class="cls-20" d="m134.89,31.6v.04c-.06.64-.19,1.6-.39,2.82-.17,1.08-.4,2.37-.67,3.83-4.6-3.41-17.62,5.48-20.01,6.83-2.51,1.41-15.18,3.67-18.41,5.58-3.23,1.92-1.2,41.71-1.9,42.34-.7.62-2.09-39.75-2.6-40.96-.51-1.22-25.74-16.43-29.66-16.04-3.85.38-21.38,10.82-21.92,11.2.52-.44,17.22-12.99,18.18-15.13.99-2.17-2.65-25.56-3.34-26.94-.3-.59-2.3-.52-4.51-.24.34-.29.67-.57.99-.83,1.93-1.6,3.37-2.58,4.06-2.65h.02c.51-.06,1.26.02,2.24.18-1.15,6.5,3.44,25.2,4.35,28.76,1.01,3.94,29.05,18.6,32.92,19.09,3.86.49,33.17-12.44,34.91-18.79.3-1.09.31-2.06-.2-3.03,3.49,1.57,5.67,2.7,5.93,3.14.05.09.06.36,0,.81Z"/>
          <path class="cls-20" d="m12.04,41.12c-1.43-1.08,12.44,12.87,22.02,24.27,2.76,3.28,19.45,12.72,22.28,18.16.9,1.72,4.98,28.8,4.92,28.42-.06-.38-2.03-24.78-1.22-26.7.81-1.92,9.54-3.59,10.69-2.82,1.16.77,4.09,22.47,4,21.7-.09-.77-.97-22.24-5.17-26.55-12.05-12.39.86,2.75-1.66,3.2-2.52.45-9.51.7-11.57-.44-2.05-1.13-42.46-37.83-44.3-39.22Z"/>
          <path class="cls-20" d="m109.72,138.44s0,0,0,0c-.67-1.93-2.96-7.93-2.96-7.93,0,0,.54,1.89-.5,3.67-.49.83-1.93,1.06-3.32,1.08-13.97-2.35-42.4-4.18-47.19-4.65-6.19-.61-45.91-5.11-49.37-6.57-2.24-.94-2.93-1.53-3.08-2.4h0c-.06.04-.1.08-.15.13-.58.54-1.07,1.01-1.44,1.42-.41.44-.69.81-.8,1.07,0,0,0,.02,0,.02-.15.38-.14.99-.02,1.75.03.2.07.41.13.63,0,0,0,.02,0,.02.11.52.27,1.11.45,1.72.02-.03.05-.07.06-.1,2.54-4.58,30.63,1.87,53.69,3.64,35.85,2.76,48.96,4.68,53.41,8.68,2.17,1.95,3.89,12.11,3.89,12.11,0,0-.89-9.83-2.77-14.29Z"/>
          <path class="cls-20" d="m93.61,96.83c-1.28,1.23,6.27,6.55,7.68,9.56s4.83,17.44,4.74,17.01c-.09-.42-1.38-13.21.72-15.19,3.23-3.03,24.55-2.12,27.75-2.52,3.21-.4,28.14-5.55,26.67-5.55-1.05,0-14.57,1.92-29.61,3.53-15.03,1.61-25.22,3.28-27.74,1.46-2.52-1.82-10.22-8.31-10.22-8.31Z"/>
          <path class="cls-20" d="m156.73,138.58s.02-.02.03-.04c0,.02-.02.02-.02.04h0Z"/>
          <path class="cls-20" d="m161.31,128.2l-.02-.02c-.17-.21-.46-.43-.81-.67-1.31,1.76-7.07,2.52-9.27,2.92-2.4.43-12.51,2.85-13.07,2.85l-.24-.03c-.27,1.28,19.74-2.42,21.59-1.95,1.18.3-.26,3.17-1.46,5.22,1.29-2.12,2.57-4.42,3.15-6.11.36-1.03.45-1.83.13-2.21Z"/>
          <path class="cls-6" d="m96.97,91.38c-3.62-1.64-2.62-37.18,1.41-36.78s26.09,24.23,21.59,29.62-18.43,9.23-23,7.16Z"/>
          <path class="cls-5" d="m64.89,27.19c-1.3-1.65-3.43-17.03,0-18.93,3.43-1.9,54.08,16.8,51.45,18.55-2.62,1.75-36.39-8.23-41.6-5.87-5.21,2.37-7.43,9.31-9.85,6.24Z"/>
          <path class="cls-5" d="m14.34,39.86c.91.69,38.24,26.84,37.23,25.53-1.01-1.31-30.01-29.46-31.75-28.96-1.74.5-6.59,2.6-5.48,3.43Z"/>
          <path class="cls-10" d="m21.86,34.53c.72.57,15.94,11.49,15.89,10.98-.05-.5-10.64-10.57-11.25-10.98-.61-.42-5.37-.57-4.64,0Z"/>
          <path class="cls-13" d="m102.99,151.41c-.34.1-.72.2-1.13.29-.57.13-1.22.25-1.92.38h-.02c-3.57-.29-7.71-.66-12.23-1.07-.61-.06-1.22-.11-1.83-.17-1.22-.11-2.48-.23-3.76-.36-1.28-.12-2.58-.25-3.9-.38-.32-.03-.66-.06-.99-.09-.42-.04-.84-.08-1.26-.13-2.32-.23-4.7-.47-7.1-.71-.6-.06-1.2-.12-1.8-.18-.02,0-.05,0-.07,0-.54-.06-1.07-.11-1.6-.17-.13,0-.26-.02-.4-.04-.7-.07-1.39-.14-2.09-.21-.58-.06-1.17-.12-1.75-.18-.43-.05-.86-.09-1.29-.13-8.5-.89-17-1.82-24.65-2.68-.51-.06-1-.12-1.5-.17-.5-.06-.99-.11-1.47-.17-.76-.09-1.5-.17-2.24-.26-1.19-.13-2.34-.27-3.46-.4-.43-.05-.85-.1-1.27-.15-1.55-.19-3.03-.36-4.43-.54-.42-.05-.82-.1-1.22-.15-2.45-.31-4.65-.58-6.51-.84-1.11-.15-2.09-.29-2.96-.42-.08-.02-.17-.02-.24-.04.04-1.08.12-2.26.24-3.44.51-4.81,1.79-9.74,4.06-9.25,3.85.84,80.72,12.27,90.15,19.09.28.21.51.4.66.6.62.77-.14,1.43-2,1.98Z"/>
          <path class="cls-13" d="m21.78,103.63c-1.6-1.84-9.36-47.62-6.63-49.03,2.72-1.41,35.51,29.26,37.63,34.71,2.12,5.45,11.21,27.23,6.07,26.94-5.14-.29-32.75-7.67-37.07-12.61Z"/>
          <path class="cls-13" d="m78.61,121.36c-1.67-1.5-6.93-35.99-3.87-36.9,3.06-.91,37.45,43.16,27.38,43.87-10.07.71-20.74-4.48-23.51-6.96Z"/>
          <path class="cls-8" d="m160.52,131.99c-.66,1.41-1.58,3.02-2.5,4.53-.1.17-.2.32-.29.48-.25.4-.49.77-.72,1.15-.06.08-.09.15-.14.22-.05.08-.09.13-.11.17,0,.02-.02.02-.02.04l-.02.02c-1.06,1.66-1.94,2.96-2.2,3.37-.77,1.29-34.85,8.99-40.81,10.58-.27.07-.47.13-.62.17-.2.06-.68.09-1.41.09-.55,0-1.23-.02-2.05-.06-.27-.02-.55-.02-.85-.04-.3-.02-.61-.04-.93-.06-.39-.02-.8-.05-1.23-.08-.28-.02-.58-.04-.88-.06-1.13-.08-2.37-.17-3.71-.28-.43-.03-.89-.07-1.34-.1-.24-.02-.49-.04-.73-.06h-.02c-3.57-.29-7.71-.66-12.23-1.07-.61-.06-1.22-.11-1.83-.17-1.22-.11-2.48-.23-3.76-.36-1.28-.12-2.58-.25-3.9-.38-.32-.03-.66-.06-.99-.09-.42-.04-.84-.08-1.26-.13-2.32-.23-4.7-.47-7.1-.71-.6-.06-1.2-.12-1.8-.18-.02,0-.05,0-.07,0-.54-.06-1.07-.11-1.6-.17-.13,0-.26-.02-.4-.04-.7-.07-1.39-.14-2.09-.21-.58-.06-1.17-.12-1.75-.18-.43-.05-.86-.09-1.29-.13-8.5-.89-17-1.82-24.65-2.68-.51-.06-1-.12-1.5-.17-.5-.06-.99-.11-1.47-.17-.76-.09-1.5-.17-2.24-.26-1.19-.13-2.34-.27-3.46-.4-.43-.05-.85-.1-1.27-.15-1.55-.19-3.03-.36-4.43-.54-.42-.05-.82-.1-1.22-.15-2.45-.31-4.65-.58-6.51-.84-1.11-.15-2.1-.28-2.96-.42-.08-.02-.17-.02-.24-.04-.06,0-.13-.02-.18-.02-.23-.03-.45-.06-.66-.1-.29-.04-.56-.09-.81-.13-.21-.03-.4-.06-.58-.09-.2-.04-.38-.07-.55-.1,0,0-.82-1.68-1.87-4.01-.09-.18-.17-.36-.24-.55-.84-1.87-1.78-4.09-2.55-6.18-.06-.18-.13-.36-.2-.54-.08-.23-.16-.45-.24-.67.77-.17,1.93.95,2.51,2.06,1.09,2.12-.04,3.68,5.63,6.91,1.15.66,2.62,1.3,4.46,1.9,10.89,3.54,36.8-3.56,49.84,0,11.81,3.22,32.21,10.87,37.44,10.81.55,0,.93-.1,1.12-.28h0c.45-.46.89-1.41,1.34-2.58,1.26-3.32,2.66-8.47,4.89-9.48.49-.23,1.02-.25,1.6,0,4.17,1.74,5.41,7.09,13.32,7.93,7.18.77,27.8-13.91,36.39-15.28Z"/>
          <path class="cls-8" d="m74.54,101.09c-.02-.44,3.82,10.95,6.6,17.27,2.78,6.32,21.86,3.09,22.81,0,.95-3.09,5.56,10.77.5,11.3-5.06.54-29.73-4.22-29.17-8.3.56-4.09-.64-17.98-.74-20.27Z"/>
          <path class="cls-8" d="m60.4,118s-.1-.03-.17-.05c-.06-.02-.14-.04-.23-.06-4.26-1.15-30.96-7.4-40.3-11.53-.06-.25-.17-.81-.32-1.61-.12-.62-.26-1.38-.43-2.27-.98-5.31-2.73-15.21-4.43-25.6.94,3.34,2.13,6.94,3.68,10.54,2.24,5.18,5.2,10.38,9.21,14.83,9.48,10.54,27.01,5.74,31.77,4.87.71-.13,1.14-.17,1.21-.06.54.85,2.94,11.84,0,10.94Z"/>
          <path class="cls-6" d="m116.44,148.62c-2.21-3.72-11.78-31.68-2.61-35.11,9.17-3.43,40.04-4.44,37.02,0-3.03,4.44-31.89,39.35-34.41,35.11Z"/>
          <path class="cls-7" d="m45.99,48.83c.65,1.93,22.46,24.29,24.89,24.44,2.42.16-4.92-33.88-7.84-34.28-2.92-.4-18.39,5.82-17.04,9.84Z"/>
          <path class="cls-10" d="m94.75,45.53c-7-2.49-34.18-21.16-32.92-24.58,1.26-3.42,2.13-9.49,7.74-7.76,5.61,1.73,27.01,33,25.18,32.35Z"/>
          <path class="cls-10" d="m9.87,123.41c1.45-2.77,10.16-13.94,14.73-12.86s48.85,12.87,46.76,14.31c-2.1,1.44-62.81,1.08-61.49-1.44Z"/>
          <path class="cls-12" d="m43.9,77.12c-1.1.76-1.41,8.85,1.26,6.43,2.67-2.42.66-7.77-1.26-6.43Z"/>
          <path class="cls-12" d="m46.45,86.73c-.53,2.27,2.6,4.89,2.95,2.77s-2.47-4.84-2.95-2.77Z"/>
          <path class="cls-12" d="m24.63,95.66c.45,1.41,2.62,3.73,2.32,1.81-.3-1.91-2.77-3.22-2.32-1.81Z"/>
          <path class="cls-12" d="m150.84,105.84c-2.14.8-2.49,6.19.94,4.27,3.43-1.92,2.82-5.69-.94-4.27Z"/>
          <path class="cls-12" d="m117.08,140.48c-.09,1.56,2.69,5.78,2.69,3.3s-2.56-5.58-2.69-3.3Z"/>
          <path class="cls-12" d="m114.19,138.54c-2.59,1.47-5.58-1.47-3.36-2.22,2.22-.75,4.62,1.5,3.36,2.22Z"/>
          <path class="cls-12" d="m116.27,67.44c-1.75,1.75-3.58,5.07-.88,4.01,2.7-1.05,4.18-3.81,3.04-4.01-1.14-.2-2.15,0-2.15,0Z"/>
          <path class="cls-12" d="m119.77,58.04c-.3,1.92,1.21,5.9,1.82,3.48.61-2.42-1.48-5.61-1.82-3.48Z"/>
          <path class="cls-12" d="m84.26,84.44c-.69,2.39,3.19,5.93,2.87,3.18-.32-2.76-2.4-4.8-2.87-3.18Z"/>
          <path class="cls-12" d="m87.15,53.31c-1.82.41-2.69,6.3-.54,4.02,2.15-2.28,2.01-4.36.54-4.02Z"/>
          <path class="cls-5" d="m24.58,32.06c-1.15-.86,25.96-25.96,27.01-24.62,1.06,1.35-23.4,27.31-27.01,24.62Z"/>
          <path class="cls-6" d="m100.25,97.32c-.83,1.18,4.85,6,6.54,6.21,1.69.2,45.42-2.42,45.67-4.04.25-1.61-27.24-9.23-28.45-8.83-1.21.4-23.15,5.8-23.76,6.66Z"/>
          <path class="cls-6" d="m60.4,5.46c-2.37,1.39,4.99,24.81,9.83,28.7,4.84,3.89,23.1,14.7,25.73,12.77,2.62-1.92,32.71-11.63,30.35-16.55S63.85,3.44,60.4,5.46Z"/>
          <path class="cls-3" d="m91.42,48.83c-1.15,1.98-1.16,9.3,1.21,7.94,2.37-1.36,2.03-6.26,1.66-6.81-.37-.55-2.09-2.47-2.88-1.13Z"/>
          <path class="cls-3" d="m92.28,61.15c-.74,2.36.05,8.13.71,4.69s-.08-6.72-.71-4.69Z"/>
          <path class="cls-3" d="m131.37,29.98c-2.39.19-7.87,6-2.52,5.25,5.35-.76,6.91-5.6,2.52-5.25Z"/>
          <path class="cls-3" d="m103.12,105.19c-2.06,1.35-2.17,3.61.05,4.93,2.22,1.33,4.63-1.36,4.21-2.47-.42-1.1-2.42-3.67-4.26-2.47Z"/>
          <path class="cls-3" d="m135.66,103.54c-2.65-.05-6.26,1.58-2.27,1.34,3.99-.24,4.68-1.3,2.27-1.34Z"/>
          <path class="cls-3" d="m57.7,81.24c-3.42.94-1.27,10.74,1.21,7.38,2.48-3.36,2.15-8.3-1.21-7.38Z"/>
          <path class="cls-3" d="m54.04,2.33c-1.46,1.72,2.07,13.72,2.77,8.73.71-4.99-.76-11.1-2.77-8.73Z"/>
          <path class="cls-21" d="m19.82,125.69c-4.01,1.38-8.65.68-5.25,1.81,3.4,1.14,13.92,1.91,13.59.88s-3.1-4.51-8.34-2.69Z"/>
          <path class="cls-23" d="m12.23,62.16c-.07-.84,2.95-3.56,4.8,0,1.85,3.56,2.12,12.84,1.08,12.94s-5.09-3.39-5.88-12.94Z"/>
          <path class="cls-24" d="m20.78,77.7c-1.77,2.77.57,11.1,2.59,7.7s-.69-10.67-2.59-7.7Z"/>
          <path class="cls-1" d="m149.7,100.7c-3.26-.56-7.16,2.85-3.6,2.84,3.56-.01,7.73-2.13,3.6-2.84Z"/>
          <path class="cls-11" d="m12.63,65.28c.1.56,2.34,6.66,3.95,4.32,1.61-2.35,1.47-5.56.69-6.92s-.84-2.54-3.09-1.91c-2.26.63-2.1,1.32-1.55,4.51Z"/>
          <path class="cls-11" d="m21.77,76.91c-.73.05-2.88,2.56-.94,4.69,1.93,2.14,3.27-.51,3-1.46-.27-.94-.88-3.32-2.06-3.24Z"/>
          <path class="cls-11" d="m22.83,125.18c-.9.15-4.69-.12-4.12,1.06.57,1.18,10.04,2.85,8.89,1.21-1.15-1.65-3.35-2.51-4.77-2.27Z"/>
          <path class="cls-11" d="m144.95,102.3c-.37.39,2.38.41,3.97-.21,1.59-.62,2.57-.85,1.8-1.13-.77-.28-3.57-.98-5.77,1.34Z"/>
          <path class="cls-19" d="m13.76,69.51c.11-.35,1.65,1.73,2.39,1.26.74-.47,1.19-3.51,1.93-2.39.74,1.13,1.43,6.36,0,6.51-1.43.15-4.7-4.22-4.33-5.38Z"/>
          <path class="cls-19" d="m20.31,82.37c.15-.45,1.16.91,2.07.64.91-.27,1.68-2.13,1.69-1.23,0,.91-.26,4.39-1.64,4.09-1.38-.3-2.27-3.04-2.12-3.5Z"/>
          <path class="cls-19" d="m13.87,127.02c-.62-.23,2.9-.89,4.34-.38,1.43.51,4.88,1.71,6.43,1.6,1.55-.11,3.82-.5,3.36,0-.45.5-8.12,1-14.12-1.22Z"/>
          <path class="cls-19" d="m144.82,102.67c-.05-.19,2.26.34,3.3-.1,1.05-.43,2.81-1.49,3.05-1.24.24.25-.52,1.58-2.89,1.96s-3.24.13-3.46-.62Z"/>
        </g>
      </g>
    </g>
  </g>
</svg>