<?xml version="1.0" encoding="UTF-8"?>
<svg xmlns="http://www.w3.org/2000/svg" xmlns:xlink="http://www.w3.org/1999/xlink" viewBox="0 0 172.81 163.92">
  <defs>
    <style>
      .cls-1 {
        fill: url(#_Áĺçűě_ííűé_ăđŕäčĺíň_533-4);
      }

      .cls-2 {
        fill: #ff7b00;
      }

      .cls-3, .cls-4, .cls-5, .cls-6 {
        fill: #fff;
      }

      .cls-4, .cls-7, .cls-8 {
        opacity: .5;
      }

      .cls-4, .cls-5, .cls-6 {
        mix-blend-mode: soft-light;
      }

      .cls-9 {
        opacity: .1;
      }

      .cls-9, .cls-7, .cls-8, .cls-10, .cls-11, .cls-12 {
        mix-blend-mode: multiply;
      }

      .cls-9, .cls-11, .cls-12 {
        fill: #f42774;
      }

      .cls-13 {
        fill: url(#linear-gradient-4);
      }

      .cls-13, .cls-14, .cls-15, .cls-16 {
        mix-blend-mode: screen;
      }

      .cls-14 {
        fill: url(#linear-gradient-2);
      }

      .cls-17 {
        mix-blend-mode: overlay;
      }

      .cls-17, .cls-18 {
        fill: #fff603;
      }

      .cls-19 {
        fill: url(#_Áĺçűě_ííűé_ăđŕäčĺíň_533);
      }

      .cls-20 {
        isolation: isolate;
      }

      .cls-7, .cls-10 {
        fill: #de376d;
      }

      .cls-15 {
        fill: url(#linear-gradient-3);
      }

      .cls-8 {
        fill: #cf4a76;
      }

      .cls-21 {
        fill: url(#_Áĺçűě_ííűé_ăđŕäčĺíň_533-2);
      }

      .cls-16 {
        fill: url(#linear-gradient-5);
      }

      .cls-6 {
        opacity: .4;
      }

      .cls-10 {
        opacity: .7;
      }

      .cls-11 {
        opacity: .15;
      }

      .cls-12 {
        opacity: .2;
      }

      .cls-22 {
        fill: url(#_Áĺçűě_ííűé_ăđŕäčĺíň_533-3);
      }

      .cls-23 {
        fill: url(#linear-gradient);
      }
    </style>
    <linearGradient id="linear-gradient" x1="78.93" y1="7.7" x2="91.01" y2="176.85" gradientUnits="userSpaceOnUse">
      <stop offset="0" stop-color="#ffcf00"/>
      <stop offset="1" stop-color="#ff9600"/>
    </linearGradient>
    <linearGradient id="linear-gradient-2" x1="95.87" y1="-8.47" x2="110.71" y2="53.93" gradientUnits="userSpaceOnUse">
      <stop offset="0" stop-color="#fff601"/>
      <stop offset=".1" stop-color="#ece400"/>
      <stop offset=".31" stop-color="#bdb600"/>
      <stop offset=".61" stop-color="#706c00"/>
      <stop offset=".97" stop-color="#070700"/>
      <stop offset="1" stop-color="#000"/>
    </linearGradient>
    <linearGradient id="linear-gradient-3" x1="28.95" y1="63.01" x2="61.94" y2="110.15" xlink:href="#linear-gradient-2"/>
    <linearGradient id="linear-gradient-4" x1="142.89" y1="98.96" x2="135.5" y2="130.14" xlink:href="#linear-gradient-2"/>
    <linearGradient id="linear-gradient-5" x1="-18.04" y1="90.77" x2="53.99" y2="148.99" xlink:href="#linear-gradient-2"/>
    <linearGradient id="_Áĺçűě_ííűé_ăđŕäčĺíň_533" data-name="Áĺçűě˙ííűé ăđŕäčĺíň 533" x1="38.21" y1="121.78" x2="38.21" y2="115.38" gradientUnits="userSpaceOnUse">
      <stop offset=".04" stop-color="#ef6300"/>
      <stop offset="1" stop-color="#e13e00"/>
    </linearGradient>
    <linearGradient id="_Áĺçűě_ííűé_ăđŕäčĺíň_533-2" data-name="Áĺçűě˙ííűé ăđŕäčĺíň 533" x1="86.18" y1="92.79" x2="86.18" y2="73.38" xlink:href="#_Áĺçűě_ííűé_ăđŕäčĺíň_533"/>
    <linearGradient id="_Áĺçűě_ííűé_ăđŕäčĺíň_533-3" data-name="Áĺçűě˙ííűé ăđŕäčĺíň 533" x1="89.88" y1="99.12" x2="89.88" y2="95.54" xlink:href="#_Áĺçűě_ííűé_ăđŕäčĺíň_533"/>
    <linearGradient id="_Áĺçűě_ííűé_ăđŕäčĺíň_533-4" data-name="Áĺçűě˙ííűé ăđŕäčĺíň 533" x1="160.38" y1="125.18" x2="160.38" y2="119.53" xlink:href="#_Áĺçűě_ííűé_ăđŕäčĺíň_533"/>
  </defs>
  <g class="cls-20">
    <g id="Vrstva_2" data-name="Vrstva 2">
      <g id="Layer_1" data-name="Layer 1">
        <g>
          <path class="cls-18" d="m168.2,134.58c-2.17,8.18-4.38,14.99-4.74,14.88-.89-.27-156.12-12.19-156.12-12.19,0,0-1.6-3.08-3.31-6.7,0,0,0-.03-.02-.04-2.24-4.76-4.65-10.42-3.86-11.23.24-.24.89-.63,1.84-1.12,2.16-1.13,5.83-2.85,9.42-4.72h0c1.29-.67,2.57-1.36,3.77-2.04.31-.17.6-.35.89-.53,2.35-1.4,4.25-2.78,5.06-3.94.68-.97,1.15-2.8,1.53-5.06v-.02c1.25-7.39,1.47-19.3,4.19-20.55,3.55-1.62,20.7-2.86,21.83-4.41s-1.8-8.83-2.5-11.1c-.02-.04-.03-.08-.04-.12-.27-.83-1.09-2.93-2.1-5.47-.02-.03-.03-.06-.04-.08-2.2-5.54-5.27-13.11-5.38-14.14C38.45,44.47,64.87.34,72.28,0c7.4-.34,65.97,38.89,65.74,40.66-.91,7.11-1.93,14.51-2.96,21.67-3.32,23.1-6.73,43.64-6.73,43.64,0,0,8.32-.65,18.44-.67,8.33-.01,17.88.39,24.99,1.92,2.73.59-.38,15.43-3.56,27.36Z"/>
          <path class="cls-2" d="m4.27,131.2s5.08,13.42,6.1,14.83c1.02,1.4,18.89,15.45,23.13,14.89,2.7-.35,48.98-10.33,53.13-10.68,1.91-.16,7.86,11.3,14.31,12.51,4.14.78,58.53,2.44,60.96-.5,2.43-2.94,6.89-29.88,6.89-29.88l-164.52-1.17Z"/>
          <path class="cls-23" d="m171.31,115.8c-.15,1.26-.34,2.64-.56,4.11-1.84,12.56-5.81,31.69-8.58,38.83-.63,1.65-1.2,2.66-1.67,2.8-.28.08-.75.16-1.39.23-9.55,1.02-56.27.13-58.18-.23-.13-.03-.28-.07-.43-.15-.26-.1-.54-.27-.85-.48-.09-.06-.18-.13-.27-.2-2.62-1.95-6.69-6.89-9.74-9.71-.71-.64-1.36-1.18-1.92-1.54-.45-.29-.85-.47-1.18-.51-.16-.02-.44,0-.83.04-.48.06-1.12.17-1.91.32-1.63.3-3.86.78-6.5,1.38-12.48,2.8-33.89,8.11-41.78,9.27-1.29.2-2.21.28-2.68.22-.17-.02-.35-.06-.55-.12-.23-.06-.48-.15-.75-.26-5.54-2.12-19.06-12.49-20.48-14.26-.25-.31-.62-.92-1.08-1.75-1.73-3.14-4.63-9.44-6.55-14.85h0c-.52-1.49-.98-2.91-1.31-4.18-.66-2.5-.86-4.41-.24-5.09l.1-.1c1.92-1.78,17.7-10.54,18.7-11.56.05-.05.11-.15.17-.29h0c.09-.2.19-.45.3-.77,1.01-2.87,3.06-10.76,5.02-17.04.23-.76.47-1.51.7-2.21,1.14-3.47,2.2-6.08,2.92-6.41.25-.11.9-.27,1.82-.45.45-.09.96-.19,1.53-.29,5.79-1.07,16.82-2.75,17.08-3.64.16-.53-2.21-6.42-4.75-12.98-.02-.04-.03-.08-.04-.11-1.84-4.77-3.77-9.88-4.87-13.54-.65-2.18-1.02-3.84-.9-4.61.33-2.17,15.56-26.22,25.61-37.75h0l.02-.02c3.2-3.67,5.88-6.07,7.38-6.07.46,0,1.3.27,2.45.77,0,.01.03.01.04.02,12.42,5.4,60.95,36.95,61.17,39.31v.05c.03.38.06.85.06,1.41v.27c.03,11.6-5.44,54.92-6.16,60.5,0,.07,0,.13-.02.19,0,0,35.5,1.61,41.19,3.88.54.22.44,3.16-.09,7.57Z"/>
          <path class="cls-14" d="m136.42,43.42c-15.38,3.62-42.68,7.58-49.76,5.13-9.88-3.4-15.69-44.65-14.13-45.28.78-.32,1.66-.52,2.62-.64,12.36,5.36,60.99,36.97,61.21,39.33.03.39.06.88.06,1.46Z"/>
          <path class="cls-15" d="m63.65,102.82c-8.05,4.37-29.48-15.91-30.64-17.53-1.26-1.76-1.57-3.24-1.41-4.45,5.06-1.02,18.32-2.95,18.61-3.93,0,0,14.26,25.47,13.44,25.91Z"/>
          <path class="cls-13" d="m171.4,108.23c-1.47,10.91-13.97,17.43-18.06,18.32-4.08.9-43.4-7.66-45.57-8.55-2.17-.9,22.44-13.65,22.44-13.65,0,0,35.5,1.61,41.19,3.88Z"/>
          <path class="cls-17" d="m135.88,42.23c.16-.09.28-.16.36-.2-.08.05-.2.11-.36.2Z"/>
          <path class="cls-17" d="m136.36,41.96s0,.01-.03.02h0s.03-.02.03-.02Z"/>
          <path class="cls-16" d="m34.36,135.74c-1.53.51-28.21-10.85-30.63-12.89-.88-.74-1.42-1.96-1.76-3.28,1.92-1.78,17.7-10.54,18.7-11.56.05-.05.11-.15.17-.29,5.56,7.29,17.66,23.88,17.86,24.64.26.96-2.8,2.87-4.34,3.38Z"/>
          <path class="cls-18" d="m107.77,118s42.73,9.54,45.57,8.55c2.84-.99,9.92-5.06,12.22-8.55,2.3-3.49,5.84-9.77,5.84-9.77,0,0-1.16,9-6.27,12.49-5.11,3.49-10.47,5.62-11.06,6.89-.6,1.28,6.04,32.17,6.04,32.17,0,0-6.13-29.79-10.55-31.4-4.43-1.62-17.11-2.38-23.66-4.17-6.55-1.79-18.13-6.21-18.13-6.21Z"/>
          <path class="cls-18" d="m2.24,120.44c-.07-.24,1.71,2.07,3.66,2.84,1.96.77,25.36,12.51,27.83,11.57,2.47-.94,4.33-1.83,4.97-2.49.64-.66-.8,2.4-2.17,4.19-1.36,1.79-3.06,22.3-3.32,22.38-.26.09,2.81-21.28,0-22.04-2.81-.77-28.77-8.48-30.98-16.45Z"/>
          <path class="cls-8" d="m87.72,149.46c-.45-.29-.85-.47-1.18-.51-.16-.02-.44,0-.83.04-4.88-7.76-15.93-31.22-25.91-53.12-5.52-12.1-10.7-23.72-14.34-31.94-.02-.04-.03-.08-.04-.11-1.24-3.21-2.52-6.58-3.55-9.55-.51-1.44-.96-2.79-1.32-3.99,3.28-6.23,29.25-14.55,32.75-14.55,2.74,0,7.4,8.61,10.72,14.1,3.03,5.01,3.62,85.49,3.7,99.63Z"/>
          <path class="cls-8" d="m159.11,161.77c-9.55,1.02-56.27.13-58.18-.23-.13-.03-.28-.07-.43-.15.52-9.3,2.55-41.4,5.61-42.06,1.74-.37,11.14,2.91,21.13,4.99,10.51,2.19,21.62,3.25,23.04,5.21,2.43,3.37,9.42,24.85,8.83,32.24Z"/>
          <path class="cls-8" d="m32.29,160.06c-4.94-1.35-19.74-12.66-21.23-14.52-1.47-1.83-7.08-13.68-8.95-20.78,3.52.85,9.37,5.04,15.69,7.6,7.4,2.99,15.1,4.41,15.36,5.47.54,2.29.54,16.09-.87,22.23Z"/>
          <path class="cls-8" d="m39.94,131.45c-.97,1.18-15.23-17.04-18.8-24.5,1.01-2.87,3.06-10.76,5.02-17.04,1.53-2.69,4.09-5.02,5.4-4.66,3.83,1.04,2.52,7.34,16.35,15.26,3.03,1.73-3.48,25.4-7.97,30.94Z"/>
          <path class="cls-12" d="m83.8,149.31c-9.34,1.75-38.73,9.24-48.28,10.65-.63-6.2-1.08-19.52,3.97-25.95,7.52-9.58,9.91-29.56,11.98-30.76,2.21-1.28,10.7.73,11.36,1.1.56.32,17.1,33.04,20.97,44.96Z"/>
          <path class="cls-12" d="m136.39,43.66c.03,11.6-5.44,54.92-6.16,60.5-8.32,3.72-25.36,11.19-26.93,16.71-1.42,4.98-2.24,28.17-3.92,39.84-2.62-1.95-6.69-6.89-9.74-9.71-.99-12.5-6.64-95.15.47-98.04,8.98-3.65,25.76-1.63,31.25-3.13,4.08-1.11,10.95-4.27,15.03-6.17Z"/>
          <path class="cls-12" d="m171.31,115.8c-1.45,12.04-6.05,34.97-9.14,42.94-2.44-6.81-8.87-27.67-5.7-31.42,2.3-2.72,9.32-8.18,14.84-11.52Z"/>
          <path class="cls-18" d="m62.8,103.5c-.88-.3-4.22-.38-7.36-2.1-4.14-2.27-20.6-12.64-21.62-16.51-.38-1.43-.58-2.97-.68-4.34-.57.1-1.08.2-1.53.29-.92.18-1.57.34-1.82.45-.72.33-1.78,2.94-2.92,6.41,1.59-1.77,3.47-3.44,4.7-3.15,2.47.6,5.12,7.07,9.65,10.47,2.15,1.61,7.56,4.21,7.96,8.87.37,4.22-7.88,25.47-7.88,25.47,2,0,9.46-23.93,12.61-25.02,3.16-1.1,11.23-.06,8.9-.85Z"/>
          <g>
            <path class="cls-17" d="m88.19,52.3c4.09-1.03,14.34-2.99,30.81-3.56,4.39-.15,14.49-5.14,16.79-6.46-2.63,1.43-11.92,3.86-20.91,5.13-6.6.93-23.28,2.33-26.18.8-2.89-1.53-13.12-18.71-14.69-29.59-1.57-10.87-1.92-13.23-.9-14.56.64-.83,2.04-1.43,2.04-1.43h0s-.03-.02-.04-.03c-1.15-.5-1.99-.77-2.45-.77-1.5,0-4.18,2.4-7.38,6.07.24-.21,2.7-2.3,4.86-1.29,1.68.77,1.59,18.95,1.86,21.12.27,2.18-2.52,5.64-5.47,7.41-2.53,1.52-16.43,7.44-22.1,9.84,5.2-2.16,27.95-9.9,29.75-9.55,1.8.35,10.14,12.72,10.78,14.97.68,2.41.88,70.98,3.4,81.9.62,2.7-4.25-78.98-.17-80Z"/>
            <path class="cls-17" d="m44.44,44.98c-1.49.62-2.41,1.02-2.41,1.02,0,0,.93-.39,2.41-1.02Z"/>
          </g>
          <path class="cls-7" d="m170.75,119.91c-1.84,12.56-5.81,31.69-8.58,38.83-.63,1.65-1.2,2.66-1.67,2.8-.28.08-.75.16-1.39.23-9.55,1.02-56.27.13-58.18-.23-.13-.03-.28-.07-.43-.15-.33-.13-.71-.37-1.12-.68-2.62-1.95-6.69-6.89-9.74-9.71-.71-.64-1.36-1.18-1.92-1.54-.45-.29-.85-.47-1.18-.51-.16-.02-.44,0-.83.04-.48.06-1.12.17-1.91.32-9.34,1.75-38.73,9.24-48.28,10.65-1.29.2-2.21.28-2.68.22-.17-.02-.35-.06-.55-.12-4.94-1.35-19.74-12.66-21.23-14.52-1.21-1.5-5.21-9.77-7.63-16.6,1.87.97,8.51,14.93,11.57,16.46,3.07,1.53,11.62,3.41,18.49,5.79,6.87,2.38,6.45,5.14,18.96,3.74,12.51-1.39,21.28-6.63,21.79-9.19.51-2.55-6.56-21.48-6.43-31.93.13-10.45,13.98,23.1,15.99,20.2,2.01-2.91,2.01-7.8,2.78-7.39.76.4,4.53,21.49,9.27,27.29,4.75,5.81,43.86-9.64,53.11-8.85,9.25.79,12.83-1.22,14.5-2.65,1.52-1.3,3.91-18.95,7.29-22.5Z"/>
          <path class="cls-12" d="m31.54,159.8c-5.54-2.12-19.06-12.49-20.48-14.26-.25-.31-.62-.92-1.08-1.75-2.4-5.95-4.22-12.5-.59-12.4,6.62.19,20.93,11.97,20.93,14.69,0,1.62,1.38,8.38,1.22,13.72Z"/>
          <path class="cls-12" d="m85.17,140.77c-3.06-.69-40.15-73.95-36.18-83.85,3.98-9.9,29.85,0,30.87,5.43,1.02,5.43,10.45,79.58,5.31,78.42Z"/>
          <path class="cls-12" d="m104.35,158.94c-.96-.74.98-32.04,7.13-32.32,6.16-.28,44.97,25.94,41.05,30.19-3.91,4.26-44.97,4.6-48.18,2.13Z"/>
          <path class="cls-6" d="m126.84,102.83c-1.57.7-26.38,11.99-31.83,8.98s-10.38-54.34-1.19-53.78c9.19.56,41.85,40.86,33.02,44.8Z"/>
          <path class="cls-9" d="m90.12,46.65c-1.34-.79,19.23-12.97,26.19-12.17,6.96.79,14.98,3.68,13.52,6.07s-37.45,7.44-39.71,6.1Z"/>
          <path class="cls-5" d="m77.81,24.45s-6.13-17.12-1.19-17.84c4.94-.72,38.98,20.33,37.79,22.37-1.19,2.04-27.85-13.56-30.61-10.35s-2.66,9.22-5.99,5.82Z"/>
          <path class="cls-4" d="m57.6,20.93s8.3-12.39,10.09-10.51c1.78,1.88,3.57,12.26.89,14.03-2.68,1.77-11.61-2.59-10.98-3.51Z"/>
          <path class="cls-9" d="m114.44,115.8c-1.17,1.49,36.61,9.93,38.37,8.96,1.77-.97-24.79-11.22-28.53-10.95-3.74.27-8.79.64-9.84,1.99Z"/>
          <path class="cls-7" d="m99.65,160.91c-.09-.06-.18-.13-.27-.2-2.62-1.95-6.69-6.89-9.74-9.71-.71-.64-1.36-1.18-1.92-1.54-.45-.29-.85-.47-1.18-.51-.16-.02-.44,0-.83.04-.48.06-1.12.17-1.91.32-1.63.3-3.86.78-6.5,1.38-1.98-6.32-7.97-26.2-5.02-25.85,3.51.42,7.72,12.5,11.52,13.87,3.06,1.1,12.8,15.32,15.85,22.2Z"/>
          <path class="cls-12" d="m73.28,120.42c-.41-.81-6.47-11.64-13.48-24.55-5.52-12.1-10.7-23.72-14.34-31.94-.02-.04-.03-.08-.04-.11-1.24-3.21-2.52-6.58-3.55-9.55,8.28,6.85,25.9,23.13,29.61,35.9,4.88,16.85,2.81,32.23,1.8,30.25Z"/>
          <path class="cls-4" d="m5.52,120.59c-.25-1.18,12.19-8.97,15.03-8.27s14.89,15.38,12.95,15.51c-1.94.13-27.34-4.23-27.98-7.24Z"/>
          <path class="cls-6" d="m38.72,157.19c-1.72-1.61,22.13-46.4,25.04-41.39,2.91,5.01,6.86,27.26,5.08,29.79-1.79,2.53-27.93,13.64-30.12,11.6Z"/>
          <path class="cls-4" d="m34.92,82.04c.23,1.62,15.66.93,15.92,0,.26-.93.05-2.85-2.14-2.85s-13.99,1.35-13.77,2.85Z"/>
          <path class="cls-5" d="m117.28,115.8c.22-.69,10.66-9.42,13.79-9.8,3.13-.38,37.66,2.87,37.4,3.45-.26.57-30.77.84-36.19,2.88-5.43,2.04-15.41,4.76-15,3.48Z"/>
          <path class="cls-19" d="m37.75,121.26c-1.12-.79-2.87-6.33,0-5.84,2.87.48,3.7,8.46,0,5.84Z"/>
          <path class="cls-21" d="m86.09,92.6c-1.27-.74-6.38-20.49-.52-19.15,5.86,1.34,4.56,21.51.52,19.15Z"/>
          <path class="cls-22" d="m88.49,98.88c-.75-.61,1.88-4.24,2.71-3.13.83,1.12-1.33,4.24-2.71,3.13Z"/>
          <path class="cls-1" d="m163.73,119.53h-.27c-3.35.72-9.99,5.15-6.42,5.62,3.57.47,10.21-4.38,6.68-5.62Z"/>
          <path class="cls-10" d="m36.98,115.45c-.43.15-1.62,2.44,0,3.66,1.7,1.28,2.93-1.25,2.58-2.08-.35-.83-1.51-1.96-2.58-1.58Z"/>
          <path class="cls-10" d="m84.4,73.5c-1.22.24-3.14,12.38,1.41,12.12,4.55-.26,3.5-7.58,2.88-8.71-.62-1.13-1.75-3.92-4.29-3.42Z"/>
          <path class="cls-10" d="m90.85,95.55c-.42-.1-1.63.62-1.87,1.51-.25.89,1.42,1.7,2.02.63.6-1.08.43-1.99-.15-2.14Z"/>
          <path class="cls-10" d="m156.59,123.39c-.48.41,1.82,1.05,4.67-.48,2.85-1.53,3.8-2.29,3.31-2.81-.48-.52-2.08-1.68-7.98,3.29Z"/>
          <path class="cls-17" d="m36.77,119.69c-.05-.22,1,.52,1.63.08.63-.45,1.01-1.78,1.37-1.36s.92,2.65-.16,3.14c-1.08.49-2.5-.36-2.85-1.85Z"/>
          <path class="cls-17" d="m84.38,85.85c.27-.25,1.26,1.02,2.22.4.96-.62,2.28-3.09,2.66-2.01s-.56,8.77-2.43,8.35c-2.18-.5-2.72-6.49-2.44-6.74Z"/>
          <path class="cls-17" d="m88.74,97.57c.18-.04.23.61.67.68.44.07,1.2-.12,1.04.11-.16.23-1.23,1.22-1.89.49s.06-1.25.18-1.28Z"/>
          <path class="cls-17" d="m156.2,124.06c.21-.26,2.12.39,3.37-.17,1.24-.56,4.99-2.53,4.56-1.93s-4.36,3.59-6.4,3.22-1.63-.99-1.52-1.12Z"/>
          <path class="cls-3" d="m75.77,35.73c-1.37-.75-6.47-9.05-3.49-10.07s6.34,6.09,6.34,7.62-.09,3.97-2.85,2.46Z"/>
          <path class="cls-3" d="m72.28,14.36c-1.15,1.08.92,9.04,1.49,6.53.57-2.51-.41-7.55-1.49-6.53Z"/>
          <path class="cls-3" d="m149.68,126.36c-3.03.96,5.15,9.18,4.98,6.27s-.82-7.59-4.98-6.27Z"/>
          <path class="cls-3" d="m11.41,113.46c-.04.09-.08.18-.14.27h0c-.33.65-.82,1.37-1.53,2.16-1.62,1.81-4.15,2.42-6.04,2.45-.67.01-1.26-.05-1.7-.16,2.16-1.13,5.83-2.85,9.42-4.72Z"/>
          <path class="cls-11" d="m40.23,147.99c-1.51,1.69,3.46,6.13,4.21,3.45.75-2.68-3.3-4.47-4.21-3.45Z"/>
          <path class="cls-11" d="m42.24,141.54c-1.73.83-1.29,3.05,0,2.01,1.29-1.05,1.07-2.52,0-2.01Z"/>
          <path class="cls-11" d="m57.51,108.36c-1.76,1.83,2.04,5.9,2.55,3.42s-1.21-4.82-2.55-3.42Z"/>
          <path class="cls-11" d="m96.7,143.55c-1.99-1.45-4.21-5.69-2.17-6.53,2.04-.84,3.96,7.84,2.17,6.53Z"/>
          <path class="cls-11" d="m128.47,76.91c-1.85.3-3.75,3.48-1.64,2.62,2.11-.86,3.02-2.84,1.64-2.62Z"/>
          <path class="cls-11" d="m129.13,71.2c-1.41,1.6.13,4.79.7,2.81.57-1.98.26-3.89-.7-2.81Z"/>
          <path class="cls-11" d="m147.25,131.51c-3.22.38-6.89,5.94-2.68,4.25,4.21-1.68,3.89-4.39,2.68-4.25Z"/>
          <path class="cls-11" d="m149.55,136.96c-1.52,2.32,2.28,6.54,2.29,3.36,0-3.18-1.71-4.24-2.29-3.36Z"/>
          <path class="cls-11" d="m158.49,131.2c-.68.19-.59,2.13.66,1.1,1.25-1.03.04-1.3-.66-1.1Z"/>
        </g>
      </g>
    </g>
  </g>
</svg>