<?xml version="1.0" encoding="UTF-8"?>
<svg xmlns="http://www.w3.org/2000/svg" xmlns:xlink="http://www.w3.org/1999/xlink" viewBox="0 0 75.21 162.94">
  <defs>
    <style>
      .cls-1 {
        fill: #ff7b00;
      }

      .cls-2, .cls-3, .cls-4, .cls-5 {
        fill: #fff;
      }

      .cls-3, .cls-6, .cls-7 {
        opacity: .5;
      }

      .cls-3, .cls-4, .cls-5 {
        mix-blend-mode: soft-light;
      }

      .cls-8 {
        opacity: .1;
      }

      .cls-8, .cls-6, .cls-7, .cls-9, .cls-10 {
        mix-blend-mode: multiply;
      }

      .cls-8, .cls-10 {
        fill: #f42774;
      }

      .cls-11 {
        fill: url(#linear-gradient-2);
        mix-blend-mode: screen;
      }

      .cls-12 {
        mix-blend-mode: overlay;
      }

      .cls-12, .cls-13 {
        fill: #fff603;
      }

      .cls-14 {
        fill: url(#_Áĺçűě_ííűé_ăđŕäčĺíň_533);
      }

      .cls-15 {
        isolation: isolate;
      }

      .cls-6, .cls-9 {
        fill: #de376d;
      }

      .cls-7 {
        fill: #cf4a76;
      }

      .cls-16 {
        fill: url(#_Áĺçűě_ííűé_ăđŕäčĺíň_533-2);
      }

      .cls-5 {
        opacity: .4;
      }

      .cls-9 {
        opacity: .7;
      }

      .cls-10 {
        opacity: .2;
      }

      .cls-17 {
        fill: url(#linear-gradient);
      }
    </style>
    <linearGradient id="linear-gradient" x1="33.2" y1="53.22" x2="48.48" y2="188.13" gradientTransform="translate(.84 -23.72) rotate(1.48)" gradientUnits="userSpaceOnUse">
      <stop offset="0" stop-color="#ffcf00"/>
      <stop offset="1" stop-color="#ff9600"/>
    </linearGradient>
    <linearGradient id="linear-gradient-2" x1="43.37" y1="53.63" x2="44.51" y2="169.56" gradientTransform="translate(.84 -23.72) rotate(1.48)" gradientUnits="userSpaceOnUse">
      <stop offset="0" stop-color="#fff601"/>
      <stop offset=".1" stop-color="#ece400"/>
      <stop offset=".31" stop-color="#bdb600"/>
      <stop offset=".61" stop-color="#706c00"/>
      <stop offset=".97" stop-color="#070700"/>
      <stop offset="1" stop-color="#000"/>
    </linearGradient>
    <linearGradient id="_Áĺçűě_ííűé_ăđŕäčĺíň_533" data-name="Áĺçűě˙ííűé ăđŕäčĺíň 533" x1="30.07" y1="126.39" x2="30.14" y2="130.97" gradientTransform="translate(.84 -23.72) rotate(1.48)" gradientUnits="userSpaceOnUse">
      <stop offset=".04" stop-color="#ef6300"/>
      <stop offset="1" stop-color="#e13e00"/>
    </linearGradient>
    <linearGradient id="_Áĺçűě_ííűé_ăđŕäčĺíň_533-2" data-name="Áĺçűě˙ííűé ăđŕäčĺíň 533" x1="30.44" y1="114.99" x2="30.47" y2="116.83" xlink:href="#_Áĺçűě_ííűé_ăđŕäčĺíň_533"/>
  </defs>
  <g class="cls-15">
    <g id="Vrstva_2" data-name="Vrstva 2">
      <g id="Layer_1" data-name="Layer 1">
        <g>
          <path class="cls-13" d="m14.22,61.95S28.54.07,34.57,0c8.48-.1,39.42,64.3,40.53,67.46.76,2.16-2.62,51.48-2.63,51.64-.01.16-58.24-57.16-58.24-57.16Z"/>
          <path class="cls-1" d="m13.96,63.15c-.3.89-14.71,45.87-13.93,49.01s17.42,29.61,22.03,33.62c4.61,4,27.38,18.55,30.52,17.05s18.77-36.19,19.68-41.92c.91-5.73.58-25.97.58-25.97L13.96,63.15Z"/>
          <path class="cls-17" d="m71.12,118.23c-.04.4-.09.72-.12.98-.01.08-.02.16-.03.23-.11.77-.44,1.92-.92,3.36-.68,2.04-1.68,4.63-2.87,7.51-4.99,12.06-13.36,29.11-15.57,30.53-.1.06-.19.1-.26.09-2.11-.05-5.7-1.63-9.65-3.81-.88-.49-1.78-1.01-2.69-1.55-7.28-4.31-14.9-9.92-16.33-11.49-1.76-1.92-11.72-14.81-17.15-24.41-.77-1.36-1.44-2.66-2-3.85-.9-1.93-1.46-3.59-1.52-4.79,0-.08.01-.24.05-.49h0c.19-1.25.93-4.57,2.08-9.32,3.95-16.53,12.73-50.35,20.07-74.08,2.54-8.23,4.91-15.25,6.85-19.92,1.56-3.76,2.83-5.99,3.69-6.1.92-.11,2.43,1.23,4.33,3.59,10.55,13.08,33.2,57.67,34.34,61.85.1.37.18.95.23,1.72.04.64.07,1.42.09,2.31.21,11.28-1.83,40.44-2.6,47.64Z"/>
          <path class="cls-11" d="m26.4,71.53c1.47-3.16,17.87-26.6,19.38-26.9,4.29-.84,13.29,63.35,12.12,66.77-1.17,3.42-22.63,21.64-26.49,18.08-1.63-1.51-8.09-51.35-5.01-57.95Z"/>
          <path class="cls-8" d="m26.71,73.53c.14-.75,11.43-2.03,14.42.37s-2.45,50.38-5.67,51.7c-3.23,1.32-9.84-46.34-8.74-52.07Z"/>
          <path class="cls-12" d="m34.69,3.13c-1.84.2,8.67,37.24,11.09,41.5s10.29,63.27,12.12,66.77c1.83,3.5,13.08,8.03,13.08,8.03,0,0-10.62-6.89-10.96-8.84s-9.69-36.5-4.73-38.53c4.96-2.03,17-3.23,17-3.23,0,0-19.45-2.3-19.56-7.56-.11-5.25-5.88-18.13-5.39-19.2.49-1.07-12.66-38.95-12.66-38.95Z"/>
          <path class="cls-13" d="m4.36,110.23s17.3-39.05,20.09-39.61c2.79-.56,12.83-15.3,12.83-15.3,0,0-12.8,17.23-12.22,19.2s1.29,19.65,1.29,19.65c0,0-4-14.55-4.61-13.7-.62.85-17.37,29.76-17.37,29.76Z"/>
          <path class="cls-10" d="m71,119.21c-.01.08-.02.16-.03.23-.98,6.52-16.25,39.41-19.36,41.4l-.26.09s-22.49-28.17-14.85-30.89c11.28-4.01,20.75-16.39,23.66-16.31,2.91.08,5.93,2.39,10.85,5.48Z"/>
          <path class="cls-10" d="m39,155.57c-7.28-4.31-14.9-9.92-16.33-11.49-2.41-2.63-20.28-25.91-20.67-33.05,0-.08.01-.24.05-.49h0c5.2-8.7,17.42-30.66,19.67-30.07,2.75.71,1.36,42.33,9.61,51.61,1.2,1.35,5.77,14.74,7.66,23.5Z"/>
          <path class="cls-7" d="m40.43,157.08c-.88-.49-1.78-1.01-2.69-1.55-7.28-4.31-14.9-9.92-16.33-11.49-1.76-1.92-11.72-14.81-17.15-24.41-1.75-9.45,14.03-43.25,16.21-39.2,2.9,5.39,5.78,39.71,8.87,48.11,1.56,4.23,7.5,19.3,11.09,28.54Z"/>
          <path class="cls-10" d="m41.91,43.31c.31,4.44-15.22,23.32-22.82,32.62-2.93,3.59-11.57,21.57-14.96,25.29C9.46,78.95,23.53,25.34,31.04,7.22c4.57,8.74,10.57,31.87,10.87,36.09Z"/>
          <path class="cls-12" d="m28.11,110.84c-.79,1.06,2.66,19.12,4.18,19.05,1.52-.07,12.06-5.86,11.46-5.43s-9.87,5.3-10.07,7.45c-.2,2.15,10.92,25.27,10.92,25.27,0,0-11.73-18.94-14.06-26.36-3.79-12.04-2.43-19.99-2.43-19.99Z"/>
          <path class="cls-4" d="m27.36,75.49c-.65-1.96,15.78-27.38,17.9-26.56,2.12.82,8.21,45.27,7.19,47.31-1.02,2.04-5.62-20.84-12.05-20.15-6.43.7-12.52.94-13.03-.61Z"/>
          <path class="cls-3" d="m73.62,68.28c-5.38-1.58-13.62-4.24-18.05-6.92-5.68-3.45-14.01-42.52-16.51-56.65,10.55,13.08,33.2,57.67,34.34,61.85.1.37.18.95.23,1.72Z"/>
          <path class="cls-3" d="m71.12,118.23c-4-3.13-8.32-6.77-9.24-7.26-1.7-.91-9.51-30.69-5.64-35.86,2.89-3.86,12.62-4.43,17.48-4.52.21,11.28-1.83,40.44-2.6,47.64Z"/>
          <path class="cls-6" d="m67.18,130.3c-4.99,12.06-13.36,29.11-15.57,30.53-.1.06-.19.1-.26.09-2.11-.05-5.7-1.63-9.65-3.81-.88-.49-1.78-1.01-2.69-1.55-7.28-4.31-14.9-9.92-16.33-11.49-1.76-1.92-11.72-14.81-17.15-24.41-.77-1.36-1.44-2.66-2-3.85-.9-1.93-1.46-3.59-1.52-4.79,0-.08.01-.24.05-.49h0c.19-1.25.93-4.57,2.08-9.32,3.95-16.53,12.73-50.35,20.07-74.08,1.08,4.52-18.18,65.93-16.15,78.47,2.04,12.53,11.74,34.98,14.54,37.35,2.8,2.38,5.37-2.06,12.13-2.96,6.77-.91,13.88,6.71,17.73,5.4,1.75-.59,8.34-8.55,14.73-15.09Z"/>
          <path class="cls-8" d="m72.31,72.29c-.6-.37-5.89,34.15-5.63,35.31.26,1.16,3.08,8.64,3.61,7.72.53-.92,3.34-42.2,2.02-43.03Z"/>
          <path class="cls-3" d="m33.08,4.55c-.48-1.62-8.36,20.65-7.91,22.28.44,1.63,12.43-7.17,7.91-22.28Z"/>
          <path class="cls-5" d="m51.67,156.33c-.05-.07-15.16-15.83-11.67-21.59,3.51-5.78,27.7-13.31,27.35-11.37-.35,1.93-11.52,33.29-15.68,32.96Z"/>
          <path class="cls-10" d="m6.82,117.98s6.95-26.54,10.45-24.48c3.51,2.05,19.21,54.35,16.66,54.5-2.55.15-24.69-23.92-27.12-30.01Z"/>
          <path class="cls-14" d="m29.91,105.31c-.03,1.54-.56,3.23-1.93,4.89-2.51,3.02-2.94-.83-2.61-4.72.24-2.93.92-5.87,1.46-6,.86-.19,3.16,2.45,3.08,5.83Z"/>
          <path class="cls-16" d="m29.77,93.08c-.1.77-.51,1.5-1.34,1.94-1.34.71-1.8-.94-1.63-2.46,0,0,0,0,0,0,.12-1.06.55-2.06,1.21-2.11,1.16-.07,1.94,1.31,1.77,2.63Z"/>
          <path class="cls-9" d="m29.91,105.31c-.21.32-.49.57-.81.76-1.39.8-2.85.45-3.73-.6.24-2.93.92-5.87,1.46-6,.86-.19,3.16,2.45,3.08,5.83Z"/>
          <path class="cls-9" d="m29.77,93.08c-.49.13-1.1.2-1.84.17-.68-.03-1.01-.3-1.14-.69,0,0,0,0,0,0,.12-1.06.55-2.06,1.21-2.11,1.16-.07,1.94,1.31,1.77,2.63Z"/>
          <path class="cls-12" d="m25.33,107.41c0-.22.11-1.16.45-.95s.38,1.21,1.67.83,1.96-1.33,2.2-.64c.23.69-2.18,5.56-3.74,4.13-.64-.58-.62-2.13-.58-3.37Z"/>
          <path class="cls-12" d="m26.88,93.22c.05-.15.92.4,1.14.4.22,0,1.52-.48,1.57-.33s-.74,2.17-1.77,1.8c-1.03-.37-1.1-1.36-.94-1.87Z"/>
          <path class="cls-2" d="m43.22,34.05c-1.7-.41,3.18,20.69,5.02,16.15,1.84-4.54-2.5-15.55-5.02-16.15Z"/>
          <path class="cls-2" d="m51.17,61.24c-2.6,1.31-4.71,12.21-.4,12.27,4.31.06,7.9-6.59,7.63-7.73-.28-1.14-5.12-5.6-7.23-4.54Z"/>
        </g>
      </g>
    </g>
  </g>
</svg>